{
.appVersion = "1354";
classes = (
{
automatic = 1;
code = "A Aacute Abreve Abreveacute Abrevedotbelow Abrevegrave Abrevehookabove Abrevetilde Acircumflex Acircumflexacute Acircumflexdotbelow Acircumflexgrave Acircumflexhookabove Acircumflextilde Adieresis Adotbelow Agrave Ahookabove Amacron Aogonek Aring Aringacute Atilde AE AEacute B C Cacute Ccaron Ccedilla Ccircumflex Cdotaccent D DZ DZcaron Eth Dcaron Dcroat Ddotbelow Dz Dzcaron E Eacute Ebreve Ecaron Ecircumflex Ecircumflexacute Ecircumflexdotbelow Ecircumflexgrave Ecircumflexhookabove Ecircumflextilde Edieresis Edotaccent Edotbelow Egrave Ehookabove Emacron Eogonek Etilde F G Gbreve Gcircumflex Gcommaaccent Gdotaccent H Hbar Hcircumflex Hdotbelow I IJ Iacute Ibreve Icircumflex Idieresis Idotaccent Idotbelow Igrave Ihookabove Imacron Iogonek Itilde J Jcircumflex K Kcommaaccent L LJ Lacute Lcaron Lcommaaccent Ldot Lj Lslash M N NJ Nacute Ncaron Ncommaaccent Ndotaccent Eng Nj Ntilde O Oacute Obreve Ocircumflex Ocircumflexacute Ocircumflexdotbelow Ocircumflexgrave Ocircumflexhookabove Ocircumflextilde Odieresis Odotbelow Ograve Ohookabove Ohorn Ohornacute Ohorndotbelow Ohorngrave Ohornhookabove Ohorntilde Ohungarumlaut Omacron Oogonek Oslash Oslashacute Otilde OE P Thorn Q R Racute Rcaron Rcommaaccent Rdotbelow S Sacute Scaron Scedilla Scircumflex Scommaaccent Sdotbelow Germandbls Schwa T Tbar Tcaron Tcedilla Tcommaaccent Tdotbelow U Uacute Ubreve Ucircumflex Udieresis Udotbelow Ugrave Uhookabove Uhorn Uhornacute Uhorndotbelow Uhorngrave Uhornhookabove Uhorntilde Uhungarumlaut Umacron Uogonek Uring Utilde V W Wacute Wcircumflex Wdieresis Wgrave X Y Yacute Ycircumflex Ydieresis Ydotbelow Ygrave Yhookabove Ytilde Z Zacute Zcaron Zdotaccent Zdotbelow Iacute_J.loclNLD Y.loclGUA Yacute.loclGUA Ycircumflex.loclGUA Ydieresis.loclGUA Ydotbelow.loclGUA Ygrave.loclGUA Yhookabove.loclGUA Ytilde.loclGUA Cacute.loclPLK Nacute.loclPLK Oacute.loclPLK Sacute.loclPLK Zacute.loclPLK Delta Omega";
name = Uppercase;
},
{

glyphs = (
{
glyphname = A;
lastChange = "2015-02-24 04:03:16 +0000";
layers = (
{
anchors = (
{
name = bottom;
position = "{269, 0}";
},
{
name = ogonek;
position = "{507, 0}";
},
{
name = top;
position = "{266.5, 607.5}";
}
);
layerId = "A2A4A5F3-E0E0-4E92-91CC-8026BABF9DB1";
paths = (
{
closed = 1;
nodes = (
"52 -1.5 LINE SMOOTH",
"69.5 -1.5 OFFCURVE",
"83.5 1.5 OFFCURVE",
"87 12 CURVE SMOOTH",
"136.5 154.5 LINE",
"391.5 154.5 LINE",
"442.5 12 LINE SMOOTH",
"446 1.5 OFFCURVE",
"460 -1.5 OFFCURVE",
"477.5 -1.5 CURVE SMOOTH",
"484.5 -1.5 LINE SMOOTH",
"510.5 -1.5 OFFCURVE",
"521.5 4.5 OFFCURVE",
"521.5 13 CURVE SMOOTH",
"521.5 16.5 OFFCURVE",
"521 20 OFFCURVE",
"519 24.5 CURVE SMOOTH",
"313.5 595.5 LINE SMOOTH",
"310 606 OFFCURVE",
"296 609.5 OFFCURVE",
"278.5 609.5 CURVE SMOOTH",
"253.5 609.5 LINE SMOOTH",
"236 609.5 OFFCURVE",
"222 606 OFFCURVE",
"218.5 595.5 CURVE SMOOTH",
"13 25 LINE SMOOTH",
"11.5 20 OFFCURVE",
"10.5 16.5 OFFCURVE",
"10.5 13 CURVE SMOOTH",
"10.5 3.5 OFFCURVE",
"21.5 -1.5 OFFCURVE",
"47.5 -1.5 CURVE SMOOTH"
);
},
{
closed = 1;
nodes = (
"251.5 479 LINE SMOOTH",
"258 495.5 OFFCURVE",
"261.5 513 OFFCURVE",
"264.5 529.5 CURVE",
"266.5 529.5 LINE",
"269 513 OFFCURVE",
"271.5 495 OFFCURVE",
"277 479 CURVE SMOOTH",
"368 220.5 LINE",
"160.5 220.5 LINE"
);
}
);
width = 532;
},
{
anchors = (
{
name = bottom;
position = "{269, 0}";
},
{
name = ogonek;
position = "{479, 0}";
},
{
name = top;
position = "{266.5, 607.5}";
}
);
layerId = "163C89DF-00F0-42B6-A1D9-DCBEB7633CF5";
paths = (
{
closed = 1;
nodes = (
"87.5 -1.5 LINE SMOOTH",
"108.5 -1.5 OFFCURVE",
"123.5 3.5 OFFCURVE",
"127.5 16.5 CURVE SMOOTH",
"162.5 122.5 LINE",
"367 122.5 LINE",
"402 16.5 LINE SMOOTH",
"406 2.5 OFFCURVE",
"425.5 -1.5 OFFCURVE",
"450.5 -1.5 CURVE SMOOTH",
"488.5 -1.5 LINE SMOOTH",
"519 -1.5 OFFCURVE",
"532 5 OFFCURVE",
"532 17.5 CURVE SMOOTH",
"532 21.5 OFFCURVE",
"531 27 OFFCURVE",
"529.5 33 CURVE SMOOTH",
"338.5 591 LINE SMOOTH",
"333.5 605 OFFCURVE",
"314 609.5 OFFCURVE",
"289 609.5 CURVE SMOOTH",
"244 609.5 LINE SMOOTH",
"218.5 609.5 OFFCURVE",
"199.5 605 OFFCURVE",
"194.5 591 CURVE SMOOTH",
"3.5 33 LINE SMOOTH",
"1.5 27 OFFCURVE",
"0 21.5 OFFCURVE",
"0 17.5 CURVE SMOOTH",
"0 5 OFFCURVE",
"16.5 -1.5 OFFCURVE",
"53 -1.5 CURVE SMOOTH"
);
},
{
closed = 1;
nodes = (
"251 391.5 LINE SMOOTH",
"258 409.5 OFFCURVE",
"260.5 429 OFFCURVE",
"264 447 CURVE",
"267.5 447 LINE",
"271 429 OFFCURVE",
"274.5 409.5 OFFCURVE",
"280.5 391.5 CURVE SMOOTH",
"330 237 LINE",
"199.5 237 LINE"
);
}
);
width = 532;
}
);
leftKerningGroup = A;
rightKerningGroup = A;
unicode = 0041;
},
{
glyphname = Aringacute;
lastChange = "2015-02-24 04:03:16 +0000";
layers = (
{
components = (
{
alignment = -1;
name = ring;
transform = "{1, 0, 0, 1, 127.596, 52.08}";
}
);
layerId = "A2A4A5F3-E0E0-4E92-91CC-8026BABF9DB1";
paths = (
{
closed = 1;
nodes = (
"52 -1.5 LINE SMOOTH",
"69.5 -1.5 OFFCURVE",
"83.5 1.5 OFFCURVE",
"87 12 CURVE SMOOTH",
"136.5 154.5 LINE",
"391.5 154.5 LINE",
"442.5 12 LINE SMOOTH",
"446 1.5 OFFCURVE",
"460 -1.5 OFFCURVE",
"477.5 -1.5 CURVE SMOOTH",
"484.5 -1.5 LINE SMOOTH",
"510.5 -1.5 OFFCURVE",
"521.5 4.5 OFFCURVE",
"521.5 13 CURVE SMOOTH",
"521.5 16.5 OFFCURVE",
"521 20 OFFCURVE",
"519 24.5 CURVE SMOOTH",
"313.5 595.5 LINE",
"278.5 557.5 LINE",
"253.5 557.5 LINE",
"218.5 595.5 LINE",
"13 25 LINE SMOOTH",
"11.5 20 OFFCURVE",
"10.5 16.5 OFFCURVE",
"10.5 13 CURVE SMOOTH",
"10.5 3.5 OFFCURVE",
"21.5 -1.5 OFFCURVE",
"47.5 -1.5 CURVE SMOOTH"
);
},
{
closed = 1;
nodes = (
"251.5 479 LINE SMOOTH",
"258 495.5 OFFCURVE",
"261.5 513 OFFCURVE",
"264.5 529.5 CURVE",
"266.5 529.5 LINE",
"269 513 OFFCURVE",
"271.5 495 OFFCURVE",
"277 479 CURVE SMOOTH",
"368 220.5 LINE",
"160.5 220.5 LINE"
);
},
{
closed = 1;
nodes = (
"270 713.5 OFFCURVE",
"286.5 718.5 OFFCURVE",
"296 729 CURVE SMOOTH",
"351.5 784.5 OFFCURVE",
"359.5 789 OFFCURVE",
"359.5 795 CURVE SMOOTH",
"359.5 804 OFFCURVE",
"345.5 806.5 OFFCURVE",
"317.5 806.5 CURVE SMOOTH",
"290 806.5 OFFCURVE",
"273.5 801 OFFCURVE",
"264 784 CURVE SMOOTH",
"253.5 764.5 OFFCURVE",
"247.5 753.5 OFFCURVE",
"232 722 CURVE SMOOTH",
"232 716 OFFCURVE",
"238 713.5 OFFCURVE",
"251.5 713.5 CURVE SMOOTH"
);
}
);
width = 532;
},
{
components = (
{
alignment = -1;
name = ring;
transform = "{1, 0, 0, 1, 127.596, 40.796}";
}
);
layerId = "163C89DF-00F0-42B6-A1D9-DCBEB7633CF5";
paths = (
{
closed = 1;
nodes = (
"87.5 -1.5 LINE SMOOTH",
"108.5 -1.5 OFFCURVE",
"123.5 3.5 OFFCURVE",
"127.5 16.5 CURVE SMOOTH",
"162.5 122.5 LINE",
"367 122.5 LINE",
"402 16.5 LINE SMOOTH",
"406 2.5 OFFCURVE",
"425.5 -1.5 OFFCURVE",
"450.5 -1.5 CURVE SMOOTH",
"488.5 -1.5 LINE SMOOTH",
"519 -1.5 OFFCURVE",
"532 5 OFFCURVE",
"532 17.5 CURVE SMOOTH",
"532 21.5 OFFCURVE",
"531 27 OFFCURVE",
"529.5 33 CURVE SMOOTH",
"338.5 591 LINE",
"289 548.5 LINE",
"244 548.5 LINE",
"194.5 591 LINE",
"3.5 33 LINE SMOOTH",
"1.5 27 OFFCURVE",
"0 21.5 OFFCURVE",
"0 17.5 CURVE SMOOTH",
"0 5 OFFCURVE",
"16.5 -1.5 OFFCURVE",
"53 -1.5 CURVE SMOOTH"
);
},
{
closed = 1;
nodes = (
"251 391.5 LINE SMOOTH",
"258 409.5 OFFCURVE",
"260.5 429 OFFCURVE",
"264 447 CURVE",
"267.5 447 LINE",
"271 429 OFFCURVE",
"274.5 409.5 OFFCURVE",
"280.5 391.5 CURVE SMOOTH",
"330 237 LINE",
"199.5 237 LINE"
);
},
{
closed = 1;
nodes = (
"294.5 705 OFFCURVE",
"309 716 OFFCURVE",
"318.5 726.5 CURVE SMOOTH",
"383.5 787.5 OFFCURVE",
"388 789 OFFCURVE",
"388 796 CURVE SMOOTH",
"388 805.5 OFFCURVE",
"370.5 808 OFFCURVE",
"336 808 CURVE SMOOTH",
"301 808 OFFCURVE",
"272.5 803 OFFCURVE",
"262 784.5 CURVE SMOOTH",
"249 764.5 OFFCURVE",
"240.5 750 OFFCURVE",
"226.5 718 CURVE SMOOTH",
"226.5 708.5 OFFCURVE",
"232.5 705 OFFCURVE",
"253.5 705 CURVE SMOOTH"
);
}
);
width = 532;
}
);
leftKerningGroup = A;
rightKerningGroup = A;
unicode = 01FA;
},
{
glyphname = AE;
lastChange = "2015-02-24 04:03:16 +0000";
layers = (
{
anchors = (
{
name = top;
position = "{397.5, 607.5}";
}
);
layerId = "A2A4A5F3-E0E0-4E92-91CC-8026BABF9DB1";
paths = (
{
closed = 1;
nodes = (
"28.5 -1.5 LINE SMOOTH",
"45 -1.5 OFFCURVE",
"58 2.5 OFFCURVE",
"63.5 12 CURVE SMOOTH",
"133 154.5 LINE",
"389 154.5 LINE",
"416.5 25 LINE SMOOTH",
"420 8 OFFCURVE",
"429.5 0 OFFCURVE",
"448 0 CURVE SMOOTH",
"697 0 LINE SMOOTH",
"709 0 OFFCURVE",
"714.5 8 OFFCURVE",
"714.5 26 CURVE SMOOTH",
"714.5 40 LINE SMOOTH",
"714.5 58 OFFCURVE",
"709 66 OFFCURVE",
"697 66 CURVE SMOOTH",
"485 66 LINE",
"439 278 LINE",
"670 278 LINE SMOOTH",
"682 278 OFFCURVE",
"687.5 285.5 OFFCURVE",
"687.5 304 CURVE SMOOTH",
"687.5 317.5 LINE SMOOTH",
"687.5 336 OFFCURVE",
"682 343.5 OFFCURVE",
"670 343.5 CURVE SMOOTH",
"425.5 343.5 LINE",
"382 541.5 LINE",
"696 541.5 LINE SMOOTH",
"708.5 541.5 OFFCURVE",
"713.5 549.5 OFFCURVE",
"713.5 567.5 CURVE SMOOTH",
"713.5 581.5 LINE SMOOTH",
"713.5 600 OFFCURVE",
"708.5 607.5 OFFCURVE",
"696 607.5 CURVE SMOOTH",
"310 607.5 LINE SMOOTH",
"291.5 607.5 OFFCURVE",
"280.5 600.5 OFFCURVE",
"272.5 584 CURVE SMOOTH",
"-6 27 LINE SMOOTH",
"-8.5 21.5 OFFCURVE",
"-9.5 16.5 OFFCURVE",
"-9.5 13 CURVE SMOOTH",
"-9.5 3.5 OFFCURVE",
"-1.5 -1.5 OFFCURVE",
"24.5 -1.5 CURVE SMOOTH"
);
},
{
closed = 1;
nodes = (
"295 479 LINE",
"313.5 529.5 LINE",
"315 529.5 LINE",
"318.5 479 LINE",
"374 219.5 LINE",
"166.5 219.5 LINE"
);
}
);
width = 794;
},
{
anchors = (
{
name = top;
position = "{397.5, 607.5}";
}
);
layerId = "163C89DF-00F0-42B6-A1D9-DCBEB7633CF5";
paths = (
{
closed = 1;
nodes = (
"86 -1.5 LINE SMOOTH",
"107 -1.5 OFFCURVE",
"120 4.5 OFFCURVE",
"126 16.5 CURVE SMOOTH",
"178 122.5 LINE",
"389 122.5 LINE",
"407 26 LINE SMOOTH",
"410.5 8 OFFCURVE",
"418.5 0 OFFCURVE",
"437.5 0 CURVE SMOOTH",
"725 0 LINE SMOOTH",
"743 0 OFFCURVE",
"751 13 OFFCURVE",
"751 43.5 CURVE SMOOTH",
"751 70.5 LINE SMOOTH",
"751 100.5 OFFCURVE",
"743 113.5 OFFCURVE",
"725 113.5 CURVE SMOOTH",
"522.5 113.5 LINE",
"495.5 254.5 LINE",
"700.5 254.5 LINE SMOOTH",
"718.5 254.5 OFFCURVE",
"726.5 267.5 OFFCURVE",
"726.5 297.5 CURVE SMOOTH",
"726.5 324.5 LINE SMOOTH",
"726.5 355 OFFCURVE",
"718.5 368 OFFCURVE",
"700.5 368 CURVE SMOOTH",
"473 368 LINE",
"449 494 LINE",
"724 494 LINE SMOOTH",
"742 494 OFFCURVE",
"750 507 OFFCURVE",
"750 537.5 CURVE SMOOTH",
"750 564 LINE SMOOTH",
"750 594.5 OFFCURVE",
"742 607.5 OFFCURVE",
"724 607.5 CURVE SMOOTH",
"321 607.5 LINE SMOOTH",
"303 607.5 OFFCURVE",
"291.5 600.5 OFFCURVE",
"283 584 CURVE SMOOTH",
"4.5 33 LINE SMOOTH",
"1.5 28 OFFCURVE",
"1 21.5 OFFCURVE",
"1 17.5 CURVE SMOOTH",
"1 5 OFFCURVE",
"17.5 -1.5 OFFCURVE",
"54 -1.5 CURVE SMOOTH"
);
},
{
closed = 1;
nodes = (
"311.5 395 LINE",
"336 466 LINE",
"339.5 466 LINE",
"339.5 394 LINE",
"368 237 LINE",
"234.5 237 LINE"
);
}
);
width = 794;
}
);
unicode = 00C6;
},
{
glyphname = B;
lastChange = "2015-02-24 04:03:16 +0000";
layers = (
{
layerId = "A2A4A5F3-E0E0-4E92-91CC-8026BABF9DB1";
paths = (
{
closed = 1;
nodes = (
"259.5 0 LINE SMOOTH",
"405.5 0 OFFCURVE",
"486 54 OFFCURVE",
"486 174.5 CURVE SMOOTH",
"486 289 OFFCURVE",
"364.5 318.5 OFFCURVE",
"364.5 318.5 CURVE",
"364.5 322 LINE",
"415 336 OFFCURVE",
"460 396 OFFCURVE",
"460 454 CURVE SMOOTH",
"460 545 OFFCURVE",
"395 607.5 OFFCURVE",
"265.5 607.5 CURVE SMOOTH",
"110 607.5 LINE SMOOTH",
"92 607.5 OFFCURVE",
"84 600 OFFCURVE",
"84 581.5 CURVE SMOOTH",
"84 26 LINE SMOOTH",
"84 8 OFFCURVE",
"92 0 OFFCURVE",
"110 0 CURVE SMOOTH"
);
},
{
closed = 1;
nodes = (
"160.5 279.5 LINE",
"272.5 279.5 LINE SMOOTH",
"362 279.5 OFFCURVE",
"407 241.5 OFFCURVE",
"407 178 CURVE SMOOTH",
"407 109.5 OFFCURVE",
"364.5 66 OFFCURVE",
"287.5 66 CURVE SMOOTH",
"160.5 66 LINE"
);
},
{
closed = 1;
nodes = (
"160.5 541.5 LINE",
"258 541.5 LINE SMOOTH",
"344.5 541.5 OFFCURVE",
"381 511.5 OFFCURVE",
"381 447 CURVE SMOOTH",
"381 390.5 OFFCURVE",
"331.5 345.5 OFFCURVE",
"261.5 345.5 CURVE SMOOTH",
"160.5 345.5 LINE"
);
}
);
width = 514.5;
},
{
layerId = "163C89DF-00F0-42B6-A1D9-DCBEB7633CF5";
paths = (
{
closed = 1;
nodes = (
"278.5 0 LINE SMOOTH",
"425.5 0 OFFCURVE",
"495.5 64 OFFCURVE",
"495.5 176 CURVE SMOOTH",
"495.5 243 OFFCURVE",
"448 304.5 OFFCURVE",
"378.5 318.5 CURVE",
"377.5 322 LINE",
"429.5 343.5 OFFCURVE",
"471.5 395 OFFCURVE",
"471.5 454 CURVE SMOOTH",
"471.5 545 OFFCURVE",
"413 607.5 OFFCURVE",
"266.5 607.5 CURVE SMOOTH",
"94.5 607.5 LINE SMOOTH",
"70.5 607.5 OFFCURVE",
"60 597 OFFCURVE",
"60 573 CURVE SMOOTH",
"60 34.5 LINE SMOOTH",
"60 10.5 OFFCURVE",
"70.5 0 OFFCURVE",
"94.5 0 CURVE SMOOTH"
);
},
{
closed = 1;
nodes = (
"193.5 251.5 LINE",
"264.5 251.5 LINE SMOOTH",
"324.5 251.5 OFFCURVE",
"358.5 229 OFFCURVE",
"358.5 184 CURVE SMOOTH",
"358.5 139 OFFCURVE",
"329 113.5 OFFCURVE",
"278.5 113.5 CURVE SMOOTH",
"193.5 113.5 LINE"
);
},
{
closed = 1;
nodes = (
"193.5 495 LINE",
"255 495 LINE SMOOTH",
"308 495 OFFCURVE",
"334 473 OFFCURVE",
"334 430.5 CURVE SMOOTH",
"334 394 OFFCURVE",
"305.5 365.5 OFFCURVE",
"253.5 365.5 CURVE SMOOTH",
"193.5 365.5 LINE"
);
}
);
width = 514.5;
}
);
unicode = 0042;
},
{
glyphname = C;
lastChange = "2015-02-24 04:03:16 +0000";
layers = (
{
anchors = (
{
name = bottom;
position = "{313.5, 0}";
},
{
name = top;
position = "{308, 607.5}";
}
);
layerId = "A2A4A5F3-E0E0-4E92-91CC-8026BABF9DB1";
paths = (
{
closed = 1;
nodes = (
"430.5 -5 OFFCURVE",
"508.5 34 OFFCURVE",
"508.5 57.5 CURVE SMOOTH",
"508.5 67.5 OFFCURVE",
"489.5 104 OFFCURVE",
"478.5 104 CURVE SMOOTH",
"467 104 OFFCURVE",
"418.5 61 OFFCURVE",
"329 61 CURVE SMOOTH",
"192.5 61 OFFCURVE",
"128.5 136.5 OFFCURVE",
"128.5 303 CURVE SMOOTH",
"128.5 474 OFFCURVE",
"193.5 547 OFFCURVE",
"332.5 547 CURVE SMOOTH",
"416 547 OFFCURVE",
"457.5 508.5 OFFCURVE",
"467 508.5 CURVE SMOOTH",
"478.5 508.5 OFFCURVE",
"496.5 544 OFFCURVE",
"496.5 559 CURVE SMOOTH",
"496.5 582.5 OFFCURVE",
"416.5 613 OFFCURVE",
"330.5 613 CURVE SMOOTH",
"145 613 OFFCURVE",
"49.5 511.5 OFFCURVE",
"49.5 304 CURVE SMOOTH",
"49.5 92 OFFCURVE",
"139 -5 OFFCURVE",
"329 -5 CURVE SMOOTH"
);
}
);
width = 537.5;
},
{
anchors = (
{
name = bottom;
position = "{324, 0}";
},
{
name = top;
position = "{319.5, 607.5}";
}
);
layerId = "163C89DF-00F0-42B6-A1D9-DCBEB7633CF5";
paths = (
{
closed = 1;
nodes = (
"394 -7 OFFCURVE",
"518 14 OFFCURVE",
"518 66 CURVE SMOOTH",
"518 80.5 OFFCURVE",
"495 141.5 OFFCURVE",
"467 141.5 CURVE SMOOTH",
"454 141.5 OFFCURVE",
"407 107 OFFCURVE",
"324.5 107 CURVE SMOOTH",
"225 107 OFFCURVE",
"176 174.5 OFFCURVE",
"176 304.5 CURVE SMOOTH",
"176 435 OFFCURVE",
"224 500 OFFCURVE",
"326.5 500 CURVE SMOOTH",
"409 500 OFFCURVE",
"443.5 472 OFFCURVE",
"454 472 CURVE SMOOTH",
"475.5 472 OFFCURVE",
"510.5 529.5 OFFCURVE",
"510.5 554 CURVE SMOOTH",
"510.5 590 OFFCURVE",
"405.5 614.5 OFFCURVE",
"329 614.5 CURVE SMOOTH",
"136.5 614.5 OFFCURVE",
"39 512 OFFCURVE",
"39 305.5 CURVE SMOOTH",
"39 91 OFFCURVE",
"130 -7 OFFCURVE",
"324.5 -7 CURVE SMOOTH"
);
}
);
width = 537.5;
}
);
unicode = 0043;
},
{
glyphname = D;
lastChange = "2015-02-24 04:03:16 +0000";
layers = (
{
anchors = (
{
name = bottom;
position = "{284, 0}";
},
{
name = center;
position = "{302, 304}";
},
{
name = top;
position = "{271, 607.5}";
}
);
layerId = "A2A4A5F3-E0E0-4E92-91CC-8026BABF9DB1";
paths = (
{
closed = 1;
nodes = (
"285.5 0 LINE SMOOTH",
"435 0 OFFCURVE",
"554 78 OFFCURVE",
"554 304 CURVE SMOOTH",
"554 528.5 OFFCURVE",
"435 607.5 OFFCURVE",
"285.5 607.5 CURVE SMOOTH",
"110 607.5 LINE SMOOTH",
"92 607.5 OFFCURVE",
"84 600 OFFCURVE",
"84 581.5 CURVE SMOOTH",
"84 26 LINE SMOOTH",
"84 8 OFFCURVE",
"92 0 OFFCURVE",
"110 0 CURVE SMOOTH"
);
},
{
closed = 1;
nodes = (
"160.5 541.5 LINE",
"279.5 541.5 LINE SMOOTH",
"388 541.5 OFFCURVE",
"475 476.5 OFFCURVE",
"475 304 CURVE SMOOTH",
"475 130 OFFCURVE",
"388 66 OFFCURVE",
"279.5 66 CURVE SMOOTH",
"160.5 66 LINE"
);
}
);
width = 603.5;
},
{
anchors = (
{
name = bottom;
position = "{287.5, 0}";
},
{
name = center;
position = "{302, 304}";
},
{
name = top;
position = "{289, 607.5}";
}
);
layerId = "163C89DF-00F0-42B6-A1D9-DCBEB7633CF5";
paths = (
{
closed = 1;
nodes = (
"289 0 LINE SMOOTH",
"468 0 OFFCURVE",
"567 107.5 OFFCURVE",
"567 304 CURVE SMOOTH",
"567 500 OFFCURVE",
"468 607.5 OFFCURVE",
"289 607.5 CURVE SMOOTH",
"94.5 607.5 LINE SMOOTH",
"70.5 607.5 OFFCURVE",
"60 597 OFFCURVE",
"60 573 CURVE SMOOTH",
"60 34.5 LINE SMOOTH",
"60 10.5 OFFCURVE",
"70.5 0 OFFCURVE",
"94.5 0 CURVE SMOOTH"
);
},
{
closed = 1;
nodes = (
"194.5 494 LINE",
"289 494 LINE SMOOTH",
"382 494 OFFCURVE",
"429.5 427 OFFCURVE",
"429.5 304 CURVE SMOOTH",
"429.5 180.5 OFFCURVE",
"382 113.5 OFFCURVE",
"289 113.5 CURVE SMOOTH",
"194.5 113.5 LINE"
);
}
);
width = 603.5;
}
);
unicode = 0044;
},
{
glyphname = Eth;
lastChange = "2015-02-24 04:03:16 +0000";
layers = (
{
layerId = "A2A4A5F3-E0E0-4E92-91CC-8026BABF9DB1";
paths = (
{
closed = 1;
nodes = (
"286.5 0 LINE SMOOTH",
"435.5 0 OFFCURVE",
"556.5 78 OFFCURVE",
"556.5 304 CURVE SMOOTH",
"556.5 528.5 OFFCURVE",
"435.5 607.5 OFFCURVE",
"286.5 607.5 CURVE SMOOTH",
"100 607.5 LINE SMOOTH",
"81.5 607.5 OFFCURVE",
"74 600 OFFCURVE",
"74 581.5 CURVE SMOOTH",
"74 343.5 LINE",
"17.5 343.5 LINE SMOOTH",
"5 343.5 OFFCURVE",
"0 336 OFFCURVE",
"0 317.5 CURVE SMOOTH",
"0 304 LINE SMOOTH",
"0 285.5 OFFCURVE",
"5 278 OFFCURVE",
"17.5 278 CURVE SMOOTH",
"74 278 LINE",
"74 26 LINE SMOOTH",
"74 8 OFFCURVE",
"81.5 0 OFFCURVE",
"100 0 CURVE SMOOTH"
);
},
{
closed = 1;
nodes = (
"150 278 LINE",
"245.5 278 LINE SMOOTH",
"258 278 OFFCURVE",
"263 285.5 OFFCURVE",
"263 304 CURVE SMOOTH",
"263 317.5 LINE SMOOTH",
"263 336 OFFCURVE",
"258 343.5 OFFCURVE",
"245.5 343.5 CURVE SMOOTH",
"150 343.5 LINE",
"150 541.5 LINE",
"280.5 541.5 LINE SMOOTH",
"389 541.5 OFFCURVE",
"477.5 476.5 OFFCURVE",
"477.5 304 CURVE SMOOTH",
"477.5 130 OFFCURVE",
"389 66 OFFCURVE",
"280.5 66 CURVE SMOOTH",
"150 66 LINE"
);
}
);
width = 604;
},
{
layerId = "163C89DF-00F0-42B6-A1D9-DCBEB7633CF5";
paths = (
{
closed = 1;
nodes = (
"291 0 LINE SMOOTH",
"469.5 0 OFFCURVE",
"568.5 107.5 OFFCURVE",
"568.5 304 CURVE SMOOTH",
"568.5 500 OFFCURVE",
"469.5 607.5 OFFCURVE",
"291 607.5 CURVE SMOOTH",
"96.5 607.5 LINE SMOOTH",
"72 607.5 OFFCURVE",
"61.5 597 OFFCURVE",
"61.5 573 CURVE SMOOTH",
"61.5 365.5 LINE",
"36.5 365.5 LINE SMOOTH",
"18 365.5 OFFCURVE",
"10.5 352.5 OFFCURVE",
"10.5 322 CURVE SMOOTH",
"10.5 296 LINE SMOOTH",
"10.5 265.5 OFFCURVE",
"18 252.5 OFFCURVE",
"36.5 252.5 CURVE SMOOTH",
"61.5 252.5 LINE",
"61.5 34.5 LINE SMOOTH",
"61.5 10.5 OFFCURVE",
"72 0 OFFCURVE",
"96.5 0 CURVE SMOOTH"
);
},
{
closed = 1;
nodes = (
"196 252.5 LINE",
"247.5 252.5 LINE SMOOTH",
"265.5 252.5 OFFCURVE",
"273.5 265.5 OFFCURVE",
"273.5 296 CURVE SMOOTH",
"273.5 322 LINE SMOOTH",
"273.5 352.5 OFFCURVE",
"265.5 365.5 OFFCURVE",
"247.5 365.5 CURVE SMOOTH",
"196 365.5 LINE",
"196 494 LINE",
"291 494 LINE SMOOTH",
"383.5 494 OFFCURVE",
"431.5 427 OFFCURVE",
"431.5 304 CURVE SMOOTH",
"431.5 180.5 OFFCURVE",
"383.5 113.5 OFFCURVE",
"291 113.5 CURVE SMOOTH",
"196 113.5 LINE"
);
}
);
width = 604;
}
);
unicode = 00D0;
},
{
glyphname = E;
lastChange = "2015-02-24 04:03:16 +0000";
layers = (
{
anchors = (
{
name = bottom;
position = "{260.5, 0}";
},
{
name = ogonek;
position = "{414, 0}";
},
{
name = top;
position = "{257, 607.5}";
}
);
layerId = "A2A4A5F3-E0E0-4E92-91CC-8026BABF9DB1";
paths = (
{
closed = 1;
nodes = (
"414 0 LINE SMOOTH",
"426 0 OFFCURVE",
"431.5 8 OFFCURVE",
"431.5 26 CURVE SMOOTH",
"431.5 40 LINE SMOOTH",
"431.5 58 OFFCURVE",
"426 66 OFFCURVE",
"414 66 CURVE SMOOTH",
"160.5 66 LINE",
"160.5 278 LINE",
"387 278 LINE SMOOTH",
"399.5 278 OFFCURVE",
"404.5 285.5 OFFCURVE",
"404.5 304 CURVE SMOOTH",
"404.5 317.5 LINE SMOOTH",
"404.5 336 OFFCURVE",
"399.5 343.5 OFFCURVE",
"387 343.5 CURVE SMOOTH",
"160.5 343.5 LINE",
"160.5 541.5 LINE",
"413 541.5 LINE SMOOTH",
"425.5 541.5 OFFCURVE",
"430.5 549.5 OFFCURVE",
"430.5 567.5 CURVE SMOOTH",
"430.5 581.5 LINE SMOOTH",
"430.5 600 OFFCURVE",
"425.5 607.5 OFFCURVE",
"413 607.5 CURVE SMOOTH",
"110 607.5 LINE SMOOTH",
"92 607.5 OFFCURVE",
"84 600 OFFCURVE",
"84 581.5 CURVE SMOOTH",
"84 26 LINE SMOOTH",
"84 8 OFFCURVE",
"92 0 OFFCURVE",
"110 0 CURVE SMOOTH"
);
}
);
width = 474;
},
{
anchors = (
{
name = bottom;
position = "{249, 0}";
},
{
name = ogonek;
position = "{410.5, 0}";
},
{
name = top;
position = "{256, 607.5}";
}
);
layerId = "163C89DF-00F0-42B6-A1D9-DCBEB7633CF5";
paths = (
{
closed = 1;
nodes = (
"413 0 LINE SMOOTH",
"431.5 0 OFFCURVE",
"439 13 OFFCURVE",
"439 43.5 CURVE SMOOTH",
"439 70.5 LINE SMOOTH",
"439 100.5 OFFCURVE",
"431.5 113.5 OFFCURVE",
"413 113.5 CURVE SMOOTH",
"193.5 113.5 LINE",
"193.5 254.5 LINE",
"389 254.5 LINE SMOOTH",
"407 254.5 OFFCURVE",
"415 267.5 OFFCURVE",
"415 297.5 CURVE SMOOTH",
"415 324.5 LINE SMOOTH",
"415 355 OFFCURVE",
"407 368 OFFCURVE",
"389 368 CURVE SMOOTH",
"193.5 368 LINE",
"193.5 494 LINE",
"412.5 494 LINE SMOOTH",
"430.5 494 OFFCURVE",
"438.5 507 OFFCURVE",
"438.5 537.5 CURVE SMOOTH",
"438.5 564 LINE SMOOTH",
"438.5 594.5 OFFCURVE",
"430.5 607.5 OFFCURVE",
"412.5 607.5 CURVE SMOOTH",
"94.5 607.5 LINE SMOOTH",
"70.5 607.5 OFFCURVE",
"60 597 OFFCURVE",
"60 573 CURVE SMOOTH",
"60 34.5 LINE SMOOTH",
"60 10.5 OFFCURVE",
"70.5 0 OFFCURVE",
"94.5 0 CURVE SMOOTH"
);
}
);
width = 474;
}
);
unicode = 0045;
},
{
glyphname = F;
lastChange = "2015-02-24 04:03:16 +0000";
layers = (
{
layerId = "A2A4A5F3-E0E0-4E92-91CC-8026BABF9DB1";
paths = (
{
closed = 1;
nodes = (
"126 -1.5 LINE SMOOTH",
"150 -1.5 OFFCURVE",
"160.5 5 OFFCURVE",
"160.5 17.5 CURVE SMOOTH",
"160.5 278 LINE",
"368 278 LINE SMOOTH",
"380 278 OFFCURVE",
"385.5 285.5 OFFCURVE",
"385.5 304 CURVE SMOOTH",
"385.5 317.5 LINE SMOOTH",
"385.5 336 OFFCURVE",
"380 343.5 OFFCURVE",
"368 343.5 CURVE SMOOTH",
"160.5 343.5 LINE",
"160.5 541.5 LINE",
"383.5 541.5 LINE SMOOTH",
"396 541.5 OFFCURVE",
"401 549.5 OFFCURVE",
"401 567.5 CURVE SMOOTH",
"401 581.5 LINE SMOOTH",
"401 600 OFFCURVE",
"396 607.5 OFFCURVE",
"383.5 607.5 CURVE SMOOTH",
"110 607.5 LINE SMOOTH",
"92 607.5 OFFCURVE",
"84 600 OFFCURVE",
"84 581.5 CURVE SMOOTH",
"84 17.5 LINE SMOOTH",
"84 5 OFFCURVE",
"94.5 -1.5 OFFCURVE",
"119 -1.5 CURVE SMOOTH"
);
}
);
width = 436.5;
},
{
layerId = "163C89DF-00F0-42B6-A1D9-DCBEB7633CF5";
paths = (
{
closed = 1;
nodes = (
"141.5 -1.5 LINE SMOOTH",
"178 -1.5 OFFCURVE",
"193.5 8 OFFCURVE",
"193.5 26 CURVE SMOOTH",
"193.5 253.5 LINE",
"378.5 253.5 LINE SMOOTH",
"396.5 253.5 OFFCURVE",
"404.5 266.5 OFFCURVE",
"404.5 297 CURVE SMOOTH",
"404.5 324 LINE SMOOTH",
"404.5 354 OFFCURVE",
"396.5 367 OFFCURVE",
"378.5 367 CURVE SMOOTH",
"193.5 367 LINE",
"193.5 494 LINE",
"384.5 494 LINE SMOOTH",
"403 494 OFFCURVE",
"410.5 507 OFFCURVE",
"410.5 537.5 CURVE SMOOTH",
"410.5 564 LINE SMOOTH",
"410.5 594.5 OFFCURVE",
"403 607.5 OFFCURVE",
"384.5 607.5 CURVE SMOOTH",
"94.5 607.5 LINE SMOOTH",
"70.5 607.5 OFFCURVE",
"60 597 OFFCURVE",
"60 573 CURVE SMOOTH",
"60 26 LINE SMOOTH",
"60 8 OFFCURVE",
"75.5 -1.5 OFFCURVE",
"112 -1.5 CURVE SMOOTH"
);
}
);
width = 436.5;
}
);
unicode = 0046;
},
{
glyphname = G;
lastChange = "2015-02-24 04:03:16 +0000";
layers = (
{
anchors = (
{
name = bottom;
position = "{336, 0}";
},
{
name = top;
position = "{291.5, 607.5}";
}
);
layerId = "A2A4A5F3-E0E0-4E92-91CC-8026BABF9DB1";
paths = (
{
closed = 1;
nodes = (
"416.5 -5 OFFCURVE",
"511.5 8.5 OFFCURVE",
"511.5 57.5 CURVE SMOOTH",
"511.5 287.5 LINE SMOOTH",
"511.5 305.5 OFFCURVE",
"503.5 313.5 OFFCURVE",
"485 313.5 CURVE SMOOTH",
"333.5 313.5 LINE SMOOTH",
"321 313.5 OFFCURVE",
"316 305.5 OFFCURVE",
"316 287.5 CURVE SMOOTH",
"316 273.5 LINE SMOOTH",
"316 255 OFFCURVE",
"321 247.5 OFFCURVE",
"333.5 247.5 CURVE SMOOTH",
"435 247.5 LINE",
"435 72 LINE",
"411.5 66 OFFCURVE",
"368 61 OFFCURVE",
"323 61 CURVE SMOOTH",
"168.5 61 OFFCURVE",
"128.5 173.5 OFFCURVE",
"128.5 306.5 CURVE SMOOTH",
"128.5 457.5 OFFCURVE",
"179 547 OFFCURVE",
"332.5 547 CURVE SMOOTH",
"416 547 OFFCURVE",
"457.5 508.5 OFFCURVE",
"467 508.5 CURVE SMOOTH",
"478.5 508.5 OFFCURVE",
"496.5 544 OFFCURVE",
"496.5 559 CURVE SMOOTH",
"496.5 582.5 OFFCURVE",
"416.5 613 OFFCURVE",
"330.5 613 CURVE SMOOTH",
"149.5 613 OFFCURVE",
"49.5 514.5 OFFCURVE",
"49.5 298.5 CURVE SMOOTH",
"49.5 92 OFFCURVE",
"145 -5 OFFCURVE",
"317.5 -5 CURVE SMOOTH"
);
}
);
width = 583.5;
},
{
anchors = (
{
name = bottom;
position = "{308, 0}";
},
{
name = top;
position = "{304, 607.5}";
}
);
layerId = "163C89DF-00F0-42B6-A1D9-DCBEB7633CF5";
paths = (
{
closed = 1;
nodes = (
"386.5 -7 OFFCURVE",
"527 1.5 OFFCURVE",
"527 61.5 CURVE SMOOTH",
"527 303 LINE SMOOTH",
"527 327 OFFCURVE",
"516.5 337.5 OFFCURVE",
"492 337.5 CURVE SMOOTH",
"316 337.5 LINE SMOOTH",
"297.5 337.5 OFFCURVE",
"290 324.5 OFFCURVE",
"290 294.5 CURVE SMOOTH",
"290 266.5 LINE SMOOTH",
"290 236 OFFCURVE",
"297.5 223 OFFCURVE",
"316 223 CURVE SMOOTH",
"392.5 223 LINE",
"392.5 113 LINE",
"369 108.5 OFFCURVE",
"349 107 OFFCURVE",
"324.5 107 CURVE SMOOTH",
"225 107 OFFCURVE",
"176 174.5 OFFCURVE",
"176 304.5 CURVE SMOOTH",
"176 435 OFFCURVE",
"224 500 OFFCURVE",
"326.5 500 CURVE SMOOTH",
"409 500 OFFCURVE",
"448 472 OFFCURVE",
"458.5 472 CURVE SMOOTH",
"480 472 OFFCURVE",
"514.5 529.5 OFFCURVE",
"514.5 554 CURVE SMOOTH",
"514.5 590 OFFCURVE",
"405.5 614.5 OFFCURVE",
"329 614.5 CURVE SMOOTH",
"136.5 614.5 OFFCURVE",
"39 512 OFFCURVE",
"39 305.5 CURVE SMOOTH",
"39 91 OFFCURVE",
"130 -7 OFFCURVE",
"324.5 -7 CURVE SMOOTH"
);
}
);
width = 583.5;
}
);
unicode = 0047;
},
{
glyphname = H;
lastChange = "2015-02-24 04:03:16 +0000";
layers = (
{
anchors = (
{
name = bottom;
position = "{326.5, 0}";
},
{
name = center;
position = "{323, 454}";
},
{
name = top;
position = "{318.5, 607.5}";
}
);
layerId = "A2A4A5F3-E0E0-4E92-91CC-8026BABF9DB1";
paths = (
{
closed = 1;
nodes = (
"126 -1.5 LINE SMOOTH",
"150 -1.5 OFFCURVE",
"160.5 5 OFFCURVE",
"160.5 17.5 CURVE SMOOTH",
"160.5 278.5 LINE",
"475 278.5 LINE",
"475 17.5 LINE SMOOTH",
"475 5 OFFCURVE",
"485 -1.5 OFFCURVE",
"509.5 -1.5 CURVE SMOOTH",
"516.5 -1.5 LINE SMOOTH",
"541 -1.5 OFFCURVE",
"551 5 OFFCURVE",
"551 17.5 CURVE SMOOTH",
"551 590 LINE SMOOTH",
"551 602.5 OFFCURVE",
"541 609.5 OFFCURVE",
"516.5 609.5 CURVE SMOOTH",
"509.5 609.5 LINE SMOOTH",
"485 609.5 OFFCURVE",
"475 602.5 OFFCURVE",
"475 590 CURVE SMOOTH",
"475 344.5 LINE",
"160.5 344.5 LINE",
"160.5 590 LINE SMOOTH",
"160.5 602.5 OFFCURVE",
"150 609.5 OFFCURVE",
"126 609.5 CURVE SMOOTH",
"119 609.5 LINE SMOOTH",
"94.5 609.5 OFFCURVE",
"84 602.5 OFFCURVE",
"84 590 CURVE SMOOTH",
"84 17.5 LINE SMOOTH",
"84 5 OFFCURVE",
"94.5 -1.5 OFFCURVE",
"119 -1.5 CURVE SMOOTH"
);
}
);
width = 636;
},
{
anchors = (
{
name = bottom;
position = "{330.5, 0}";
},
{
name = center;
position = "{325.5, 454}";
},
{
name = top;
position = "{318.5, 607.5}";
}
);
layerId = "163C89DF-00F0-42B6-A1D9-DCBEB7633CF5";
paths = (
{
closed = 1;
nodes = (
"155.5 -1.5 LINE SMOOTH",
"192 -1.5 OFFCURVE",
"207.5 8 OFFCURVE",
"207.5 26 CURVE SMOOTH",
"207.5 252.5 LINE",
"442 252.5 LINE",
"442 26 LINE SMOOTH",
"442 8 OFFCURVE",
"457.5 -1.5 OFFCURVE",
"494 -1.5 CURVE SMOOTH",
"524.5 -1.5 LINE SMOOTH",
"560.5 -1.5 OFFCURVE",
"576.5 8 OFFCURVE",
"576.5 26 CURVE SMOOTH",
"576.5 581.5 LINE SMOOTH",
"576.5 600 OFFCURVE",
"560.5 609.5 OFFCURVE",
"524.5 609.5 CURVE SMOOTH",
"494 609.5 LINE SMOOTH",
"457.5 609.5 OFFCURVE",
"442 600 OFFCURVE",
"442 581.5 CURVE SMOOTH",
"442 367 LINE",
"207.5 367 LINE",
"207.5 581.5 LINE SMOOTH",
"207.5 600 OFFCURVE",
"192 609.5 OFFCURVE",
"155.5 609.5 CURVE SMOOTH",
"125 609.5 LINE SMOOTH",
"88.5 609.5 OFFCURVE",
"73 600 OFFCURVE",
"73 581.5 CURVE SMOOTH",
"73 26 LINE SMOOTH",
"73 8 OFFCURVE",
"88.5 -1.5 OFFCURVE",
"125 -1.5 CURVE SMOOTH"
);
}
);
width = 636;
}
);
unicode = 0048;
},
{
glyphname = I;
lastChange = "2015-02-24 04:03:16 +0000";
layers = (
{
anchors = (
{
name = bottom;
position = "{121.5, 0}";
},
{
name = ogonek;
position = "{144, 0}";
},
{
name = top;
position = "{122.5, 607.5}";
}
);
layerId = "A2A4A5F3-E0E0-4E92-91CC-8026BABF9DB1";
paths = (
{
closed = 1;
nodes = (
"126 -1.5 LINE SMOOTH",
"150 -1.5 OFFCURVE",
"160.5 5 OFFCURVE",
"160.5 17.5 CURVE SMOOTH",
"160.5 590 LINE SMOOTH",
"160.5 602.5 OFFCURVE",
"150 609.5 OFFCURVE",
"126 609.5 CURVE SMOOTH",
"119 609.5 LINE SMOOTH",
"94.5 609.5 OFFCURVE",
"84 602.5 OFFCURVE",
"84 590 CURVE SMOOTH",
"84 17.5 LINE SMOOTH",
"84 5 OFFCURVE",
"94.5 -1.5 OFFCURVE",
"119 -1.5 CURVE SMOOTH"
);
}
);
width = 245;
},
{
anchors = (
{
name = bottom;
position = "{122.5, 0}";
},
{
name = ogonek;
position = "{158, 0}";
},
{
name = top;
position = "{122.5, 607.5}";
}
);
layerId = "163C89DF-00F0-42B6-A1D9-DCBEB7633CF5";
paths = (
{
closed = 1;
nodes = (
"137 -2.5 LINE SMOOTH",
"173.5 -2.5 OFFCURVE",
"189 8 OFFCURVE",
"189 26 CURVE SMOOTH",
"189 581.5 LINE SMOOTH",
"189 600 OFFCURVE",
"173.5 610 OFFCURVE",
"137 610 CURVE SMOOTH",
"107 610 LINE SMOOTH",
"70.5 610 OFFCURVE",
"54.5 600 OFFCURVE",
"54.5 581.5 CURVE SMOOTH",
"54.5 26 LINE SMOOTH",
"54.5 8 OFFCURVE",
"70.5 -2.5 OFFCURVE",
"107 -2.5 CURVE SMOOTH"
);
}
);
width = 245;
}
);
unicode = 0049;
},
{
glyphname = J;
lastChange = "2015-02-24 04:03:16 +0000";
layers = (
{
anchors = (
{
name = top;
position = "{235, 607.5}";
}
);
layerId = "A2A4A5F3-E0E0-4E92-91CC-8026BABF9DB1";
paths = (
{
closed = 1;
nodes = (
"226.5 -5 OFFCURVE",
"277 68.5 OFFCURVE",
"277 178 CURVE SMOOTH",
"277 590 LINE SMOOTH",
"277 602.5 OFFCURVE",
"266.5 609.5 OFFCURVE",
"242 609.5 CURVE SMOOTH",
"235 609.5 LINE SMOOTH",
"211 609.5 OFFCURVE",
"200.5 602.5 OFFCURVE",
"200.5 590 CURVE SMOOTH",
"200.5 169.5 LINE SMOOTH",
"200.5 94.5 OFFCURVE",
"165 62.5 OFFCURVE",
"79 62.5 CURVE SMOOTH",
"51 62.5 OFFCURVE",
"31 70.5 OFFCURVE",
"24.5 70.5 CURVE SMOOTH",
"10.5 70.5 OFFCURVE",
"5 26 OFFCURVE",
"5 22.5 CURVE SMOOTH",
"5 -1 OFFCURVE",
"60 -5 OFFCURVE",
"93 -5 CURVE SMOOTH"
);
}
);
width = 349;
},
{
anchors = (
{
name = top;
position = "{226.5, 607.5}";
}
);
layerId = "163C89DF-00F0-42B6-A1D9-DCBEB7633CF5";
paths = (
{
closed = 1;
nodes = (
"237 -7 OFFCURVE",
"291.5 65 OFFCURVE",
"291.5 175.5 CURVE SMOOTH",
"291.5 581.5 LINE SMOOTH",
"291.5 600 OFFCURVE",
"276 610 OFFCURVE",
"239.5 610 CURVE SMOOTH",
"209 610 LINE SMOOTH",
"172.5 610 OFFCURVE",
"157 600 OFFCURVE",
"157 581.5 CURVE SMOOTH",
"157 197 LINE SMOOTH",
"157 133.5 OFFCURVE",
"136.5 107 OFFCURVE",
"84 107 CURVE SMOOTH",
"56.5 107 OFFCURVE",
"44.5 113.5 OFFCURVE",
"35.5 113.5 CURVE",
"8.5 111 OFFCURVE",
"0 48.5 OFFCURVE",
"0 33 CURVE SMOOTH",
"0 -4.5 OFFCURVE",
"87 -7 OFFCURVE",
"107.5 -7 CURVE SMOOTH"
);
}
);
width = 349;
}
);
unicode = 004A;
},
{
glyphname = K;
lastChange = "2015-02-24 04:03:16 +0000";
layers = (
{
anchors = (
{
name = bottom;
position = "{250, 0}";
},
{
name = top;
position = "{250, 607.5}";
}
);
layerId = "A2A4A5F3-E0E0-4E92-91CC-8026BABF9DB1";
paths = (
{
closed = 1;
nodes = (
"126 -1.5 LINE SMOOTH",
"150 -1.5 OFFCURVE",
"160.5 5 OFFCURVE",
"160.5 17.5 CURVE SMOOTH",
"160.5 289 LINE",
"164 289 LINE",
"412.5 9.5 LINE SMOOTH",
"422.5 -1.5 OFFCURVE",
"441 -1.5 OFFCURVE",
"460 -1.5 CURVE SMOOTH",
"470.5 -1.5 LINE SMOOTH",
"497.5 -1.5 OFFCURVE",
"508.5 1 OFFCURVE",
"508.5 10.5 CURVE SMOOTH",
"508.5 14 OFFCURVE",
"507 17.5 OFFCURVE",
"501 24.5 CURVE SMOOTH",
"238 310 LINE",
"455 580.5 LINE SMOOTH",
"461 587.5 OFFCURVE",
"463.5 593.5 OFFCURVE",
"463.5 598 CURVE SMOOTH",
"463.5 604 OFFCURVE",
"454 609.5 OFFCURVE",
"433 609.5 CURVE SMOOTH",
"424.5 609.5 LINE SMOOTH",
"405.5 609.5 OFFCURVE",
"385.5 606.5 OFFCURVE",
"377.5 597 CURVE SMOOTH",
"164 324.5 LINE",
"160.5 324.5 LINE",
"160.5 590 LINE SMOOTH",
"160.5 602.5 OFFCURVE",
"150 609.5 OFFCURVE",
"126 609.5 CURVE SMOOTH",
"119 609.5 LINE SMOOTH",
"94.5 609.5 OFFCURVE",
"84 602.5 OFFCURVE",
"84 590 CURVE SMOOTH",
"84 17.5 LINE SMOOTH",
"84 5 OFFCURVE",
"94.5 -1.5 OFFCURVE",
"119 -1.5 CURVE SMOOTH"
);
}
);
width = 500;
},
{
anchors = (
{
name = bottom;
position = "{258.5, 0}";
},
{
name = top;
position = "{267.5, 607.5}";
}
);
layerId = "163C89DF-00F0-42B6-A1D9-DCBEB7633CF5";
paths = (
{
closed = 1;
nodes = (
"142.5 -1.5 LINE SMOOTH",
"179 -1.5 OFFCURVE",
"194.5 8 OFFCURVE",
"194.5 26 CURVE SMOOTH",
"194.5 278 LINE",
"198 278.5 LINE",
"361 15 LINE SMOOTH",
"369 1.5 OFFCURVE",
"389 -1.5 OFFCURVE",
"414 -1.5 CURVE SMOOTH",
"464.5 -1.5 LINE SMOOTH",
"498 -1.5 OFFCURVE",
"513 3.5 OFFCURVE",
"513 11.5 CURVE SMOOTH",
"513 15.5 OFFCURVE",
"511.5 21.5 OFFCURVE",
"506 29.5 CURVE SMOOTH",
"316 321 LINE",
"483.5 578 LINE SMOOTH",
"488.5 586 OFFCURVE",
"490.5 592 OFFCURVE",
"490.5 596.5 CURVE SMOOTH",
"490.5 604 OFFCURVE",
"475.5 609.5 OFFCURVE",
"442 609.5 CURVE SMOOTH",
"401 609.5 LINE SMOOTH",
"376 609.5 OFFCURVE",
"356.5 606 OFFCURVE",
"349 593 CURVE SMOOTH",
"198 348 LINE",
"194.5 349 LINE",
"194.5 581.5 LINE SMOOTH",
"194.5 600 OFFCURVE",
"179 609.5 OFFCURVE",
"142.5 609.5 CURVE SMOOTH",
"112 609.5 LINE SMOOTH",
"75.5 609.5 OFFCURVE",
"60 600 OFFCURVE",
"60 581.5 CURVE SMOOTH",
"60 26 LINE SMOOTH",
"60 8 OFFCURVE",
"75.5 -1.5 OFFCURVE",
"112 -1.5 CURVE SMOOTH"
);
}
);
width = 500;
}
);
unicode = 004B;
},
{
glyphname = L;
lastChange = "2015-02-24 04:03:16 +0000";
layers = (
{
anchors = (
{
name = bottom;
position = "{245, 0}";
},
{
name = caron;
position = "{212.5, 607.5}";
},
{
name = center;
position = "{260.5, 291}";
},
{
name = top;
position = "{126, 609.5}";
}
);
layerId = "A2A4A5F3-E0E0-4E92-91CC-8026BABF9DB1";
paths = (
{
closed = 1;
nodes = (
"399.5 0 LINE SMOOTH",
"411.5 0 OFFCURVE",
"416.5 8 OFFCURVE",
"416.5 26 CURVE SMOOTH",
"416.5 40 LINE SMOOTH",
"416.5 58 OFFCURVE",
"411.5 66 OFFCURVE",
"399.5 66 CURVE SMOOTH",
"160.5 66 LINE",
"160.5 590 LINE SMOOTH",
"160.5 602.5 OFFCURVE",
"150 609.5 OFFCURVE",
"126 609.5 CURVE SMOOTH",
"119 609.5 LINE SMOOTH",
"94.5 609.5 OFFCURVE",
"84 602.5 OFFCURVE",
"84 590 CURVE SMOOTH",
"84 26 LINE SMOOTH",
"84 8 OFFCURVE",
"92 0 OFFCURVE",
"110 0 CURVE SMOOTH"
);
}
);
width = 420;
},
{
anchors = (
{
name = bottom;
position = "{210, 0}";
},
{
name = caron;
position = "{227.5, 607.5}";
},
{
name = center;
position = "{286.5, 291}";
},
{
name = top;
position = "{130, 607.5}";
}
);
layerId = "163C89DF-00F0-42B6-A1D9-DCBEB7633CF5";
paths = (
{
closed = 1;
nodes = (
"387 0 LINE SMOOTH",
"405.5 0 OFFCURVE",
"413 13 OFFCURVE",
"413 43.5 CURVE SMOOTH",
"413 70.5 LINE SMOOTH",
"413 100.5 OFFCURVE",
"405.5 113.5 OFFCURVE",
"387 113.5 CURVE SMOOTH",
"193.5 113.5 LINE",
"193.5 581.5 LINE SMOOTH",
"193.5 600 OFFCURVE",
"178 609.5 OFFCURVE",
"141.5 609.5 CURVE SMOOTH",
"112 609.5 LINE SMOOTH",
"75.5 609.5 OFFCURVE",
"60 600 OFFCURVE",
"60 581.5 CURVE SMOOTH",
"60 34.5 LINE SMOOTH",
"60 10.5 OFFCURVE",
"70.5 0 OFFCURVE",
"94.5 0 CURVE SMOOTH"
);
}
);
width = 420;
}
);
rightKerningGroup = L;
unicode = 004C;
},
{
glyphname = LJ;
lastChange = "2015-02-24 04:03:16 +0000";
layers = (
{
layerId = "A2A4A5F3-E0E0-4E92-91CC-8026BABF9DB1";
paths = (
{
closed = 1;
nodes = (
"499 -135.5 OFFCURVE",
"549.5 -61.5 OFFCURVE",
"549.5 47.5 CURVE SMOOTH",
"549.5 590 LINE SMOOTH",
"549.5 602.5 OFFCURVE",
"539 609.5 OFFCURVE",
"514.5 609.5 CURVE SMOOTH",
"508 609.5 LINE SMOOTH",
"483.5 609.5 OFFCURVE",
"473 602.5 OFFCURVE",
"473 590 CURVE SMOOTH",
"473 39 LINE SMOOTH",
"473 -35.5 OFFCURVE",
"437.5 -67.5 OFFCURVE",
"351.5 -67.5 CURVE SMOOTH",
"324 -67.5 OFFCURVE",
"304 -60 OFFCURVE",
"297 -60 CURVE SMOOTH",
"283 -60 OFFCURVE",
"278 -104 OFFCURVE",
"278 -107.5 CURVE SMOOTH",
"278 -131 OFFCURVE",
"332.5 -135.5 OFFCURVE",
"365.5 -135.5 CURVE SMOOTH"
);
},
{
closed = 1;
nodes = (
"338.5 0 LINE SMOOTH",
"350.5 0 OFFCURVE",
"356 8 OFFCURVE",
"356 26 CURVE SMOOTH",
"356 40 LINE SMOOTH",
"356 58 OFFCURVE",
"350.5 66 OFFCURVE",
"338.5 66 CURVE SMOOTH",
"160.5 66 LINE",
"160.5 590 LINE SMOOTH",
"160.5 602.5 OFFCURVE",
"150 609.5 OFFCURVE",
"126 609.5 CURVE SMOOTH",
"119 609.5 LINE SMOOTH",
"94.5 609.5 OFFCURVE",
"84 602.5 OFFCURVE",
"84 590 CURVE SMOOTH",
"84 26 LINE SMOOTH",
"84 8 OFFCURVE",
"92 0 OFFCURVE",
"110 0 CURVE SMOOTH"
);
}
);
width = 623;
},
{
layerId = "163C89DF-00F0-42B6-A1D9-DCBEB7633CF5";
paths = (
{
closed = 1;
nodes = (
"518 -157 OFFCURVE",
"573 -74 OFFCURVE",
"573 36.5 CURVE SMOOTH",
"573 581.5 LINE SMOOTH",
"573 600 OFFCURVE",
"557.5 610 OFFCURVE",
"521 610 CURVE SMOOTH",
"490.5 610 LINE SMOOTH",
"454 610 OFFCURVE",
"438.5 600 OFFCURVE",
"438.5 581.5 CURVE SMOOTH",
"438.5 47 LINE SMOOTH",
"438.5 -16.5 OFFCURVE",
"417.5 -43.5 OFFCURVE",
"365.5 -43.5 CURVE SMOOTH",
"337.5 -43.5 OFFCURVE",
"325.5 -36.5 OFFCURVE",
"317 -36.5 CURVE",
"290 -39 OFFCURVE",
"281 -101.5 OFFCURVE",
"281 -117 CURVE SMOOTH",
"281 -154.5 OFFCURVE",
"368 -157 OFFCURVE",
"389 -157 CURVE SMOOTH"
);
},
{
closed = 1;
nodes = (
"326.5 0 LINE SMOOTH",
"344.5 0 OFFCURVE",
"352.5 13 OFFCURVE",
"352.5 43.5 CURVE SMOOTH",
"352.5 70.5 LINE SMOOTH",
"352.5 100.5 OFFCURVE",
"344.5 113.5 OFFCURVE",
"326.5 113.5 CURVE SMOOTH",
"193.5 113.5 LINE",
"193.5 581.5 LINE SMOOTH",
"193.5 600 OFFCURVE",
"178 609.5 OFFCURVE",
"141.5 609.5 CURVE SMOOTH",
"112 609.5 LINE SMOOTH",
"75.5 609.5 OFFCURVE",
"60 600 OFFCURVE",
"60 581.5 CURVE SMOOTH",
"60 34.5 LINE SMOOTH",
"60 10.5 OFFCURVE",
"70.5 0 OFFCURVE",
"94.5 0 CURVE SMOOTH"
);
}
);
width = 623;
}
);
unicode = 01C7;
},
{
glyphname = Lslash;
lastChange = "2015-02-24 04:03:16 +0000";
layers = (
{
layerId = "A2A4A5F3-E0E0-4E92-91CC-8026BABF9DB1";
paths = (
{
closed = 1;
nodes = (
"403 0 LINE SMOOTH",
"415 0 OFFCURVE",
"420 8 OFFCURVE",
"420 26 CURVE SMOOTH",
"420 40 LINE SMOOTH",
"420 58 OFFCURVE",
"415 66 OFFCURVE",
"403 66 CURVE SMOOTH",
"150 66 LINE",
"150 348 LINE",
"244 403.5 LINE SMOOTH",
"254.5 409.5 OFFCURVE",
"260.5 417.5 OFFCURVE",
"260.5 429.5 CURVE SMOOTH",
"260.5 435 LINE SMOOTH",
"260.5 442.5 OFFCURVE",
"257 447 OFFCURVE",
"252.5 447 CURVE SMOOTH",
"250 447 OFFCURVE",
"247.5 445.5 OFFCURVE",
"244 443.5 CURVE SMOOTH",
"150 388 LINE",
"150 590 LINE SMOOTH",
"150 602.5 OFFCURVE",
"139.5 609.5 OFFCURVE",
"115.5 609.5 CURVE SMOOTH",
"108.5 609.5 LINE SMOOTH",
"84 609.5 OFFCURVE",
"74 602.5 OFFCURVE",
"74 590 CURVE SMOOTH",
"74 342 LINE",
"15 307.5 LINE SMOOTH",
"4.5 301 OFFCURVE",
"-1.5 293.5 OFFCURVE",
"-1.5 281 CURVE SMOOTH",
"-1.5 276 LINE SMOOTH",
"-1.5 268 OFFCURVE",
"1.5 264 OFFCURVE",
"6 264 CURVE SMOOTH",
"8 264 OFFCURVE",
"11.5 264.5 OFFCURVE",
"15 267.5 CURVE SMOOTH",
"74 302 LINE",
"74 26 LINE SMOOTH",
"74 8 OFFCURVE",
"81.5 0 OFFCURVE",
"100 0 CURVE SMOOTH"
);
}
);
width = 422;
},
{
layerId = "163C89DF-00F0-42B6-A1D9-DCBEB7633CF5";
paths = (
{
closed = 1;
nodes = (
"389 0 LINE SMOOTH",
"407 0 OFFCURVE",
"415 13 OFFCURVE",
"415 43.5 CURVE SMOOTH",
"415 70.5 LINE SMOOTH",
"415 100.5 OFFCURVE",
"407 113.5 OFFCURVE",
"389 113.5 CURVE SMOOTH",
"195.5 113.5 LINE",
"195.5 343 LINE",
"271 389 LINE SMOOTH",
"286.5 398.5 OFFCURVE",
"293.5 410.5 OFFCURVE",
"293.5 429 CURVE SMOOTH",
"293.5 446 LINE SMOOTH",
"293.5 457.5 OFFCURVE",
"290 463.5 OFFCURVE",
"284 463.5 CURVE SMOOTH",
"280.5 463.5 OFFCURVE",
"276 462 OFFCURVE",
"271 458.5 CURVE SMOOTH",
"195.5 412.5 LINE",
"195.5 581.5 LINE SMOOTH",
"195.5 600 OFFCURVE",
"179.5 609.5 OFFCURVE",
"143 609.5 CURVE SMOOTH",
"113.5 609.5 LINE SMOOTH",
"77.5 609.5 OFFCURVE",
"61.5 600 OFFCURVE",
"61.5 581.5 CURVE SMOOTH",
"61.5 330.5 LINE",
"45 320.5 LINE SMOOTH",
"29.5 310.5 OFFCURVE",
"22.5 300.5 OFFCURVE",
"22.5 281 CURVE SMOOTH",
"22.5 264 LINE SMOOTH",
"22.5 251.5 OFFCURVE",
"25 246.5 OFFCURVE",
"32 246.5 CURVE SMOOTH",
"35.5 246.5 OFFCURVE",
"40 247.5 OFFCURVE",
"45 251 CURVE SMOOTH",
"61.5 261.5 LINE",
"61.5 34.5 LINE SMOOTH",
"61.5 10.5 OFFCURVE",
"72 0 OFFCURVE",
"96.5 0 CURVE SMOOTH"
);
}
);
width = 422;
}
);
rightKerningGroup = L;
unicode = 0141;
},
{
glyphname = M;
lastChange = "2015-02-24 04:03:16 +0000";
layers = (
{
layerId = "A2A4A5F3-E0E0-4E92-91CC-8026BABF9DB1";
paths = (
{
closed = 1;
nodes = (
"119 -1.5 LINE SMOOTH",
"143 -1.5 OFFCURVE",
"153.5 5 OFFCURVE",
"153.5 17.5 CURVE SMOOTH",
"153.5 489.5 LINE",
"155.5 486 LINE",
"330.5 180.5 LINE SMOOTH",
"335 172.5 OFFCURVE",
"341 169.5 OFFCURVE",
"350 169.5 CURVE SMOOTH",
"384.5 169.5 LINE SMOOTH",
"394 169.5 OFFCURVE",
"399.5 172.5 OFFCURVE",
"403.5 180.5 CURVE SMOOTH",
"576.5 481 LINE",
"578 484.5 LINE",
"578 17.5 LINE SMOOTH",
"578 5 OFFCURVE",
"588.5 -1.5 OFFCURVE",
"613 -1.5 CURVE SMOOTH",
"619 -1.5 LINE SMOOTH",
"643 -1.5 OFFCURVE",
"653.5 5 OFFCURVE",
"653.5 17.5 CURVE SMOOTH",
"653.5 590 LINE SMOOTH",
"653.5 602.5 OFFCURVE",
"643 609.5 OFFCURVE",
"619 609.5 CURVE SMOOTH",
"590 609.5 LINE SMOOTH",
"569.5 609.5 OFFCURVE",
"559 603.5 OFFCURVE",
"554 593.5 CURVE SMOOTH",
"389.5 304 LINE",
"367 254.5 LINE",
"344.5 309 LINE",
"180.5 593.5 LINE SMOOTH",
"175.5 603.5 OFFCURVE",
"165 609.5 OFFCURVE",
"144 609.5 CURVE SMOOTH",
"113 609.5 LINE SMOOTH",
"88.5 609.5 OFFCURVE",
"78 602.5 OFFCURVE",
"78 590 CURVE SMOOTH",
"78 17.5 LINE SMOOTH",
"78 5 OFFCURVE",
"88.5 -1.5 OFFCURVE",
"113 -1.5 CURVE SMOOTH"
);
}
);
width = 731.5;
},
{
layerId = "163C89DF-00F0-42B6-A1D9-DCBEB7633CF5";
paths = (
{
closed = 1;
nodes = (
"137 -1.5 LINE SMOOTH",
"173.5 -1.5 OFFCURVE",
"189 8 OFFCURVE",
"189 26 CURVE SMOOTH",
"189 385.5 LINE",
"192.5 386.5 LINE",
"318.5 161.5 LINE",
"326.5 151 OFFCURVE",
"337 145 OFFCURVE",
"353.5 145 CURVE SMOOTH",
"378.5 145 LINE SMOOTH",
"395 145 OFFCURVE",
"405.5 151 OFFCURVE",
"413 161.5 CURVE",
"539 386.5 LINE",
"542.5 385.5 LINE",
"542.5 26 LINE SMOOTH",
"542.5 8 OFFCURVE",
"558 -1.5 OFFCURVE",
"594.5 -1.5 CURVE SMOOTH",
"620 -1.5 LINE SMOOTH",
"656 -1.5 OFFCURVE",
"672 8 OFFCURVE",
"672 26 CURVE SMOOTH",
"672 581.5 LINE SMOOTH",
"672 600 OFFCURVE",
"656 609.5 OFFCURVE",
"620 609.5 CURVE SMOOTH",
"574.5 609.5 LINE SMOOTH",
"549.5 609.5 OFFCURVE",
"529.5 603.5 OFFCURVE",
"520 586 CURVE SMOOTH",
"373 329 LINE",
"365.5 314 LINE",
"358.5 326.5 LINE",
"212.5 586 LINE SMOOTH",
"203 603.5 OFFCURVE",
"183 609.5 OFFCURVE",
"158 609.5 CURVE SMOOTH",
"112 609.5 LINE SMOOTH",
"75.5 609.5 OFFCURVE",
"60 600 OFFCURVE",
"60 581.5 CURVE SMOOTH",
"60 26 LINE SMOOTH",
"60 8 OFFCURVE",
"75.5 -1.5 OFFCURVE",
"112 -1.5 CURVE SMOOTH"
);
}
);
width = 731.5;
}
);
unicode = 004D;
},
{
glyphname = N;
lastChange = "2015-02-24 04:03:16 +0000";
layers = (
{
anchors = (
{
name = bottom;
position = "{312.5, 0}";
},
{
name = top;
position = "{312.5, 607.5}";
}
);
layerId = "A2A4A5F3-E0E0-4E92-91CC-8026BABF9DB1";
paths = (
{
closed = 1;
nodes = (
"119 -1.5 LINE SMOOTH",
"143 -1.5 OFFCURVE",
"153.5 5 OFFCURVE",
"153.5 17.5 CURVE SMOOTH",
"153.5 487 LINE",
"177 442.5 LINE",
"463.5 10.5 LINE SMOOTH",
"468.5 2.5 OFFCURVE",
"477.5 -1.5 OFFCURVE",
"494 -1.5 CURVE SMOOTH",
"511.5 -1.5 LINE SMOOTH",
"535.5 -1.5 OFFCURVE",
"546 5 OFFCURVE",
"546 17.5 CURVE SMOOTH",
"546 590 LINE SMOOTH",
"546 602.5 OFFCURVE",
"535.5 609.5 OFFCURVE",
"511.5 609.5 CURVE SMOOTH",
"505 609.5 LINE SMOOTH",
"481 609.5 OFFCURVE",
"470.5 602.5 OFFCURVE",
"470.5 590 CURVE SMOOTH",
"470.5 126 LINE",
"444.5 174.5 LINE",
"167.5 593 LINE SMOOTH",
"159 605 OFFCURVE",
"150 609.5 OFFCURVE",
"131 609.5 CURVE SMOOTH",
"113 609.5 LINE SMOOTH",
"88.5 609.5 OFFCURVE",
"78 602.5 OFFCURVE",
"78 590 CURVE SMOOTH",
"78 17.5 LINE SMOOTH",
"78 5 OFFCURVE",
"88.5 -1.5 OFFCURVE",
"113 -1.5 CURVE SMOOTH"
);
}
);
width = 624;
},
{
anchors = (
{
name = bottom;
position = "{312.5, 0}";
},
{
name = top;
position = "{312.5, 607.5}";
}
);
layerId = "163C89DF-00F0-42B6-A1D9-DCBEB7633CF5";
paths = (
{
closed = 1;
nodes = (
"137 -1.5 LINE SMOOTH",
"173.5 -1.5 OFFCURVE",
"189 8 OFFCURVE",
"189 26 CURVE SMOOTH",
"189 377.5 LINE",
"207.5 350 LINE",
"422 21.5 LINE SMOOTH",
"435 1.5 OFFCURVE",
"454 -1.5 OFFCURVE",
"479 -1.5 CURVE SMOOTH",
"512 -1.5 LINE SMOOTH",
"548.5 -1.5 OFFCURVE",
"564 8 OFFCURVE",
"564 26 CURVE SMOOTH",
"564 581.5 LINE SMOOTH",
"564 600 OFFCURVE",
"548.5 609.5 OFFCURVE",
"512 609.5 CURVE SMOOTH",
"487 609.5 LINE SMOOTH",
"450.5 609.5 OFFCURVE",
"435 600 OFFCURVE",
"435 581.5 CURVE SMOOTH",
"435 234.5 LINE",
"411.5 270 LINE",
"206.5 586 LINE SMOOTH",
"193.5 606 OFFCURVE",
"174.5 609.5 OFFCURVE",
"149.5 609.5 CURVE SMOOTH",
"112 609.5 LINE SMOOTH",
"75.5 609.5 OFFCURVE",
"60 600 OFFCURVE",
"60 581.5 CURVE SMOOTH",
"60 26 LINE SMOOTH",
"60 8 OFFCURVE",
"75.5 -1.5 OFFCURVE",
"112 -1.5 CURVE SMOOTH"
);
}
);
width = 624;
}
);
unicode = 004E;
},
{
glyphname = Eng;
lastChange = "2015-02-24 04:03:16 +0000";
layers = (
{
components = (
{
name = jdotless;
transform = "{1, 0, 0, 1, 385.392, 0}";
}
);
layerId = "A2A4A5F3-E0E0-4E92-91CC-8026BABF9DB1";
paths = (
{
closed = 1;
nodes = (
"546 17.5 LINE",
"546 590 LINE SMOOTH",
"546 602.5 OFFCURVE",
"535.5 609.5 OFFCURVE",
"511.5 609.5 CURVE SMOOTH",
"505 609.5 LINE SMOOTH",
"481 609.5 OFFCURVE",
"470.5 602.5 OFFCURVE",
"470.5 590 CURVE SMOOTH",
"470.5 126 LINE",
"444.5 174.5 LINE",
"167.5 593 LINE SMOOTH",
"159 605 OFFCURVE",
"150 609.5 OFFCURVE",
"131 609.5 CURVE SMOOTH",
"113 609.5 LINE SMOOTH",
"88.5 609.5 OFFCURVE",
"78 602.5 OFFCURVE",
"78 590 CURVE SMOOTH",
"78 17.5 LINE SMOOTH",
"78 5 OFFCURVE",
"88.5 -1.5 OFFCURVE",
"113 -1.5 CURVE SMOOTH",
"119 -1.5 LINE SMOOTH",
"143 -1.5 OFFCURVE",
"153.5 5 OFFCURVE",
"153.5 17.5 CURVE SMOOTH",
"153.5 487 LINE",
"177 442.5 LINE",
"484.5 -21 LINE"
);
}
);
width = 624;
},
{
components = (
{
name = jdotless;
transform = "{1, 0, 0, 1, 374.976, 0}";
}
);
layerId = "163C89DF-00F0-42B6-A1D9-DCBEB7633CF5";
paths = (
{
closed = 1;
nodes = (
"564 26 LINE",
"564 581.5 LINE SMOOTH",
"564 600 OFFCURVE",
"548.5 609.5 OFFCURVE",
"512 609.5 CURVE SMOOTH",
"487 609.5 LINE SMOOTH",
"450.5 609.5 OFFCURVE",
"435 600 OFFCURVE",
"435 581.5 CURVE SMOOTH",
"435 234.5 LINE",
"410.5 271.5 LINE",
"206.5 586 LINE SMOOTH",
"193.5 606 OFFCURVE",
"174.5 609.5 OFFCURVE",
"149.5 609.5 CURVE SMOOTH",
"112 609.5 LINE SMOOTH",
"75.5 609.5 OFFCURVE",
"60 600 OFFCURVE",
"60 581.5 CURVE SMOOTH",
"60 26 LINE SMOOTH",
"60 8 OFFCURVE",
"75.5 -1.5 OFFCURVE",
"112 -1.5 CURVE SMOOTH",
"137 -1.5 LINE SMOOTH",
"173.5 -1.5 OFFCURVE",
"189 8 OFFCURVE",
"189 26 CURVE SMOOTH",
"189 377.5 LINE",
"211 343.5 LINE",
"451.5 -22.5 LINE"
);
}
);
width = 624;
}
);
unicode = 014A;
},
{
glyphname = O;
lastChange = "2015-02-24 04:03:16 +0000";
layers = (
{
anchors = (
{
name = bottom;
position = "{318.5, 0}";
},
{
name = horn;
position = "{418.5, 592}";
},
{
name = ogonek;
position = "{384.5, 0}";
},
{
name = top;
position = "{317.5, 607.5}";
}
);
layerId = "A2A4A5F3-E0E0-4E92-91CC-8026BABF9DB1";
paths = (
{
closed = 1;
nodes = (
"491.5 -5 OFFCURVE",
"585 102.5 OFFCURVE",
"585 305.5 CURVE SMOOTH",
"585 508.5 OFFCURVE",
"491.5 613 OFFCURVE",
"317 613 CURVE SMOOTH",
"143 613 OFFCURVE",
"49.5 508.5 OFFCURVE",
"49.5 305.5 CURVE SMOOTH",
"49.5 102.5 OFFCURVE",
"143 -5 OFFCURVE",
"317 -5 CURVE SMOOTH"
);
},
{
closed = 1;
nodes = (
"194.5 61 OFFCURVE",
"128.5 146 OFFCURVE",
"128.5 305.5 CURVE SMOOTH",
"128.5 465 OFFCURVE",
"194.5 547 OFFCURVE",
"317 547 CURVE SMOOTH",
"439 547 OFFCURVE",
"506 465 OFFCURVE",
"506 305.5 CURVE SMOOTH",
"506 146 OFFCURVE",
"439 61 OFFCURVE",
"317 61 CURVE SMOOTH"
);
}
);
width = 634.5;
},
{
anchors = (
{
name = bottom;
position = "{318.5, 0}";
},
{
name = horn;
position = "{411.5, 592}";
},
{
name = ogonek;
position = "{384.5, 0}";
},
{
name = top;
position = "{317.5, 607.5}";
}
);
layerId = "163C89DF-00F0-42B6-A1D9-DCBEB7633CF5";
paths = (
{
closed = 1;
nodes = (
"496.5 -7 OFFCURVE",
"595.5 103.5 OFFCURVE",
"595.5 304 CURVE SMOOTH",
"595.5 504.5 OFFCURVE",
"496.5 614.5 OFFCURVE",
"317.5 614.5 CURVE SMOOTH",
"139 614.5 OFFCURVE",
"39 504.5 OFFCURVE",
"39 304 CURVE SMOOTH",
"39 103.5 OFFCURVE",
"139 -7 OFFCURVE",
"317.5 -7 CURVE SMOOTH"
);
},
{
closed = 1;
nodes = (
"225 107 OFFCURVE",
"176 176 OFFCURVE",
"176 304 CURVE SMOOTH",
"176 431.5 OFFCURVE",
"225 500 OFFCURVE",
"317.5 500 CURVE SMOOTH",
"410.5 500 OFFCURVE",
"458.5 431.5 OFFCURVE",
"458.5 304 CURVE SMOOTH",
"458.5 176 OFFCURVE",
"410.5 107 OFFCURVE",
"317.5 107 CURVE SMOOTH"
);
}
);
width = 634.5;
}
);
unicode = 004F;
},
{
glyphname = Oslash;
lastChange = "2015-02-24 04:03:16 +0000";
layers = (
{
anchors = (
{
name = top;
position = "{317.5, 607.5}";
}
);
layerId = "A2A4A5F3-E0E0-4E92-91CC-8026BABF9DB1";
paths = (
{
closed = 1;
nodes = (
"491.5 -5 OFFCURVE",
"585 102.5 OFFCURVE",
"585 305.5 CURVE SMOOTH",
"585 400 OFFCURVE",
"564 473 OFFCURVE",
"525 524.5 CURVE",
"575.5 580 LINE SMOOTH",
"579 584 OFFCURVE",
"580.5 587.5 OFFCURVE",
"580.5 592 CURVE SMOOTH",
"580.5 599 OFFCURVE",
"569.5 609.5 OFFCURVE",
"561.5 609.5 CURVE SMOOTH",
"557.5 609.5 OFFCURVE",
"554 607.5 OFFCURVE",
"549.5 602.5 CURVE SMOOTH",
"501.5 549.5 LINE",
"456.5 591 OFFCURVE",
"395 613 OFFCURVE",
"317 613 CURVE SMOOTH",
"143 613 OFFCURVE",
"49.5 508.5 OFFCURVE",
"49.5 305.5 CURVE SMOOTH",
"49.5 219.5 OFFCURVE",
"66 152 OFFCURVE",
"98 100.5 CURVE",
"34.5 31 LINE SMOOTH",
"31 27 OFFCURVE",
"29.5 22.5 OFFCURVE",
"29.5 19 CURVE SMOOTH",
"29.5 11.5 OFFCURVE",
"41 1 OFFCURVE",
"48.5 1 CURVE SMOOTH",
"52 1 OFFCURVE",
"56.5 3.5 OFFCURVE",
"61 8.5 CURVE SMOOTH",
"119 73 LINE",
"164 21 OFFCURVE",
"230 -5 OFFCURVE",
"317 -5 CURVE SMOOTH"
);
},
{
closed = 1;
nodes = (
"251.5 61 OFFCURVE",
"202 84 OFFCURVE",
"171 131 CURVE",
"471.5 465 LINE",
"494 426 OFFCURVE",
"506 372.5 OFFCURVE",
"506 305.5 CURVE SMOOTH",
"506 146 OFFCURVE",
"439 61 OFFCURVE",
"317 61 CURVE SMOOTH"
);
},
{
closed = 1;
nodes = (
"137 200.5 OFFCURVE",
"128.5 248 OFFCURVE",
"128.5 305.5 CURVE SMOOTH",
"128.5 465 OFFCURVE",
"194.5 547 OFFCURVE",
"317 547 CURVE SMOOTH",
"374 547 OFFCURVE",
"419 528.5 OFFCURVE",
"450.5 493 CURVE",
"153.5 162.5 LINE"
);
}
);
width = 634.5;
},
{
anchors = (
{
name = top;
position = "{317.5, 607.5}";
}
);
layerId = "163C89DF-00F0-42B6-A1D9-DCBEB7633CF5";
paths = (
{
closed = 1;
nodes = (
"496.5 -7 OFFCURVE",
"595.5 103.5 OFFCURVE",
"595.5 304 CURVE SMOOTH",
"595.5 394 OFFCURVE",
"574.5 466 OFFCURVE",
"536.5 518 CURVE",
"583.5 571 LINE SMOOTH",
"589.5 577 OFFCURVE",
"592 583.5 OFFCURVE",
"592 588.5 CURVE SMOOTH",
"592 604 OFFCURVE",
"565 628.5 OFFCURVE",
"550.5 628.5 CURVE SMOOTH",
"543.5 628.5 OFFCURVE",
"537.5 625 OFFCURVE",
"531 618 CURVE SMOOTH",
"486 567 LINE",
"442.5 598 OFFCURVE",
"385.5 614.5 OFFCURVE",
"317.5 614.5 CURVE SMOOTH",
"139 614.5 OFFCURVE",
"39 504.5 OFFCURVE",
"39 304 CURVE SMOOTH",
"39 225.5 OFFCURVE",
"54 161.5 OFFCURVE",
"82.5 112 CURVE",
"25 47 LINE SMOOTH",
"19 41 OFFCURVE",
"16.5 34.5 OFFCURVE",
"16.5 29.5 CURVE SMOOTH",
"16.5 13 OFFCURVE",
"44.5 -10.5 OFFCURVE",
"58 -10.5 CURVE SMOOTH",
"64 -10.5 OFFCURVE",
"71 -7 OFFCURVE",
"77.5 0 CURVE SMOOTH",
"127.5 57.5 LINE",
"173.5 15 OFFCURVE",
"238 -7 OFFCURVE",
"317.5 -7 CURVE SMOOTH"
);
},
{
closed = 1;
nodes = (
"272.5 107 OFFCURVE",
"238 123.5 OFFCURVE",
"214.5 154.5 CURVE",
"442 411.5 LINE",
"452 383 OFFCURVE",
"458.5 346.5 OFFCURVE",
"458.5 304 CURVE SMOOTH",
"458.5 176 OFFCURVE",
"410.5 107 OFFCURVE",
"317.5 107 CURVE SMOOTH"
);
},
{
closed = 1;
nodes = (
"179 249 OFFCURVE",
"176 274.5 OFFCURVE",
"176 304 CURVE SMOOTH",
"176 431.5 OFFCURVE",
"225 500 OFFCURVE",
"317.5 500 CURVE SMOOTH",
"351.5 500 OFFCURVE",
"380 490.5 OFFCURVE",
"402 472 CURVE",
"183 225.5 LINE"
);
}
);
width = 634.5;
}
);
unicode = 00D8;
},
{
glyphname = OE;
lastChange = "2015-02-24 04:03:16 +0000";
layers = (
{
anchors = (
{
name = top;
position = "{443.5, 607.5}";
}
);
layerId = "A2A4A5F3-E0E0-4E92-91CC-8026BABF9DB1";
paths = (
{
closed = 1;
nodes = (
"409 -5 OFFCURVE",
"476.5 24.5 OFFCURVE",
"521 83.5 CURVE",
"508 100.5 LINE",
"508 26 LINE SMOOTH",
"508 8 OFFCURVE",
"515.5 0 OFFCURVE",
"534 0 CURVE SMOOTH",
"840 0 LINE SMOOTH",
"852.5 0 OFFCURVE",
"857.5 8 OFFCURVE",
"857.5 26 CURVE SMOOTH",
"857.5 40 LINE SMOOTH",
"857.5 58 OFFCURVE",
"852.5 66 OFFCURVE",
"840 66 CURVE SMOOTH",
"584 66 LINE",
"584 278 LINE",
"813.5 278 LINE SMOOTH",
"825.5 278 OFFCURVE",
"830.5 285.5 OFFCURVE",
"830.5 304 CURVE SMOOTH",
"830.5 317.5 LINE SMOOTH",
"830.5 336 OFFCURVE",
"825.5 343.5 OFFCURVE",
"813.5 343.5 CURVE SMOOTH",
"584 343.5 LINE",
"584 541.5 LINE",
"839.5 541.5 LINE SMOOTH",
"851.5 541.5 OFFCURVE",
"856.5 549.5 OFFCURVE",
"856.5 567.5 CURVE SMOOTH",
"856.5 581.5 LINE SMOOTH",
"856.5 600 OFFCURVE",
"851.5 607.5 OFFCURVE",
"839.5 607.5 CURVE SMOOTH",
"534 607.5 LINE SMOOTH",
"515.5 607.5 OFFCURVE",
"508 600 OFFCURVE",
"508 581.5 CURVE SMOOTH",
"508 508.5 LINE",
"521 526 LINE",
"476.5 583.5 OFFCURVE",
"409 613 OFFCURVE",
"317 613 CURVE SMOOTH",
"143 613 OFFCURVE",
"49.5 508.5 OFFCURVE",
"49.5 305.5 CURVE SMOOTH",
"49.5 102.5 OFFCURVE",
"143 -5 OFFCURVE",
"317 -5 CURVE SMOOTH"
);
},
{
closed = 1;
nodes = (
"194.5 61 OFFCURVE",
"128.5 146 OFFCURVE",
"128.5 305.5 CURVE SMOOTH",
"128.5 465 OFFCURVE",
"194.5 547 OFFCURVE",
"317 547 CURVE SMOOTH",
"439 547 OFFCURVE",
"506 465 OFFCURVE",
"506 305.5 CURVE SMOOTH",
"506 146 OFFCURVE",
"439 61 OFFCURVE",
"317 61 CURVE SMOOTH"
);
}
);
width = 886;
},
{
anchors = (
{
name = top;
position = "{443.5, 607.5}";
}
);
layerId = "163C89DF-00F0-42B6-A1D9-DCBEB7633CF5";
paths = (
{
closed = 1;
nodes = (
"381 -7 OFFCURVE",
"442 13 OFFCURVE",
"489.5 54 CURVE",
"460 100.5 LINE",
"460 35.5 LINE",
"460 10.5 OFFCURVE",
"470.5 0 OFFCURVE",
"495 0 CURVE SMOOTH",
"813.5 0 LINE SMOOTH",
"831.5 0 OFFCURVE",
"839.5 13 OFFCURVE",
"839.5 43.5 CURVE SMOOTH",
"839.5 70.5 LINE SMOOTH",
"839.5 100.5 OFFCURVE",
"831.5 113.5 OFFCURVE",
"813.5 113.5 CURVE SMOOTH",
"593.5 113.5 LINE",
"593.5 254.5 LINE",
"789 254.5 LINE SMOOTH",
"807 254.5 OFFCURVE",
"815 267.5 OFFCURVE",
"815 297.5 CURVE SMOOTH",
"815 324.5 LINE SMOOTH",
"815 355 OFFCURVE",
"807 368 OFFCURVE",
"789 368 CURVE SMOOTH",
"593.5 368 LINE",
"593.5 494 LINE",
"812.5 494 LINE SMOOTH",
"830.5 494 OFFCURVE",
"838.5 507 OFFCURVE",
"838.5 537.5 CURVE SMOOTH",
"838.5 564 LINE SMOOTH",
"838.5 594.5 OFFCURVE",
"830.5 607.5 OFFCURVE",
"812.5 607.5 CURVE SMOOTH",
"495 607.5 LINE SMOOTH",
"470.5 607.5 OFFCURVE",
"460 597 OFFCURVE",
"460 574.5 CURVE SMOOTH",
"460 509.5 LINE",
"489.5 553 LINE",
"441 594.5 OFFCURVE",
"383 614.5 OFFCURVE",
"309 614.5 CURVE SMOOTH",
"135.5 614.5 OFFCURVE",
"39 504.5 OFFCURVE",
"39 304 CURVE SMOOTH",
"39 103.5 OFFCURVE",
"135.5 -7 OFFCURVE",
"309 -7 CURVE SMOOTH"
);
},
{
closed = 1;
nodes = (
"225 107 OFFCURVE",
"176 176 OFFCURVE",
"176 304 CURVE SMOOTH",
"176 431.5 OFFCURVE",
"225 500 OFFCURVE",
"317.5 500 CURVE SMOOTH",
"410.5 500 OFFCURVE",
"458.5 431.5 OFFCURVE",
"458.5 304 CURVE SMOOTH",
"458.5 176 OFFCURVE",
"410.5 107 OFFCURVE",
"317.5 107 CURVE SMOOTH"
);
}
);
width = 886;
}
);
unicode = 0152;
},
{
glyphname = P;
lastChange = "2015-02-24 04:03:16 +0000";
layers = (
{
layerId = "A2A4A5F3-E0E0-4E92-91CC-8026BABF9DB1";
paths = (
{
closed = 1;
nodes = (
"115.5 -1.5 LINE SMOOTH",
"139.5 -1.5 OFFCURVE",
"150 5 OFFCURVE",
"150 17.5 CURVE SMOOTH",
"150 258.5 LINE",
"284.5 258.5 LINE SMOOTH",
"330 258.5 OFFCURVE",
"469.5 278.5 OFFCURVE",
"469.5 437.5 CURVE SMOOTH",
"469.5 584 OFFCURVE",
"350.5 607.5 OFFCURVE",
"276 607.5 CURVE SMOOTH",
"100 607.5 LINE SMOOTH",
"81.5 607.5 OFFCURVE",
"74 600 OFFCURVE",
"74 581.5 CURVE SMOOTH",
"74 17.5 LINE SMOOTH",
"74 5 OFFCURVE",
"84 -1.5 OFFCURVE",
"108.5 -1.5 CURVE SMOOTH"
);
},
{
closed = 1;
nodes = (
"150 541.5 LINE",
"273.5 541.5 LINE SMOOTH",
"324.5 541.5 OFFCURVE",
"390.5 523.5 OFFCURVE",
"390.5 437.5 CURVE SMOOTH",
"390.5 343 OFFCURVE",
"320.5 324.5 OFFCURVE",
"285.5 324.5 CURVE SMOOTH",
"150 324.5 LINE"
);
}
);
width = 495;
},
{
layerId = "163C89DF-00F0-42B6-A1D9-DCBEB7633CF5";
paths = (
{
closed = 1;
nodes = (
"141.5 -1.5 LINE SMOOTH",
"178 -1.5 OFFCURVE",
"193.5 8 OFFCURVE",
"193.5 26 CURVE SMOOTH",
"193.5 227.5 LINE",
"285.5 227.5 LINE SMOOTH",
"332.5 227.5 OFFCURVE",
"483.5 250 OFFCURVE",
"483.5 417.5 CURVE SMOOTH",
"483.5 585 OFFCURVE",
"354 607.5 OFFCURVE",
"277 607.5 CURVE SMOOTH",
"94.5 607.5 LINE SMOOTH",
"70.5 607.5 OFFCURVE",
"60 597 OFFCURVE",
"60 573 CURVE SMOOTH",
"60 26 LINE SMOOTH",
"60 8 OFFCURVE",
"75.5 -1.5 OFFCURVE",
"112 -1.5 CURVE SMOOTH"
);
},
{
closed = 1;
nodes = (
"193.5 494 LINE",
"271 494 LINE SMOOTH",
"304 494 OFFCURVE",
"346.5 480 OFFCURVE",
"346.5 417.5 CURVE SMOOTH",
"346.5 355 OFFCURVE",
"304 342 OFFCURVE",
"271 342 CURVE SMOOTH",
"193.5 342 LINE"
);
}
);
width = 495;
}
);
unicode = 0050;
},
{
glyphname = Thorn;
lastChange = "2015-02-24 04:03:16 +0000";
layers = (
{
layerId = "A2A4A5F3-E0E0-4E92-91CC-8026BABF9DB1";
paths = (
{
closed = 1;
nodes = (
"115.5 -1.5 LINE SMOOTH",
"139.5 -1.5 OFFCURVE",
"150 5 OFFCURVE",
"150 17.5 CURVE SMOOTH",
"150 153 LINE",
"284.5 153 LINE SMOOTH",
"330 153 OFFCURVE",
"469.5 172.5 OFFCURVE",
"469.5 331.5 CURVE SMOOTH",
"469.5 478.5 OFFCURVE",
"350.5 501.5 OFFCURVE",
"276 501.5 CURVE SMOOTH",
"150 501.5 LINE",
"150 590 LINE SMOOTH",
"150 602.5 OFFCURVE",
"139.5 609.5 OFFCURVE",
"115.5 609.5 CURVE SMOOTH",
"108.5 609.5 LINE SMOOTH",
"84 609.5 OFFCURVE",
"74 602.5 OFFCURVE",
"74 590 CURVE SMOOTH",
"74 17.5 LINE SMOOTH",
"74 5 OFFCURVE",
"84 -1.5 OFFCURVE",
"108.5 -1.5 CURVE SMOOTH"
);
},
{
closed = 1;
nodes = (
"150 435.5 LINE",
"273.5 435.5 LINE SMOOTH",
"324.5 435.5 OFFCURVE",
"390.5 417.5 OFFCURVE",
"390.5 331.5 CURVE SMOOTH",
"390.5 237 OFFCURVE",
"320.5 218.5 OFFCURVE",
"285.5 218.5 CURVE SMOOTH",
"150 218.5 LINE"
);
}
);
width = 492;
},
{
layerId = "163C89DF-00F0-42B6-A1D9-DCBEB7633CF5";
paths = (
{
closed = 1;
nodes = (
"140.5 -1.5 LINE SMOOTH",
"177 -1.5 OFFCURVE",
"192.5 8 OFFCURVE",
"192.5 26 CURVE SMOOTH",
"192.5 134.5 LINE",
"291 134.5 LINE SMOOTH",
"337.5 134.5 OFFCURVE",
"488.5 157 OFFCURVE",
"488.5 324.5 CURVE SMOOTH",
"488.5 492 OFFCURVE",
"359.5 514.5 OFFCURVE",
"282 514.5 CURVE SMOOTH",
"192.5 514.5 LINE",
"192.5 581.5 LINE SMOOTH",
"192.5 600 OFFCURVE",
"177 609.5 OFFCURVE",
"140.5 609.5 CURVE SMOOTH",
"111 609.5 LINE SMOOTH",
"74.5 609.5 OFFCURVE",
"59 600 OFFCURVE",
"59 581.5 CURVE SMOOTH",
"59 26 LINE SMOOTH",
"59 8 OFFCURVE",
"74.5 -1.5 OFFCURVE",
"111 -1.5 CURVE SMOOTH"
);
},
{
closed = 1;
nodes = (
"192.5 401 LINE",
"276 401 LINE SMOOTH",
"309 401 OFFCURVE",
"351.5 387 OFFCURVE",
"351.5 324.5 CURVE SMOOTH",
"351.5 262 OFFCURVE",
"309 249 OFFCURVE",
"276 249 CURVE SMOOTH",
"192.5 249 LINE"
);
}
);
width = 492;
}
);
unicode = 00DE;
},
{
glyphname = Q;
lastChange = "2015-02-24 04:03:16 +0000";
layers = (
{
layerId = "A2A4A5F3-E0E0-4E92-91CC-8026BABF9DB1";
paths = (
{
closed = 1;
nodes = (
"577 -128.5 OFFCURVE",
"593.5 -76.5 OFFCURVE",
"593.5 -66 CURVE SMOOTH",
"593.5 -60 OFFCURVE",
"589.5 -55.5 OFFCURVE",
"581.5 -53 CURVE SMOOTH",
"410.5 1 LINE",
"410.5 4.5 LINE",
"523.5 34.5 OFFCURVE",
"585 136.5 OFFCURVE",
"585 301 CURVE SMOOTH",
"585 504.5 OFFCURVE",
"491.5 613 OFFCURVE",
"317 613 CURVE SMOOTH",
"143 613 OFFCURVE",
"49.5 505 OFFCURVE",
"49.5 301 CURVE SMOOTH",
"49.5 146 OFFCURVE",
"104 48.5 OFFCURVE",
"213.5 5 CURVE SMOOTH",
"238.5 -5 OFFCURVE",
"547 -128.5 OFFCURVE",
"557.5 -128.5 CURVE SMOOTH"
);
},
{
closed = 1;
nodes = (
"197 58 OFFCURVE",
"128.5 143 OFFCURVE",
"128.5 301 CURVE SMOOTH",
"128.5 460 OFFCURVE",
"197 547 OFFCURVE",
"317 547 CURVE SMOOTH",
"437.5 547 OFFCURVE",
"506 459 OFFCURVE",
"506 301 CURVE SMOOTH",
"506 144 OFFCURVE",
"437.5 58 OFFCURVE",
"317 58 CURVE SMOOTH"
);
}
);
width = 634.5;
},
{
layerId = "163C89DF-00F0-42B6-A1D9-DCBEB7633CF5";
paths = (
{
closed = 1;
nodes = (
"584 -126.5 OFFCURVE",
"604 -52 OFFCURVE",
"604 -38 CURVE SMOOTH",
"604 -32 OFFCURVE",
"600 -27 OFFCURVE",
"592 -24.5 CURVE SMOOTH",
"459 23.5 LINE",
"459 27 LINE",
"547 72 OFFCURVE",
"595.5 166.5 OFFCURVE",
"595.5 304 CURVE SMOOTH",
"595.5 504.5 OFFCURVE",
"496.5 614.5 OFFCURVE",
"317.5 614.5 CURVE SMOOTH",
"139 614.5 OFFCURVE",
"39 504.5 OFFCURVE",
"39 304 CURVE SMOOTH",
"39 153.5 OFFCURVE",
"94.5 54 OFFCURVE",
"197 14 CURVE SMOOTH",
"550.5 -126 OFFCURVE",
"547.5 -126.5 OFFCURVE",
"556.5 -126.5 CURVE SMOOTH"
);
},
{
closed = 1;
nodes = (
"225 103.5 OFFCURVE",
"176 173.5 OFFCURVE",
"176 304 CURVE SMOOTH",
"176 431.5 OFFCURVE",
"225 500 OFFCURVE",
"317.5 500 CURVE SMOOTH",
"410.5 500 OFFCURVE",
"458.5 431.5 OFFCURVE",
"458.5 304 CURVE SMOOTH",
"458.5 173.5 OFFCURVE",
"410.5 103.5 OFFCURVE",
"317.5 103.5 CURVE SMOOTH"
);
}
);
width = 634.5;
}
);
unicode = 0051;
},
{
glyphname = R;
lastChange = "2015-02-24 04:03:16 +0000";
layers = (
{
anchors = (
{
name = bottom;
position = "{264.5, 0}";
},
{
name = top;
position = "{264.5, 607.5}";
}
);
layerId = "A2A4A5F3-E0E0-4E92-91CC-8026BABF9DB1";
paths = (
{
closed = 1;
nodes = (
"126 -1.5 LINE SMOOTH",
"150 -1.5 OFFCURVE",
"160.5 5 OFFCURVE",
"160.5 17.5 CURVE SMOOTH",
"160.5 267.5 LINE",
"238.5 267.5 LINE SMOOTH",
"306.5 267.5 OFFCURVE",
"342 250 OFFCURVE",
"368 182.5 CURVE SMOOTH",
"434 12 LINE SMOOTH",
"437.5 3.5 OFFCURVE",
"451.5 -1.5 OFFCURVE",
"468.5 -1.5 CURVE SMOOTH",
"477.5 -1.5 LINE SMOOTH",
"502.5 -1.5 OFFCURVE",
"514 3.5 OFFCURVE",
"514 12 CURVE SMOOTH",
"514 15 OFFCURVE",
"513 19 OFFCURVE",
"511.5 24.5 CURVE SMOOTH",
"443.5 195.5 LINE SMOOTH",
"421 252.5 OFFCURVE",
"402 291.5 OFFCURVE",
"365.5 304 CURVE",
"365.5 307.5 LINE",
"426 331.5 OFFCURVE",
"465 379.5 OFFCURVE",
"465 454 CURVE SMOOTH",
"465 563.5 OFFCURVE",
"391.5 607.5 OFFCURVE",
"256 607.5 CURVE SMOOTH",
"110 607.5 LINE SMOOTH",
"92 607.5 OFFCURVE",
"84 600 OFFCURVE",
"84 581.5 CURVE SMOOTH",
"84 17.5 LINE SMOOTH",
"84 5 OFFCURVE",
"94.5 -1.5 OFFCURVE",
"119 -1.5 CURVE SMOOTH"
);
},
{
closed = 1;
nodes = (
"160.5 541.5 LINE",
"269 541.5 LINE SMOOTH",
"339.5 541.5 OFFCURVE",
"386.5 510.5 OFFCURVE",
"386.5 440 CURVE SMOOTH",
"386.5 383 OFFCURVE",
"337.5 333.5 OFFCURVE",
"275 333.5 CURVE SMOOTH",
"160.5 333.5 LINE"
);
}
);
width = 529.5;
},
{
anchors = (
{
name = bottom;
position = "{264.5, 0}";
},
{
name = top;
position = "{264.5, 607.5}";
}
);
layerId = "163C89DF-00F0-42B6-A1D9-DCBEB7633CF5";
paths = (
{
closed = 1;
nodes = (
"141.5 -1.5 LINE SMOOTH",
"178 -1.5 OFFCURVE",
"193.5 8 OFFCURVE",
"193.5 26 CURVE SMOOTH",
"193.5 238 LINE",
"227.5 238 LINE SMOOTH",
"284 238 OFFCURVE",
"297.5 220.5 OFFCURVE",
"315 186 CURVE",
"383.5 16.5 LINE SMOOTH",
"389 2.5 OFFCURVE",
"409 -1.5 OFFCURVE",
"434 -1.5 CURVE SMOOTH",
"469.5 -1.5 LINE SMOOTH",
"505 -1.5 OFFCURVE",
"521.5 5 OFFCURVE",
"521.5 15.5 CURVE SMOOTH",
"521.5 20 OFFCURVE",
"520 25 OFFCURVE",
"517.5 32 CURVE SMOOTH",
"441 223 LINE SMOOTH",
"426 260.5 OFFCURVE",
"400 294.5 OFFCURVE",
"378.5 303 CURVE",
"378.5 306.5 LINE",
"438.5 329 OFFCURVE",
"480 377.5 OFFCURVE",
"480 444.5 CURVE SMOOTH",
"480 548.5 OFFCURVE",
"414 607.5 OFFCURVE",
"264 607.5 CURVE SMOOTH",
"94.5 607.5 LINE SMOOTH",
"70.5 607.5 OFFCURVE",
"60 597 OFFCURVE",
"60 573 CURVE SMOOTH",
"60 26 LINE SMOOTH",
"60 8 OFFCURVE",
"75.5 -1.5 OFFCURVE",
"112 -1.5 CURVE SMOOTH"
);
},
{
closed = 1;
nodes = (
"193.5 494 LINE",
"270 494 LINE SMOOTH",
"315 494 OFFCURVE",
"343 468 OFFCURVE",
"343 428 CURVE SMOOTH",
"343 386.5 OFFCURVE",
"311.5 353.5 OFFCURVE",
"276 353.5 CURVE SMOOTH",
"193.5 353.5 LINE"
);
}
);
width = 529.5;
}
);
unicode = 0052;
},
{
glyphname = S;
lastChange = "2015-02-24 04:03:16 +0000";
layers = (
{
anchors = (
{
name = bottom;
position = "{217, 0}";
},
{
name = top;
position = "{217, 607.5}";
}
);
layerId = "A2A4A5F3-E0E0-4E92-91CC-8026BABF9DB1";
paths = (
{
closed = 1;
nodes = (
"329 -5 OFFCURVE",
"404.5 59 OFFCURVE",
"404.5 163 CURVE SMOOTH",
"404.5 281 OFFCURVE",
"317.5 316 OFFCURVE",
"240.5 345.5 CURVE SMOOTH",
"178 369 OFFCURVE",
"122.5 385.5 OFFCURVE",
"122.5 449 CURVE SMOOTH",
"122.5 512 OFFCURVE",
"169.5 547 OFFCURVE",
"234.5 547 CURVE SMOOTH",
"303 547 OFFCURVE",
"335 514 OFFCURVE",
"348 514 CURVE SMOOTH",
"356.5 514 OFFCURVE",
"376 547 OFFCURVE",
"376 560 CURVE SMOOTH",
"376 591 OFFCURVE",
"285.5 613 OFFCURVE",
"236 613 CURVE SMOOTH",
"120 613 OFFCURVE",
"43.5 546 OFFCURVE",
"43.5 452 CURVE SMOOTH",
"43.5 338.5 OFFCURVE",
"120.5 310 OFFCURVE",
"194.5 281 CURVE SMOOTH",
"261.5 255 OFFCURVE",
"325.5 232.5 OFFCURVE",
"325.5 163 CURVE SMOOTH",
"325.5 101.5 OFFCURVE",
"278 61 OFFCURVE",
"212 61 CURVE SMOOTH",
"122.5 61 OFFCURVE",
"74 105 OFFCURVE",
"62.5 105 CURVE SMOOTH",
"53 105 OFFCURVE",
"32 72 OFFCURVE",
"32 58 CURVE SMOOTH",
"32 34.5 OFFCURVE",
"110 -5 OFFCURVE",
"212 -5 CURVE SMOOTH"
);
}
);
width = 434;
},
{
anchors = (
{
name = bottom;
position = "{217, 0}";
},
{
name = top;
position = "{217, 607.5}";
}
);
layerId = "163C89DF-00F0-42B6-A1D9-DCBEB7633CF5";
paths = (
{
closed = 1;
nodes = (
"317.5 -7 OFFCURVE",
"419 41.5 OFFCURVE",
"419 183 CURVE SMOOTH",
"419 301 OFFCURVE",
"332.5 337 OFFCURVE",
"261.5 366.5 CURVE SMOOTH",
"211 386.5 OFFCURVE",
"168.5 403.5 OFFCURVE",
"168.5 451.5 CURVE SMOOTH",
"168.5 471.5 OFFCURVE",
"181.5 500 OFFCURVE",
"249 500 CURVE SMOOTH",
"307.5 500 OFFCURVE",
"334 478.5 OFFCURVE",
"345.5 478.5 CURVE SMOOTH",
"366.5 478.5 OFFCURVE",
"393 530.5 OFFCURVE",
"393 554 CURVE SMOOTH",
"393 582.5 OFFCURVE",
"329 614.5 OFFCURVE",
"237 614.5 CURVE SMOOTH",
"135.5 614.5 OFFCURVE",
"31 564 OFFCURVE",
"31 439 CURVE SMOOTH",
"31 335 OFFCURVE",
"88.5 293.5 OFFCURVE",
"148.5 264.5 CURVE SMOOTH",
"213.5 234.5 OFFCURVE",
"282 219.5 OFFCURVE",
"282 167.5 CURVE SMOOTH",
"282 118 OFFCURVE",
"238 107 OFFCURVE",
"200.5 107 CURVE SMOOTH",
"131 107 OFFCURVE",
"88.5 146.5 OFFCURVE",
"73 146.5 CURVE SMOOTH",
"54.5 146.5 OFFCURVE",
"19 96.5 OFFCURVE",
"19 69.5 CURVE SMOOTH",
"19 40 OFFCURVE",
"91 -7 OFFCURVE",
"223 -7 CURVE SMOOTH"
);
}
);
width = 434;
}
);
unicode = 0053;
},
{
glyphname = Germandbls;
lastChange = "2015-02-24 04:03:16 +0000";
layers = (
{
layerId = "A2A4A5F3-E0E0-4E92-91CC-8026BABF9DB1";
paths = (
{
closed = 1;
nodes = (
"460 -5 OFFCURVE",
"573 42.5 OFFCURVE",
"573 176 CURVE SMOOTH",
"573 281 OFFCURVE",
"502.5 332.5 OFFCURVE",
"404.5 348 CURVE",
"534.5 526 LINE",
"536.5 528.5 OFFCURVE",
"537.5 532 OFFCURVE",
"537.5 536.5 CURVE SMOOTH",
"537.5 554.5 OFFCURVE",
"524.5 580.5 OFFCURVE",
"518 582.5 CURVE SMOOTH",
"474 595.5 OFFCURVE",
"400 610 OFFCURVE",
"317.5 613 CURVE SMOOTH",
"162.5 613.5 OFFCURVE",
"80 532 OFFCURVE",
"80 373 CURVE SMOOTH",
"80 17.5 LINE SMOOTH",
"80 5 OFFCURVE",
"90.5 -1.5 OFFCURVE",
"114.5 -1.5 CURVE SMOOTH",
"121.5 -1.5 LINE SMOOTH",
"146 -1.5 OFFCURVE",
"156 5 OFFCURVE",
"156 17.5 CURVE SMOOTH",
"156 372.5 LINE SMOOTH",
"156 495 OFFCURVE",
"208.5 547 OFFCURVE",
"319.5 547 CURVE SMOOTH",
"372.5 547 OFFCURVE",
"413 538 OFFCURVE",
"442 528.5 CURVE",
"310 348 LINE",
"308 345.5 OFFCURVE",
"307.5 342 OFFCURVE",
"307.5 337.5 CURVE SMOOTH",
"307.5 320.5 OFFCURVE",
"319.5 291.5 OFFCURVE",
"328 291.5 CURVE SMOOTH",
"358.5 291.5 LINE SMOOTH",
"442 291.5 OFFCURVE",
"497.5 265.5 OFFCURVE",
"497.5 177 CURVE SMOOTH",
"497.5 82.5 OFFCURVE",
"419 57.5 OFFCURVE",
"363.5 57.5 CURVE SMOOTH",
"302 57.5 OFFCURVE",
"289 87.5 OFFCURVE",
"252.5 87.5 CURVE SMOOTH",
"243 87.5 OFFCURVE",
"222 61 OFFCURVE",
"222 44.5 CURVE SMOOTH",
"246.5 22.5 OFFCURVE",
"284.5 -5 OFFCURVE",
"370.5 -5 CURVE SMOOTH"
);
}
);
width = 607.5;
},
{
layerId = "163C89DF-00F0-42B6-A1D9-DCBEB7633CF5";
paths = (
{
closed = 1;
nodes = (
"508.5 -7 OFFCURVE",
"586 61.5 OFFCURVE",
"586 177 CURVE SMOOTH",
"586 290 OFFCURVE",
"519 330 OFFCURVE",
"453 356 CURVE",
"550.5 512 LINE",
"551 514 OFFCURVE",
"551 515.5 OFFCURVE",
"551 519 CURVE SMOOTH",
"551 541.5 OFFCURVE",
"533 597 OFFCURVE",
"519 599 CURVE SMOOTH",
"462 607.5 OFFCURVE",
"378.5 614.5 OFFCURVE",
"304 614.5 CURVE SMOOTH",
"141.5 614.5 OFFCURVE",
"57.5 533 OFFCURVE",
"57.5 375 CURVE SMOOTH",
"57.5 26 LINE SMOOTH",
"57.5 8 OFFCURVE",
"73 -1.5 OFFCURVE",
"109.5 -1.5 CURVE SMOOTH",
"139.5 -1.5 LINE SMOOTH",
"176 -1.5 OFFCURVE",
"192 8 OFFCURVE",
"192 26 CURVE SMOOTH",
"192 374 LINE SMOOTH",
"192 455 OFFCURVE",
"226.5 500 OFFCURVE",
"301 500 CURVE SMOOTH",
"337.5 500 OFFCURVE",
"368 498 OFFCURVE",
"393 495.5 CURVE",
"307.5 353.5 LINE",
"306.5 351.5 OFFCURVE",
"305.5 348 OFFCURVE",
"305.5 344.5 CURVE SMOOTH",
"305.5 321 OFFCURVE",
"324.5 267.5 OFFCURVE",
"339.5 267.5 CURVE SMOOTH",
"363 267.5 LINE SMOOTH",
"422.5 267.5 OFFCURVE",
"455.5 236 OFFCURVE",
"455.5 179 CURVE SMOOTH",
"455.5 125 OFFCURVE",
"424.5 94.5 OFFCURVE",
"378.5 94.5 CURVE SMOOTH",
"324 94.5 OFFCURVE",
"291.5 130 OFFCURVE",
"278.5 130 CURVE SMOOTH",
"258.5 130 OFFCURVE",
"236 80.5 OFFCURVE",
"236 64 CURVE SMOOTH",
"236 10.5 OFFCURVE",
"342 -7 OFFCURVE",
"398.5 -7 CURVE SMOOTH"
);
}
);
width = 607.5;
}
);
unicode = 1E9E;
},
{
glyphname = Schwa;
lastChange = "2015-02-24 04:03:16 +0000";
layers = (
{
layerId = "A2A4A5F3-E0E0-4E92-91CC-8026BABF9DB1";
paths = (
{
closed = 1;
nodes = (
"424.5 -8 OFFCURVE",
"507 92 OFFCURVE",
"507 288 CURVE SMOOTH",
"507 510.5 OFFCURVE",
"428 613 OFFCURVE",
"259.5 613 CURVE SMOOTH",
"140.5 613 OFFCURVE",
"51 567.5 OFFCURVE",
"51 540 CURVE SMOOTH",
"51 530.5 OFFCURVE",
"69.5 496.5 OFFCURVE",
"81.5 496.5 CURVE SMOOTH",
"95.5 496.5 OFFCURVE",
"153.5 550.5 OFFCURVE",
"260.5 550.5 CURVE SMOOTH",
"367 550.5 OFFCURVE",
"418.5 478.5 OFFCURVE",
"429 315 CURVE",
"67.5 315 LINE SMOOTH",
"57.5 315 OFFCURVE",
"39 290 OFFCURVE",
"39 279.5 CURVE SMOOTH",
"39 89.5 OFFCURVE",
"112 -8 OFFCURVE",
"261.5 -8 CURVE SMOOTH"
);
},
{
closed = 1;
nodes = (
"164 54.5 OFFCURVE",
"116.5 119 OFFCURVE",
"116.5 252.5 CURVE",
"429 252.5 LINE",
"422.5 119 OFFCURVE",
"365.5 54.5 OFFCURVE",
"264 54.5 CURVE SMOOTH"
);
}
);
width = 583.5;
},
{
layerId = "163C89DF-00F0-42B6-A1D9-DCBEB7633CF5";
paths = (
{
closed = 1;
nodes = (
"414 -1 OFFCURVE",
"518 80.5 OFFCURVE",
"518 288 CURVE SMOOTH",
"518 485 OFFCURVE",
"438.5 614.5 OFFCURVE",
"257 614.5 CURVE SMOOTH",
"192.5 614.5 OFFCURVE",
"48.5 590 OFFCURVE",
"48.5 534.5 CURVE SMOOTH",
"48.5 517.5 OFFCURVE",
"74.5 468.5 OFFCURVE",
"93.5 468.5 CURVE SMOOTH",
"111 468.5 OFFCURVE",
"170 513 OFFCURVE",
"251 513 CURVE SMOOTH",
"328 513 OFFCURVE",
"376 472 OFFCURVE",
"385.5 326.5 CURVE",
"77.5 326.5 LINE SMOOTH",
"66 326.5 OFFCURVE",
"33 290 OFFCURVE",
"33 275 CURVE SMOOTH",
"33 128.5 OFFCURVE",
"97 -1 OFFCURVE",
"264 -1 CURVE SMOOTH"
);
},
{
closed = 1;
nodes = (
"190 100.5 OFFCURVE",
"158 159 OFFCURVE",
"158 240.5 CURVE",
"385.5 240.5 LINE",
"370.5 132 OFFCURVE",
"322 100.5 OFFCURVE",
"264 100.5 CURVE SMOOTH"
);
}
);
width = 583.5;
}
);
unicode = 018F;
},
{
glyphname = T;
lastChange = "2015-02-24 04:03:16 +0000";
layers = (
{
anchors = (
{
name = bottom;
position = "{238.5, 0}";
},
{
name = center;
position = "{238.5, 304}";
},
{
name = top;
position = "{238.5, 607.5}";
}
);
layerId = "A2A4A5F3-E0E0-4E92-91CC-8026BABF9DB1";
paths = (
{
closed = 1;
nodes = (
"243 -1.5 LINE SMOOTH",
"267.5 -1.5 OFFCURVE",
"278 5 OFFCURVE",
"278 17.5 CURVE SMOOTH",
"278 541.5 LINE",
"442 541.5 LINE SMOOTH",
"454 541.5 OFFCURVE",
"459 549.5 OFFCURVE",
"459 567.5 CURVE SMOOTH",
"459 581.5 LINE SMOOTH",
"459 600 OFFCURVE",
"454 607.5 OFFCURVE",
"442 607.5 CURVE SMOOTH",
"34.5 607.5 LINE SMOOTH",
"22.5 607.5 OFFCURVE",
"17.5 600 OFFCURVE",
"17.5 581.5 CURVE SMOOTH",
"17.5 567.5 LINE SMOOTH",
"17.5 549.5 OFFCURVE",
"22.5 541.5 OFFCURVE",
"34.5 541.5 CURVE SMOOTH",
"201.5 541.5 LINE",
"201.5 17.5 LINE SMOOTH",
"201.5 5 OFFCURVE",
"212 -1.5 OFFCURVE",
"236 -1.5 CURVE SMOOTH"
);
}
);
width = 476.5;
},
{
anchors = (
{
name = bottom;
position = "{238.5, 0}";
},
{
name = center;
position = "{238.5, 304}";
},
{
name = top;
position = "{238.5, 607.5}";
}
);
layerId = "163C89DF-00F0-42B6-A1D9-DCBEB7633CF5";
paths = (
{
closed = 1;
nodes = (
"253.5 -1.5 LINE SMOOTH",
"290 -1.5 OFFCURVE",
"305.5 8 OFFCURVE",
"305.5 26 CURVE SMOOTH",
"305.5 494 LINE",
"443.5 494 LINE SMOOTH",
"462 494 OFFCURVE",
"469.5 507 OFFCURVE",
"469.5 537.5 CURVE SMOOTH",
"469.5 564 LINE SMOOTH",
"469.5 594.5 OFFCURVE",
"462 607.5 OFFCURVE",
"443.5 607.5 CURVE SMOOTH",
"33 607.5 LINE SMOOTH",
"15 607.5 OFFCURVE",
"7 594.5 OFFCURVE",
"7 564 CURVE SMOOTH",
"7 537.5 LINE SMOOTH",
"7 507 OFFCURVE",
"15 494 OFFCURVE",
"33 494 CURVE SMOOTH",
"171 494 LINE",
"171 26 LINE SMOOTH",
"171 8 OFFCURVE",
"186.5 -1.5 OFFCURVE",
"223 -1.5 CURVE SMOOTH"
);
}
);
width = 476.5;
}
);
leftKerningGroup = T;
rightKerningGroup = T;
unicode = 0054;
},
{
glyphname = U;
lastChange = "2015-02-24 04:03:16 +0000";
layers = (
{
anchors = (
{
name = bottom;
position = "{310, 0}";
},
{
name = horn;
position = "{504.5, 609.5}";
},
{
name = ogonek;
position = "{374, 0}";
},
{
name = top;
position = "{309, 607.5}";
}
);
layerId = "A2A4A5F3-E0E0-4E92-91CC-8026BABF9DB1";
paths = (
{
closed = 1;
nodes = (
"462 -5 OFFCURVE",
"546 69.5 OFFCURVE",
"546 194.5 CURVE SMOOTH",
"546 590 LINE SMOOTH",
"546 602.5 OFFCURVE",
"535.5 609.5 OFFCURVE",
"511.5 609.5 CURVE SMOOTH",
"504.5 609.5 LINE SMOOTH",
"480 609.5 OFFCURVE",
"469.5 602.5 OFFCURVE",
"469.5 590 CURVE SMOOTH",
"469.5 192 LINE SMOOTH",
"469.5 115.5 OFFCURVE",
"402 61 OFFCURVE",
"309 61 CURVE SMOOTH",
"217 61 OFFCURVE",
"148.5 114.5 OFFCURVE",
"148.5 192 CURVE SMOOTH",
"148.5 590 LINE SMOOTH",
"148.5 602.5 OFFCURVE",
"138 609.5 OFFCURVE",
"113.5 609.5 CURVE SMOOTH",
"107 609.5 LINE SMOOTH",
"82.5 609.5 OFFCURVE",
"72 602.5 OFFCURVE",
"72 590 CURVE SMOOTH",
"72 194.5 LINE SMOOTH",
"72 69.5 OFFCURVE",
"155.5 -5 OFFCURVE",
"309 -5 CURVE SMOOTH"
);
}
);
width = 618;
},
{
anchors = (
{
name = bottom;
position = "{309, 0}";
},
{
name = horn;
position = "{480, 609.5}";
},
{
name = ogonek;
position = "{388, 0}";
},
{
name = top;
position = "{309, 607.5}";
}
);
layerId = "163C89DF-00F0-42B6-A1D9-DCBEB7633CF5";
paths = (
{
closed = 1;
nodes = (
"468 -7 OFFCURVE",
"560.5 69.5 OFFCURVE",
"560.5 203 CURVE SMOOTH",
"560.5 581.5 LINE SMOOTH",
"560.5 600 OFFCURVE",
"545 609.5 OFFCURVE",
"508.5 609.5 CURVE SMOOTH",
"480 609.5 LINE SMOOTH",
"443.5 609.5 OFFCURVE",
"428 600 OFFCURVE",
"428 581.5 CURVE SMOOTH",
"428 212 LINE SMOOTH",
"428 151 OFFCURVE",
"379.5 107 OFFCURVE",
"309 107 CURVE SMOOTH",
"238.5 107 OFFCURVE",
"191 151 OFFCURVE",
"191 212 CURVE SMOOTH",
"191 581.5 LINE SMOOTH",
"191 600 OFFCURVE",
"175.5 609.5 OFFCURVE",
"139 609.5 CURVE SMOOTH",
"109.5 609.5 LINE SMOOTH",
"73 609.5 OFFCURVE",
"57.5 600 OFFCURVE",
"57.5 581.5 CURVE SMOOTH",
"57.5 203 LINE SMOOTH",
"57.5 69.5 OFFCURVE",
"150 -7 OFFCURVE",
"309 -7 CURVE SMOOTH"
);
}
);
width = 618;
}
);
unicode = 0055;
},
{
glyphname = V;
lastChange = "2015-02-24 04:03:16 +0000";
layers = (
{
layerId = "A2A4A5F3-E0E0-4E92-91CC-8026BABF9DB1";
paths = (
{
closed = 1;
nodes = (
"281 -1.5 LINE SMOOTH",
"298.5 -1.5 OFFCURVE",
"312.5 1.5 OFFCURVE",
"316 12 CURVE SMOOTH",
"514.5 582.5 LINE SMOOTH",
"516.5 587.5 OFFCURVE",
"517.5 591 OFFCURVE",
"517.5 594.5 CURVE SMOOTH",
"517.5 604 OFFCURVE",
"506 609.5 OFFCURVE",
"480 609.5 CURVE SMOOTH",
"475 609.5 LINE SMOOTH",
"457.5 609.5 OFFCURVE",
"443.5 606 OFFCURVE",
"440 595.5 CURVE SMOOTH",
"279.5 133 LINE",
"270 87 LINE",
"267.5 87 LINE",
"258.5 132 LINE",
"98 595.5 LINE SMOOTH",
"94.5 606 OFFCURVE",
"80.5 609.5 OFFCURVE",
"63.5 609.5 CURVE SMOOTH",
"55.5 609.5 LINE SMOOTH",
"29.5 609.5 OFFCURVE",
"18 603.5 OFFCURVE",
"18 594.5 CURVE SMOOTH",
"18 591 OFFCURVE",
"19 587.5 OFFCURVE",
"21 583.5 CURVE SMOOTH",
"219.5 12 LINE SMOOTH",
"223 1.5 OFFCURVE",
"237 -1.5 OFFCURVE",
"254.5 -1.5 CURVE SMOOTH"
);
}
);
width = 535.5;
},
{
layerId = "163C89DF-00F0-42B6-A1D9-DCBEB7633CF5";
paths = (
{
closed = 1;
nodes = (
"289 -1.5 LINE SMOOTH",
"314 -1.5 OFFCURVE",
"333.5 2.5 OFFCURVE",
"337.5 16.5 CURVE SMOOTH",
"525 574.5 LINE SMOOTH",
"527 580.5 OFFCURVE",
"527.5 586 OFFCURVE",
"527.5 590 CURVE SMOOTH",
"527.5 602.5 OFFCURVE",
"512 609.5 OFFCURVE",
"475.5 609.5 CURVE SMOOTH",
"449 609.5 LINE SMOOTH",
"423.5 609.5 OFFCURVE",
"403.5 602.5 OFFCURVE",
"397.5 584 CURVE SMOOTH",
"277 208.5 LINE",
"267.5 178 LINE",
"264 178 LINE",
"254.5 208.5 LINE",
"137 584 LINE SMOOTH",
"131 603.5 OFFCURVE",
"111 609.5 OFFCURVE",
"86 609.5 CURVE SMOOTH",
"57.5 609.5 LINE SMOOTH",
"21 609.5 OFFCURVE",
"4.5 602.5 OFFCURVE",
"4.5 590 CURVE SMOOTH",
"4.5 586 OFFCURVE",
"6 580.5 OFFCURVE",
"8 574.5 CURVE SMOOTH",
"195.5 16.5 LINE SMOOTH",
"199.5 2.5 OFFCURVE",
"218.5 -1.5 OFFCURVE",
"244 -1.5 CURVE SMOOTH"
);
}
);
width = 535.5;
}
);
leftKerningGroup = V;
rightKerningGroup = V;
unicode = 0056;
},
{
glyphname = W;
lastChange = "2015-02-24 04:03:16 +0000";
layers = (
{
anchors = (
{
name = top;
position = "{383, 607.5}";
}
);
layerId = "A2A4A5F3-E0E0-4E92-91CC-8026BABF9DB1";
paths = (
{
closed = 1;
nodes = (
"234.5 -1.5 LINE SMOOTH",
"251.5 -1.5 OFFCURVE",
"266.5 1.5 OFFCURVE",
"269 12 CURVE SMOOTH",
"363.5 365.5 LINE",
"382 478.5 LINE",
"400 365.5 LINE",
"495 12 LINE SMOOTH",
"497.5 1.5 OFFCURVE",
"512 -1.5 OFFCURVE",
"529.5 -1.5 CURVE SMOOTH",
"565 -1.5 LINE SMOOTH",
"582.5 -1.5 OFFCURVE",
"597 1.5 OFFCURVE",
"600 12 CURVE SMOOTH",
"750 582.5 LINE SMOOTH",
"751 586 OFFCURVE",
"752.5 593 OFFCURVE",
"752.5 594.5 CURVE SMOOTH",
"752.5 604 OFFCURVE",
"741.5 609.5 OFFCURVE",
"715 609.5 CURVE SMOOTH",
"710 609.5 LINE SMOOTH",
"692.5 609.5 OFFCURVE",
"678 606 OFFCURVE",
"675.5 595.5 CURVE SMOOTH",
"570.5 170 LINE",
"563.5 142.5 OFFCURVE",
"556.5 115.5 OFFCURVE",
"549.5 87.5 CURVE",
"549.5 87.5 OFFCURVE",
"542.5 137 OFFCURVE",
"534.5 167.5 CURVE SMOOTH",
"427 594.5 LINE SMOOTH",
"424.5 606 OFFCURVE",
"410.5 609.5 OFFCURVE",
"393 609.5 CURVE SMOOTH",
"379.5 609.5 LINE SMOOTH",
"362 609.5 OFFCURVE",
"348 606 OFFCURVE",
"345.5 594.5 CURVE SMOOTH",
"240.5 171 LINE",
"233.5 143 OFFCURVE",
"226.5 115.5 OFFCURVE",
"219.5 87.5 CURVE",
"218.5 90.5 OFFCURVE",
"210 145 OFFCURVE",
"204 168.5 CURVE SMOOTH",
"93.5 595.5 LINE SMOOTH",
"91 606 OFFCURVE",
"76.5 609.5 OFFCURVE",
"59 609.5 CURVE SMOOTH",
"50.5 609.5 LINE SMOOTH",
"24.5 609.5 OFFCURVE",
"13 603.5 OFFCURVE",
"13 594.5 CURVE SMOOTH",
"13 591 OFFCURVE",
"15 586 OFFCURVE",
"15.5 582.5 CURVE SMOOTH",
"164 12 LINE SMOOTH",
"166.5 1.5 OFFCURVE",
"181.5 -1.5 OFFCURVE",
"199 -1.5 CURVE SMOOTH"
);
}
);
width = 765.5;
},
{
anchors = (
{
name = top;
position = "{383, 607.5}";
}
);
layerId = "163C89DF-00F0-42B6-A1D9-DCBEB7633CF5";
paths = (
{
closed = 1;
nodes = (
"245.5 -1.5 LINE SMOOTH",
"270 -1.5 OFFCURVE",
"290 4.5 OFFCURVE",
"293.5 16.5 CURVE SMOOTH",
"367 317 LINE",
"382 376 LINE",
"396 317 LINE",
"467 16.5 LINE SMOOTH",
"469.5 4.5 OFFCURVE",
"490.5 -1.5 OFFCURVE",
"514.5 -1.5 CURVE SMOOTH",
"578 -1.5 LINE SMOOTH",
"602.5 -1.5 OFFCURVE",
"622.5 4.5 OFFCURVE",
"626 16.5 CURVE SMOOTH",
"767.5 573.5 LINE SMOOTH",
"768 579 OFFCURVE",
"769 583.5 OFFCURVE",
"769 587 CURVE SMOOTH",
"769 600.5 OFFCURVE",
"752.5 609.5 OFFCURVE",
"715 609.5 CURVE SMOOTH",
"705.5 609.5 LINE SMOOTH",
"672 609.5 OFFCURVE",
"652 600.5 OFFCURVE",
"647.5 582.5 CURVE SMOOTH",
"580 303 LINE SMOOTH",
"572 270 OFFCURVE",
"561.5 219.5 OFFCURVE",
"550.5 172 CURVE",
"540 220.5 OFFCURVE",
"528.5 270 OFFCURVE",
"521 303 CURVE SMOOTH",
"452 591 LINE SMOOTH",
"449 605 OFFCURVE",
"432.5 609.5 OFFCURVE",
"404.5 609.5 CURVE SMOOTH",
"371.5 609.5 LINE SMOOTH",
"343.5 609.5 OFFCURVE",
"327 605 OFFCURVE",
"324 591 CURVE SMOOTH",
"252.5 303 LINE SMOOTH",
"245 273.5 OFFCURVE",
"231 226.5 OFFCURVE",
"223 178 CURVE",
"212.5 226.5 OFFCURVE",
"203 273.5 OFFCURVE",
"196 303 CURVE SMOOTH",
"131 582.5 LINE SMOOTH",
"126.5 600.5 OFFCURVE",
"107 609.5 OFFCURVE",
"73 609.5 CURVE SMOOTH",
"50.5 609.5 LINE SMOOTH",
"13 609.5 OFFCURVE",
"-3.5 600.5 OFFCURVE",
"-3.5 587 CURVE SMOOTH",
"-3.5 583.5 OFFCURVE",
"-3.5 579 OFFCURVE",
"-1.5 573.5 CURVE SMOOTH",
"135.5 16.5 LINE SMOOTH",
"138 4.5 OFFCURVE",
"155.5 -1.5 OFFCURVE",
"183 -1.5 CURVE SMOOTH"
);
}
);
width = 765.5;
}
);
leftKerningGroup = V;
rightKerningGroup = V;
unicode = 0057;
},
{
glyphname = X;
lastChange = "2015-02-24 04:03:16 +0000";
layers = (
{
layerId = "A2A4A5F3-E0E0-4E92-91CC-8026BABF9DB1";
paths = (
{
closed = 1;
nodes = (
"64 -1.5 LINE SMOOTH",
"80 -1.5 OFFCURVE",
"95.5 1 OFFCURVE",
"101.5 10.5 CURVE SMOOTH",
"263 250 LINE",
"422.5 11.5 LINE SMOOTH",
"429.5 1 OFFCURVE",
"442 -1.5 OFFCURVE",
"460 -1.5 CURVE SMOOTH",
"474 -1.5 LINE SMOOTH",
"503.5 -1.5 OFFCURVE",
"514 3.5 OFFCURVE",
"514 13 CURVE SMOOTH",
"514 17.5 OFFCURVE",
"511.5 22.5 OFFCURVE",
"507 28.5 CURVE SMOOTH",
"311.5 321 LINE",
"485 579 LINE SMOOTH",
"488.5 585 OFFCURVE",
"492 590 OFFCURVE",
"492 594.5 CURVE SMOOTH",
"492 605 OFFCURVE",
"481 609.5 OFFCURVE",
"452 609.5 CURVE SMOOTH",
"447 609.5 LINE SMOOTH",
"431.5 609.5 OFFCURVE",
"416 606.5 OFFCURVE",
"409.5 597 CURVE SMOOTH",
"266.5 387 LINE",
"127.5 596.5 LINE SMOOTH",
"120.5 606.5 OFFCURVE",
"108.5 609.5 OFFCURVE",
"90.5 609.5 CURVE SMOOTH",
"78 609.5 LINE SMOOTH",
"48.5 609.5 OFFCURVE",
"38 604 OFFCURVE",
"38 594.5 CURVE SMOOTH",
"38 590 OFFCURVE",
"41 585 OFFCURVE",
"45 579 CURVE SMOOTH",
"218.5 317 LINE",
"24.5 28.5 LINE SMOOTH",
"20 22.5 OFFCURVE",
"17.5 17.5 OFFCURVE",
"17.5 13 CURVE SMOOTH",
"17.5 2.5 OFFCURVE",
"28.5 -1.5 OFFCURVE",
"57.5 -1.5 CURVE SMOOTH"
);
}
);
width = 530.5;
},
{
layerId = "163C89DF-00F0-42B6-A1D9-DCBEB7633CF5";
paths = (
{
closed = 1;
nodes = (
"94.5 -1.5 LINE SMOOTH",
"120 -1.5 OFFCURVE",
"137 -1 OFFCURVE",
"147.5 15 CURVE SMOOTH",
"267.5 201.5 LINE",
"383 15 LINE SMOOTH",
"390.5 1.5 OFFCURVE",
"409.5 -1.5 OFFCURVE",
"435 -1.5 CURVE SMOOTH",
"468.5 -1.5 LINE SMOOTH",
"507 -1.5 OFFCURVE",
"523.5 4.5 OFFCURVE",
"523.5 15 CURVE SMOOTH",
"523.5 21 OFFCURVE",
"521 28 OFFCURVE",
"515.5 36.5 CURVE SMOOTH",
"342 315 LINE",
"506 571 LINE SMOOTH",
"512 580 OFFCURVE",
"514.5 587.5 OFFCURVE",
"514.5 593 CURVE SMOOTH",
"514.5 603.5 OFFCURVE",
"497.5 609.5 OFFCURVE",
"460 609.5 CURVE SMOOTH",
"426 609.5 LINE SMOOTH",
"401 609.5 OFFCURVE",
"383 607.5 OFFCURVE",
"373 593 CURVE SMOOTH",
"269 431.5 LINE",
"170 593 LINE SMOOTH",
"162.5 606 OFFCURVE",
"143 609.5 OFFCURVE",
"118 609.5 CURVE SMOOTH",
"82.5 609.5 LINE SMOOTH",
"44.5 609.5 OFFCURVE",
"27 602.5 OFFCURVE",
"27 593 CURVE SMOOTH",
"27 587 OFFCURVE",
"30.5 580 OFFCURVE",
"35.5 571 CURVE SMOOTH",
"194.5 317 LINE",
"15.5 36.5 LINE SMOOTH",
"9.5 27 OFFCURVE",
"7 20 OFFCURVE",
"7 15 CURVE SMOOTH",
"7 4.5 OFFCURVE",
"23.5 -1.5 OFFCURVE",
"61.5 -1.5 CURVE SMOOTH"
);
}
);
width = 530.5;
}
);
unicode = 0058;
},
{
glyphname = Y;
lastChange = "2015-02-24 04:03:16 +0000";
layers = (
{
anchors = (
{
name = bottom;
position = "{242, 0}";
},
{
name = top;
position = "{243, 607.5}";
}
);
layerId = "A2A4A5F3-E0E0-4E92-91CC-8026BABF9DB1";
paths = (
{
closed = 1;
nodes = (
"245.5 -1.5 LINE SMOOTH",
"270 -1.5 OFFCURVE",
"280.5 5 OFFCURVE",
"280.5 17.5 CURVE SMOOTH",
"280.5 309 LINE",
"462.5 579 LINE SMOOTH",
"466 585 OFFCURVE",
"469.5 590 OFFCURVE",
"469.5 594.5 CURVE SMOOTH",
"469.5 604 OFFCURVE",
"460 608.5 OFFCURVE",
"435.5 609.5 CURVE",
"429.5 609.5 LINE",
"412.5 609.5 OFFCURVE",
"396.5 606.5 OFFCURVE",
"390.5 597 CURVE SMOOTH",
"245 383 LINE",
"102.5 596.5 LINE SMOOTH",
"95.5 606.5 OFFCURVE",
"83.5 609.5 OFFCURVE",
"65 609.5 CURVE SMOOTH",
"55.5 609.5 LINE SMOOTH",
"26 609.5 OFFCURVE",
"15.5 604 OFFCURVE",
"15.5 594.5 CURVE SMOOTH",
"15.5 590 OFFCURVE",
"18 585 OFFCURVE",
"22.5 579 CURVE SMOOTH",
"204 311.5 LINE",
"204 17.5 LINE SMOOTH",
"204 5 OFFCURVE",
"214.5 -1.5 OFFCURVE",
"238.5 -1.5 CURVE SMOOTH"
);
}
);
width = 485;
},
{
anchors = (
{
name = bottom;
position = "{245, 0}";
},
{
name = top;
position = "{243, 607.5}";
}
);
layerId = "163C89DF-00F0-42B6-A1D9-DCBEB7633CF5";
paths = (
{
closed = 1;
nodes = (
"258 -1.5 LINE SMOOTH",
"294.5 -1.5 OFFCURVE",
"310 8 OFFCURVE",
"310 26 CURVE SMOOTH",
"310 289 LINE",
"482.5 570.5 LINE SMOOTH",
"488 579 OFFCURVE",
"490.5 587 OFFCURVE",
"490.5 592 CURVE SMOOTH",
"490.5 602.5 OFFCURVE",
"474 609.5 OFFCURVE",
"435.5 609.5 CURVE SMOOTH",
"404.5 609.5 LINE SMOOTH",
"379.5 609.5 OFFCURVE",
"360 606 OFFCURVE",
"352.5 593 CURVE SMOOTH",
"245.5 407 LINE",
"139.5 593 LINE SMOOTH",
"132 606 OFFCURVE",
"113 609.5 OFFCURVE",
"87.5 609.5 CURVE SMOOTH",
"50.5 609.5 LINE SMOOTH",
"12 609.5 OFFCURVE",
"-5 602.5 OFFCURVE",
"-5 592 CURVE SMOOTH",
"-5 587 OFFCURVE",
"-1.5 579 OFFCURVE",
"3.5 570.5 CURVE SMOOTH",
"176 291.5 LINE",
"176 26 LINE SMOOTH",
"176 8 OFFCURVE",
"192 -1.5 OFFCURVE",
"228.5 -1.5 CURVE SMOOTH"
);
}
);
width = 485;
}
);
leftKerningGroup = Y;
rightKerningGroup = Y;
unicode = 0059;
},
{
glyphname = Z;
lastChange = "2015-02-24 04:03:16 +0000";
layers = (
{
anchors = (
{
name = bottom;
position = "{276, 0}";
},
{
name = top;
position = "{267.5, 607.5}";
}
);
layerId = "A2A4A5F3-E0E0-4E92-91CC-8026BABF9DB1";
paths = (
{
closed = 1;
nodes = (
"476.5 0 LINE SMOOTH",
"488.5 0 OFFCURVE",
"494 8.5 OFFCURVE",
"494 29.5 CURVE SMOOTH",
"494 36.5 LINE SMOOTH",
"494 57.5 OFFCURVE",
"488.5 66 OFFCURVE",
"476.5 66 CURVE SMOOTH",
"137 66 LINE",
"493 551 LINE SMOOTH",
"495 554 OFFCURVE",
"495.5 557.5 OFFCURVE",
"495.5 561.5 CURVE SMOOTH",
"495.5 580 OFFCURVE",
"482.5 607.5 OFFCURVE",
"476.5 607.5 CURVE SMOOTH",
"79 607.5 LINE SMOOTH",
"67 607.5 OFFCURVE",
"61.5 599 OFFCURVE",
"61.5 578 CURVE SMOOTH",
"61.5 571 LINE SMOOTH",
"61.5 550.5 OFFCURVE",
"67 541.5 OFFCURVE",
"79 541.5 CURVE SMOOTH",
"391.5 541.5 LINE",
"35.5 56.5 LINE SMOOTH",
"34 54 OFFCURVE",
"33 50.5 OFFCURVE",
"33 46 CURVE SMOOTH",
"33 28.5 OFFCURVE",
"45 0 OFFCURVE",
"54 0 CURVE"
);
}
);
width = 534.5;
},
{
anchors = (
{
name = bottom;
position = "{259.5, 0}";
},
{
name = top;
position = "{267.5, 607.5}";
}
);
layerId = "163C89DF-00F0-42B6-A1D9-DCBEB7633CF5";
paths = (
{
closed = 1;
nodes = (
"477.5 0 LINE SMOOTH",
"495.5 0 OFFCURVE",
"503.5 13 OFFCURVE",
"503.5 43.5 CURVE SMOOTH",
"503.5 70.5 LINE SMOOTH",
"503.5 100.5 OFFCURVE",
"495.5 113.5 OFFCURVE",
"477.5 113.5 CURVE SMOOTH",
"212.5 113.5 LINE",
"502.5 521 LINE SMOOTH",
"503.5 522.5 OFFCURVE",
"503.5 524.5 OFFCURVE",
"503.5 527.5 CURVE SMOOTH",
"503.5 550.5 OFFCURVE",
"485 607.5 OFFCURVE",
"471.5 607.5 CURVE SMOOTH",
"74.5 607.5 LINE SMOOTH",
"56.5 607.5 OFFCURVE",
"48.5 594.5 OFFCURVE",
"48.5 564 CURVE SMOOTH",
"48.5 537.5 LINE SMOOTH",
"48.5 507 OFFCURVE",
"56.5 494 OFFCURVE",
"74.5 494 CURVE SMOOTH",
"316 494 LINE",
"25 86 LINE SMOOTH",
"24.5 84 OFFCURVE",
"23.5 80.5 OFFCURVE",
"23.5 77.5 CURVE SMOOTH",
"23.5 54 OFFCURVE",
"42.5 0 OFFCURVE",
"57.5 0 CURVE"
);
}
);
width = 534.5;
}
);
unicode = 005A;
},
{
glyphname = Y.loclGUA;
lastChange = "2015-02-24 04:03:16 +0000";
layers = (
{
anchors = (
{
name = bottom;
position = "{235, 0}";
},
{
name = top;
position = "{243, 607.5}";
}
);
layerId = "A2A4A5F3-E0E0-4E92-91CC-8026BABF9DB1";
paths = (
{
closed = 1;
nodes = (
"371.5 -7 OFFCURVE",
"424.5 55.5 OFFCURVE",
"424.5 263 CURVE SMOOTH",
"424.5 590 LINE SMOOTH",
"424.5 602.5 OFFCURVE",
"414 609.5 OFFCURVE",
"389.5 609.5 CURVE SMOOTH",
"386.5 609.5 LINE SMOOTH",
"362 609.5 OFFCURVE",
"351.5 602.5 OFFCURVE",
"351.5 590 CURVE SMOOTH",
"351.5 307.5 LINE",
"320.5 270 OFFCURVE",
"276 246.5 OFFCURVE",
"233.5 246.5 CURVE SMOOTH",
"172 246.5 OFFCURVE",
"136.5 278 OFFCURVE",
"136.5 330.5 CURVE SMOOTH",
"136.5 590 LINE SMOOTH",
"136.5 602.5 OFFCURVE",
"126 609.5 OFFCURVE",
"101.5 609.5 CURVE SMOOTH",
"98 609.5 LINE SMOOTH",
"74 609.5 OFFCURVE",
"63.5 602.5 OFFCURVE",
"63.5 590 CURVE SMOOTH",
"63.5 324 LINE SMOOTH",
"63.5 236 OFFCURVE",
"120 183 OFFCURVE",
"213.5 183 CURVE SMOOTH",
"270 183 OFFCURVE",
"327 212 OFFCURVE",
"367 258.5 CURVE",
"351.5 280.5 LINE",
"351.5 266.5 LINE",
"353.5 113.5 OFFCURVE",
"323 55.5 OFFCURVE",
"242 55.5 CURVE SMOOTH",
"136.5 55.5 OFFCURVE",
"87.5 93.5 OFFCURVE",
"74.5 93.5 CURVE SMOOTH",
"71 93.5 OFFCURVE",
"66 90.5 OFFCURVE",
"66 67.5 CURVE SMOOTH",
"66 61.5 OFFCURVE",
"66 54.5 OFFCURVE",
"67 46 CURVE SMOOTH",
"70.5 23.5 OFFCURVE",
"145 -7 OFFCURVE",
"249 -7 CURVE SMOOTH"
);
}
);
width = 485;
},
{
anchors = (
{
name = bottom;
position = "{226.5, 0}";
},
{
name = top;
position = "{243, 607.5}";
}
);
layerId = "163C89DF-00F0-42B6-A1D9-DCBEB7633CF5";
paths = (
{
closed = 1;
nodes = (
"389.5 -8 OFFCURVE",
"448 80.5 OFFCURVE",
"448 257 CURVE SMOOTH",
"448 580.5 LINE SMOOTH",
"448 599 OFFCURVE",
"432.5 608.5 OFFCURVE",
"396 608.5 CURVE SMOOTH",
"371.5 608.5 LINE SMOOTH",
"335 608.5 OFFCURVE",
"319.5 599 OFFCURVE",
"319.5 580.5 CURVE SMOOTH",
"319.5 337 LINE",
"309 317 OFFCURVE",
"287.5 286.5 OFFCURVE",
"250 286.5 CURVE SMOOTH",
"199.5 286.5 OFFCURVE",
"180.5 306.5 OFFCURVE",
"180.5 340.5 CURVE SMOOTH",
"180.5 580.5 LINE SMOOTH",
"180.5 599 OFFCURVE",
"165 608.5 OFFCURVE",
"128.5 608.5 CURVE SMOOTH",
"104 608.5 LINE SMOOTH",
"67.5 608.5 OFFCURVE",
"52 599 OFFCURVE",
"52 580.5 CURVE SMOOTH",
"52 321 LINE SMOOTH",
"52 225 OFFCURVE",
"98 180.5 OFFCURVE",
"197 180.5 CURVE SMOOTH",
"263 180.5 OFFCURVE",
"317 225.5 OFFCURVE",
"337 263 CURVE",
"319.5 296 LINE",
"319.5 210 LINE SMOOTH",
"319.5 133.5 OFFCURVE",
"285.5 93.5 OFFCURVE",
"218 93.5 CURVE SMOOTH",
"134.5 93.5 OFFCURVE",
"83.5 129.5 OFFCURVE",
"70.5 129.5 CURVE SMOOTH",
"64 129.5 OFFCURVE",
"59 120.5 OFFCURVE",
"59 94.5 CURVE SMOOTH",
"59 84 OFFCURVE",
"60 70.5 OFFCURVE",
"61.5 54 CURVE SMOOTH",
"65 17.5 OFFCURVE",
"152 -8 OFFCURVE",
"254.5 -8 CURVE SMOOTH"
);
}
);
width = 485;
}
);
},
{
glyphname = a;
lastChange = "2015-02-24 04:03:16 +0000";
layers = (
{
anchors = (
{
name = bottom;
position = "{226.5, 0}";
},
{
name = ogonek;
position = "{412.5, 15}";
},
{
name = top;
position = "{237, 454}";
}
);
layerId = "A2A4A5F3-E0E0-4E92-91CC-8026BABF9DB1";
paths = (
{
closed = 1;
nodes = (
"256 -5 OFFCURVE",
"304 23.5 OFFCURVE",
"337 60 CURVE",
"342 35.5 OFFCURVE",
"346.5 -1 OFFCURVE",
"367 -1 CURVE SMOOTH",
"378.5 -1 OFFCURVE",
"414 2.5 OFFCURVE",
"414 19 CURVE SMOOTH",
"414 23.5 OFFCURVE",
"403.5 57.5 OFFCURVE",
"403.5 128.5 CURVE SMOOTH",
"403.5 323 LINE SMOOTH",
"403.5 409 OFFCURVE",
"340.5 459 OFFCURVE",
"232.5 459 CURVE SMOOTH",
"146 459 OFFCURVE",
"69.5 426 OFFCURVE",
"69.5 403.5 CURVE SMOOTH",
"69.5 394 OFFCURVE",
"87.5 360 OFFCURVE",
"100 360 CURVE SMOOTH",
"108.5 360 OFFCURVE",
"156 396.5 OFFCURVE",
"235 396.5 CURVE SMOOTH",
"307.5 396.5 OFFCURVE",
"330.5 363 OFFCURVE",
"330.5 324 CURVE SMOOTH",
"330.5 283 LINE",
"198 281 OFFCURVE",
"42.5 271.5 OFFCURVE",
"42.5 125 CURVE SMOOTH",
"42.5 35.5 OFFCURVE",
"107 -5 OFFCURVE",
"191 -5 CURVE SMOOTH"
);
},
{
closed = 1;
nodes = (
"146 58 OFFCURVE",
"120.5 83.5 OFFCURVE",
"120.5 129.5 CURVE SMOOTH",
"120.5 219.5 OFFCURVE",
"240.5 219.5 OFFCURVE",
"330.5 220.5 CURVE",
"330.5 118 LINE",
"296 87 OFFCURVE",
"258 58 OFFCURVE",
"194.5 58 CURVE SMOOTH"
);
}
);
width = 473;
},
{
anchors = (
{
name = bottom;
position = "{237, 0}";
},
{
name = ogonek;
position = "{418.5, 27}";
},
{
name = top;
position = "{237, 454}";
}
);
layerId = "163C89DF-00F0-42B6-A1D9-DCBEB7633CF5";
paths = (
{
closed = 1;
nodes = (
"245 -7 OFFCURVE",
"286.5 47.5 OFFCURVE",
"292.5 59 CURVE",
"297.5 35.5 OFFCURVE",
"299.5 -1 OFFCURVE",
"327 -1 CURVE SMOOTH",
"349 -1 OFFCURVE",
"424.5 6 OFFCURVE",
"424.5 27 CURVE SMOOTH",
"424.5 45 OFFCURVE",
"414 63.5 OFFCURVE",
"414 153 CURVE SMOOTH",
"414 316 LINE SMOOTH",
"414 400 OFFCURVE",
"364.5 461 OFFCURVE",
"227.5 461 CURVE SMOOTH",
"131 461 OFFCURVE",
"61.5 430.5 OFFCURVE",
"61.5 401 CURVE SMOOTH",
"61.5 383 OFFCURVE",
"88.5 331.5 OFFCURVE",
"107 331.5 CURVE SMOOTH",
"117 331.5 OFFCURVE",
"154.5 359.5 OFFCURVE",
"218 359.5 CURVE SMOOTH",
"265.5 359.5 OFFCURVE",
"285.5 343 OFFCURVE",
"285.5 310 CURVE SMOOTH",
"285.5 281 LINE",
"65 281 OFFCURVE",
"36.5 191 OFFCURVE",
"36.5 120 CURVE SMOOTH",
"36.5 48.5 OFFCURVE",
"71 -7 OFFCURVE",
"165 -7 CURVE SMOOTH"
);
},
{
closed = 1;
nodes = (
"179 94.5 OFFCURVE",
"164 111 OFFCURVE",
"164 133 CURVE SMOOTH",
"164 174.5 OFFCURVE",
"203 197 OFFCURVE",
"285.5 197 CURVE",
"285.5 149.5 LINE",
"271.5 118 OFFCURVE",
"240.5 94.5 OFFCURVE",
"207.5 94.5 CURVE SMOOTH"
);
}
);
width = 473;
}
);
leftKerningGroup = a;
unicode = 0061;
},
{
glyphname = ae;
lastChange = "2015-02-24 04:03:16 +0000";
layers = (
{
anchors = (
{
name = top;
position = "{360, 454}";
}
);
layerId = "A2A4A5F3-E0E0-4E92-91CC-8026BABF9DB1";
paths = (
{
closed = 1;
nodes = (
"255 -5 OFFCURVE",
"309 20 OFFCURVE",
"344.5 49.5 CURVE",
"379.5 13 OFFCURVE",
"432.5 -5 OFFCURVE",
"503.5 -5 CURVE SMOOTH",
"591 -5 OFFCURVE",
"659.5 29.5 OFFCURVE",
"659.5 50.5 CURVE SMOOTH",
"659.5 60 OFFCURVE",
"641.5 93.5 OFFCURVE",
"629.5 93.5 CURVE SMOOTH",
"620.5 93.5 OFFCURVE",
"578 57.5 OFFCURVE",
"502.5 57.5 CURVE SMOOTH",
"416.5 57.5 OFFCURVE",
"376 104 OFFCURVE",
"369 209 CURVE",
"643 209 LINE SMOOTH",
"653.5 209 OFFCURVE",
"672 234.5 OFFCURVE",
"672 245 CURVE SMOOTH",
"672 383.5 OFFCURVE",
"612 459 OFFCURVE",
"493 459 CURVE SMOOTH",
"438.5 459 OFFCURVE",
"394 445.5 OFFCURVE",
"361 417.5 CURVE",
"331.5 444.5 OFFCURVE",
"286.5 459 OFFCURVE",
"229 459 CURVE SMOOTH",
"142.5 459 OFFCURVE",
"66 426 OFFCURVE",
"66 403.5 CURVE SMOOTH",
"66 394 OFFCURVE",
"84 360 OFFCURVE",
"96.5 360 CURVE SMOOTH",
"105 360 OFFCURVE",
"153 396.5 OFFCURVE",
"232 396.5 CURVE SMOOTH",
"278.5 396.5 OFFCURVE",
"304.5 382 OFFCURVE",
"317.5 361 CURVE",
"304.5 336 OFFCURVE",
"297 305.5 OFFCURVE",
"293.5 271 CURVE",
"169.5 267.5 OFFCURVE",
"39 249 OFFCURVE",
"39 125 CURVE SMOOTH",
"39 35.5 OFFCURVE",
"103.5 -5 OFFCURVE",
"187.5 -5 CURVE SMOOTH"
);
},
{
closed = 1;
nodes = (
"142.5 58 OFFCURVE",
"117 83.5 OFFCURVE",
"117 129.5 CURVE SMOOTH",
"117 197 OFFCURVE",
"207.5 206.5 OFFCURVE",
"291 208.5 CURVE",
"291.5 167.5 OFFCURVE",
"298.5 132 OFFCURVE",
"310.5 103.5 CURVE",
"279.5 78 OFFCURVE",
"244 58 OFFCURVE",
"191 58 CURVE SMOOTH"
);
},
{
closed = 1;
nodes = (
"375 354 OFFCURVE",
"415 396.5 OFFCURVE",
"490.5 396.5 CURVE SMOOTH",
"560 396.5 OFFCURVE",
"594.5 354 OFFCURVE",
"594.5 271.5 CURVE",
"369 271.5 LINE"
);
}
);
width = 719.5;
},
{
anchors = (
{
name = top;
position = "{360, 454}";
}
);
layerId = "163C89DF-00F0-42B6-A1D9-DCBEB7633CF5";
paths = (
{
closed = 1;
nodes = (
"260.5 -7 OFFCURVE",
"316 32 OFFCURVE",
"336 52 CURVE",
"373 15 OFFCURVE",
"429 -7 OFFCURVE",
"505 -7 CURVE SMOOTH",
"554 -7 OFFCURVE",
"661.5 12 OFFCURVE",
"661.5 55.5 CURVE SMOOTH",
"661.5 73 OFFCURVE",
"635.5 121.5 OFFCURVE",
"616.5 121.5 CURVE SMOOTH",
"604 121.5 OFFCURVE",
"566 94.5 OFFCURVE",
"511.5 94.5 CURVE SMOOTH",
"461 94.5 OFFCURVE",
"413 119 OFFCURVE",
"413 194.5 CURVE",
"634.5 194.5 LINE SMOOTH",
"646 194.5 OFFCURVE",
"677 231 OFFCURVE",
"677 245.5 CURVE SMOOTH",
"677 366.5 OFFCURVE",
"626 461 OFFCURVE",
"489.5 461 CURVE SMOOTH",
"442 461 OFFCURVE",
"400 450.5 OFFCURVE",
"366.5 429.5 CURVE",
"337 449.5 OFFCURVE",
"291 461 OFFCURVE",
"226.5 461 CURVE SMOOTH",
"130 461 OFFCURVE",
"61 430.5 OFFCURVE",
"61 401 CURVE SMOOTH",
"61 383 OFFCURVE",
"87.5 331.5 OFFCURVE",
"106 331.5 CURVE SMOOTH",
"120 331.5 OFFCURVE",
"163 359.5 OFFCURVE",
"217 359.5 CURVE SMOOTH",
"251 359.5 OFFCURVE",
"281 354 OFFCURVE",
"295 336 CURVE",
"289 319.5 OFFCURVE",
"284.5 301 OFFCURVE",
"282 280.5 CURVE",
"64 279.5 OFFCURVE",
"35.5 190 OFFCURVE",
"35.5 120 CURVE SMOOTH",
"35.5 48.5 OFFCURVE",
"86 -7 OFFCURVE",
"179.5 -7 CURVE SMOOTH"
);
},
{
closed = 1;
nodes = (
"178 94.5 OFFCURVE",
"163 111 OFFCURVE",
"163 133 CURVE SMOOTH",
"163 173.5 OFFCURVE",
"200.5 194.5 OFFCURVE",
"279.5 195.5 CURVE",
"281 173.5 OFFCURVE",
"284.5 153.5 OFFCURVE",
"290 135.5 CURVE",
"273.5 108.5 OFFCURVE",
"237 94.5 OFFCURVE",
"206.5 94.5 CURVE SMOOTH"
);
},
{
closed = 1;
nodes = (
"422 347 OFFCURVE",
"460 359.5 OFFCURVE",
"489.5 359.5 CURVE SMOOTH",
"527.5 359.5 OFFCURVE",
"552 330.5 OFFCURVE",
"552 280.5 CURVE",
"411.5 280.5 LINE"
);
}
);
width = 719.5;
}
);
leftKerningGroup = a;
unicode = 00E6;
},
{
glyphname = b;
lastChange = "2015-02-24 04:03:16 +0000";
layers = (
{
layerId = "A2A4A5F3-E0E0-4E92-91CC-8026BABF9DB1";
paths = (
{
closed = 1;
nodes = (
"383 -5 OFFCURVE",
"447 92 OFFCURVE",
"447 227.5 CURVE SMOOTH",
"447 377.5 OFFCURVE",
"374 459 OFFCURVE",
"271 459 CURVE SMOOTH",
"217 459 OFFCURVE",
"180.5 441 OFFCURVE",
"146.5 415 CURVE",
"146.5 633.5 LINE SMOOTH",
"146.5 646 OFFCURVE",
"136.5 652.5 OFFCURVE",
"112 652.5 CURVE SMOOTH",
"108.5 652.5 LINE SMOOTH",
"84 652.5 OFFCURVE",
"74 646 OFFCURVE",
"74 633.5 CURVE SMOOTH",
"74 17.5 LINE SMOOTH",
"74 5 OFFCURVE",
"81.5 -1.5 OFFCURVE",
"100 -1.5 CURVE SMOOTH",
"103.5 -1.5 LINE SMOOTH",
"115.5 -1.5 OFFCURVE",
"123.5 1 OFFCURVE",
"126.5 8.5 CURVE",
"133.5 26 OFFCURVE",
"138 42.5 OFFCURVE",
"140.5 60 CURVE",
"183 15.5 OFFCURVE",
"229 -5 OFFCURVE",
"278.5 -5 CURVE SMOOTH"
);
},
{
closed = 1;
nodes = (
"225.5 58 OFFCURVE",
"182.5 79 OFFCURVE",
"146.5 118 CURVE",
"146.5 356 LINE",
"178 382 OFFCURVE",
"217 395 OFFCURVE",
"254.5 395 CURVE SMOOTH",
"331.5 393 OFFCURVE",
"370.5 337 OFFCURVE",
"370.5 233.5 CURVE SMOOTH",
"370.5 121.5 OFFCURVE",
"332.5 58 OFFCURVE",
"264 58 CURVE SMOOTH"
);
}
);
width = 494;
},
{
layerId = "163C89DF-00F0-42B6-A1D9-DCBEB7633CF5";
paths = (
{
closed = 1;
nodes = (
"389 -7 OFFCURVE",
"457.5 76.5 OFFCURVE",
"457.5 227.5 CURVE SMOOTH",
"457.5 369 OFFCURVE",
"391.5 461 OFFCURVE",
"274.5 461 CURVE SMOOTH",
"233.5 461 OFFCURVE",
"204 447 OFFCURVE",
"186 434 CURVE",
"186 626.5 LINE SMOOTH",
"186 645 OFFCURVE",
"170 654.5 OFFCURVE",
"133.5 654.5 CURVE SMOOTH",
"109.5 654.5 LINE SMOOTH",
"73 654.5 OFFCURVE",
"57.5 645 OFFCURVE",
"57.5 626.5 CURVE SMOOTH",
"57.5 26 LINE SMOOTH",
"57.5 8 OFFCURVE",
"73 -1.5 OFFCURVE",
"109.5 -1.5 CURVE SMOOTH",
"120 -1.5 LINE SMOOTH",
"147.5 -1.5 OFFCURVE",
"165 1.5 OFFCURVE",
"170 21 CURVE SMOOTH",
"173.5 33 OFFCURVE",
"176 46 OFFCURVE",
"179 58 CURVE",
"199 21 OFFCURVE",
"241.5 -7 OFFCURVE",
"295 -7 CURVE SMOOTH"
);
},
{
closed = 1;
nodes = (
"224 98 OFFCURVE",
"201.5 122.5 OFFCURVE",
"186 149.5 CURVE",
"186 343 LINE",
"199.5 350.5 OFFCURVE",
"219.5 359.5 OFFCURVE",
"246.5 359.5 CURVE SMOOTH",
"301 359.5 OFFCURVE",
"327 314 OFFCURVE",
"327 227.5 CURVE SMOOTH",
"327 143 OFFCURVE",
"304.5 98 OFFCURVE",
"257 98 CURVE SMOOTH"
);
}
);
width = 494;
}
);
unicode = 0062;
},
{
glyphname = c;
lastChange = "2015-02-24 04:03:16 +0000";
layers = (
{
anchors = (
{
name = bottom;
position = "{248, 0}";
},
{
name = top;
position = "{240.5, 454}";
}
);
layerId = "A2A4A5F3-E0E0-4E92-91CC-8026BABF9DB1";
paths = (
{
closed = 1;
nodes = (
"334 -5 OFFCURVE",
"395 19 OFFCURVE",
"395 39 CURVE SMOOTH",
"395 51 OFFCURVE",
"377.5 83.5 OFFCURVE",
"365.5 83.5 CURVE SMOOTH",
"364.5 83.5 OFFCURVE",
"361 81.5 OFFCURVE",
"356 80 CURVE",
"340.5 72 OFFCURVE",
"306.5 57.5 OFFCURVE",
"258 57.5 CURVE SMOOTH",
"159.5 57.5 OFFCURVE",
"123.5 109.5 OFFCURVE",
"123.5 231 CURVE SMOOTH",
"123.5 351.5 OFFCURVE",
"172.5 396.5 OFFCURVE",
"249 396.5 CURVE SMOOTH",
"296 396.5 OFFCURVE",
"328 383 OFFCURVE",
"343.5 376 CURVE SMOOTH",
"349 374 OFFCURVE",
"351.5 372.5 OFFCURVE",
"353.5 372.5 CURVE SMOOTH",
"364.5 372.5 OFFCURVE",
"381 405.5 OFFCURVE",
"381 419 CURVE SMOOTH",
"381 440 OFFCURVE",
"317.5 459 OFFCURVE",
"251 459 CURVE SMOOTH",
"151 459 OFFCURVE",
"45 410.5 OFFCURVE",
"45 229 CURVE SMOOTH",
"45 61.5 OFFCURVE",
"118 -5 OFFCURVE",
"258.5 -5 CURVE SMOOTH"
);
}
);
width = 421;
},
{
anchors = (
{
name = bottom;
position = "{253.5, 0}";
},
{
name = top;
position = "{238.5, 454}";
}
);
layerId = "163C89DF-00F0-42B6-A1D9-DCBEB7633CF5";
paths = (
{
closed = 1;
nodes = (
"284 -7 OFFCURVE",
"407 5 OFFCURVE",
"407 54 CURVE SMOOTH",
"407 71 OFFCURVE",
"381 120 OFFCURVE",
"362 120 CURVE SMOOTH",
"358.5 120 OFFCURVE",
"353.5 117 OFFCURVE",
"346.5 114.5 CURVE SMOOTH",
"330 107 OFFCURVE",
"302 94.5 OFFCURVE",
"261.5 94.5 CURVE SMOOTH",
"195.5 94.5 OFFCURVE",
"168.5 138 OFFCURVE",
"168.5 227.5 CURVE SMOOTH",
"168.5 316 OFFCURVE",
"197 359.5 OFFCURVE",
"266.5 359.5 CURVE SMOOTH",
"303 359.5 OFFCURVE",
"326.5 348 OFFCURVE",
"342 340.5 CURVE SMOOTH",
"349 337 OFFCURVE",
"354 334 OFFCURVE",
"357.5 334 CURVE SMOOTH",
"372.5 334 OFFCURVE",
"403.5 384.5 OFFCURVE",
"403.5 401 CURVE SMOOTH",
"403.5 441 OFFCURVE",
"321 461 OFFCURVE",
"259.5 461 CURVE SMOOTH",
"104 461 OFFCURVE",
"36.5 378.5 OFFCURVE",
"36.5 224 CURVE SMOOTH",
"36.5 68.5 OFFCURVE",
"107 -7 OFFCURVE",
"255 -7 CURVE SMOOTH"
);
}
);
width = 421;
}
);
leftKerningGroup = c;
unicode = 0063;
},
{
glyphname = d;
lastChange = "2015-02-24 04:03:16 +0000";
layers = (
{
anchors = (
{
name = bottom;
position = "{244, 0}";
},
{
name = caron;
position = "{417.5, 607.5}";
},
{
name = center;
position = "{365.5, 547}";
}
);
hints = (
{
horizontal = 1;
origin = "{0, 29}";
target = "{1, 12}";
type = Stem;
},
{
horizontal = 1;
origin = "{0, 23}";
target = "{1, 5}";
type = Stem;
},
{
horizontal = 1;
origin = "{0, 16}";
target = down;
type = TopGhost;
},
{
horizontal = 1;
origin = "{0, 5}";
target = up;
type = BottomGhost;
},
{
origin = "{0, 26}";
target = "{1, 2}";
type = Stem;
},
{
origin = "{1, 9}";
target = "{0, 11}";
type = Stem;
},
{
horizontal = 1;
origin = "{1, 12}";
target = "{1, 5}";
other1 = "{1, 9}";
type = Interpolate;
}
);
layerId = "A2A4A5F3-E0E0-4E92-91CC-8026BABF9DB1";
paths = (
{
closed = 1;
nodes = (
"263 -5 OFFCURVE",
"309 15.5 OFFCURVE",
"351.5 60 CURVE",
"356.5 35.5 OFFCURVE",
"361 -1 OFFCURVE",
"382 -1 CURVE SMOOTH",
"393 -1 OFFCURVE",
"429 2.5 OFFCURVE",
"429 19 CURVE SMOOTH",
"429 23.5 OFFCURVE",
"418.5 57.5 OFFCURVE",
"418.5 128.5 CURVE SMOOTH",
"418.5 633.5 LINE SMOOTH",
"418.5 646 OFFCURVE",
"408 652.5 OFFCURVE",
"383.5 652.5 CURVE SMOOTH",
"380 652.5 LINE SMOOTH",
"356 652.5 OFFCURVE",
"345.5 646 OFFCURVE",
"345.5 633.5 CURVE SMOOTH",
"345.5 415 LINE",
"311.5 441 OFFCURVE",
"275 459 OFFCURVE",
"221.5 459 CURVE SMOOTH",
"118 459 OFFCURVE",
"45 377.5 OFFCURVE",
"45 226.5 CURVE SMOOTH",
"45 92 OFFCURVE",
"109.5 -5 OFFCURVE",
"213.5 -5 CURVE SMOOTH"
);
},
{
closed = 1;
nodes = (
"159.5 58 OFFCURVE",
"121.5 121.5 OFFCURVE",
"121.5 233.5 CURVE SMOOTH",
"121.5 337 OFFCURVE",
"160.5 393 OFFCURVE",
"238.5 395 CURVE SMOOTH",
"278 395 OFFCURVE",
"314 382 OFFCURVE",
"345.5 356 CURVE",
"345.5 118 LINE",
"310 79 OFFCURVE",
"266.5 58 OFFCURVE",
"228.5 58 CURVE SMOOTH"
);
}
);
width = 490.5;
},
{
anchors = (
{
name = bottom;
position = "{252.5, 0}";
},
{
name = caron;
position = "{432.5, 607.5}";
},
{
name = center;
position = "{362, 547}";
}
);
hints = (
{
horizontal = 1;
origin = "{0, 5}";
target = up;
type = BottomGhost;
},
{
horizontal = 1;
origin = "{0, 23}";
target = "{1, 5}";
type = Stem;
},
{
horizontal = 1;
origin = "{0, 16}";
target = down;
type = TopGhost;
},
{
horizontal = 1;
origin = "{0, 29}";
target = "{1, 12}";
type = Stem;
},
{
origin = "{0, 26}";
target = "{1, 2}";
type = Stem;
},
{
origin = "{1, 9}";
target = "{0, 11}";
type = Stem;
},
{
horizontal = 1;
origin = "{1, 5}";
target = "{1, 12}";
other1 = "{1, 9}";
type = Interpolate;
}
);
layerId = "163C89DF-00F0-42B6-A1D9-DCBEB7633CF5";
paths = (
{
closed = 1;
nodes = (
"252.5 -7 OFFCURVE",
"295 21 OFFCURVE",
"315 58 CURVE",
"320.5 35.5 OFFCURVE",
"322 -1 OFFCURVE",
"350 -1 CURVE SMOOTH",
"371.5 -1 OFFCURVE",
"447 6 OFFCURVE",
"447 27 CURVE SMOOTH",
"447 45 OFFCURVE",
"436.5 63.5 OFFCURVE",
"436.5 153 CURVE SMOOTH",
"436.5 626.5 LINE SMOOTH",
"436.5 645 OFFCURVE",
"421 654.5 OFFCURVE",
"384.5 654.5 CURVE SMOOTH",
"360 654.5 LINE SMOOTH",
"324 654.5 OFFCURVE",
"308 645 OFFCURVE",
"308 626.5 CURVE SMOOTH",
"308 434 LINE",
"290 447 OFFCURVE",
"260.5 461 OFFCURVE",
"219.5 461 CURVE SMOOTH",
"102.5 461 OFFCURVE",
"36.5 369 OFFCURVE",
"36.5 227.5 CURVE SMOOTH",
"36.5 76.5 OFFCURVE",
"105 -7 OFFCURVE",
"199 -7 CURVE SMOOTH"
);
},
{
closed = 1;
nodes = (
"189 98 OFFCURVE",
"166.5 143 OFFCURVE",
"166.5 227.5 CURVE SMOOTH",
"166.5 314 OFFCURVE",
"192.5 359.5 OFFCURVE",
"247.5 359.5 CURVE SMOOTH",
"274.5 359.5 OFFCURVE",
"294.5 350.5 OFFCURVE",
"308 343 CURVE",
"308 149.5 LINE",
"292.5 122.5 OFFCURVE",
"270 98 OFFCURVE",
"237 98 CURVE SMOOTH"
);
}
);
width = 490.5;
}
);
leftKerningGroup = d;
unicode = 0064;
},
{
glyphname = eth;
lastChange = "2015-02-24 04:03:16 +0000";
layers = (
{
layerId = "A2A4A5F3-E0E0-4E92-91CC-8026BABF9DB1";
paths = (
{
closed = 1;
nodes = (
"378.5 -5 OFFCURVE",
"446 74.5 OFFCURVE",
"446 225 CURVE SMOOTH",
"446 337.5 OFFCURVE",
"405.5 445.5 OFFCURVE",
"347 536.5 CURVE",
"399.5 543.5 LINE SMOOTH",
"408 544 OFFCURVE",
"412.5 548.5 OFFCURVE",
"412.5 554.5 CURVE SMOOTH",
"412.5 559 OFFCURVE",
"407 582.5 OFFCURVE",
"390.5 582.5 CURVE SMOOTH",
"389.5 582.5 OFFCURVE",
"389 582.5 OFFCURVE",
"323 573 CURVE",
"311.5 588.5 OFFCURVE",
"303 599 OFFCURVE",
"294.5 609.5 CURVE SMOOTH",
"289 615.5 OFFCURVE",
"282 620 OFFCURVE",
"271.5 620 CURVE SMOOTH",
"262 620 OFFCURVE",
"254.5 619 OFFCURVE",
"248 618 CURVE SMOOTH",
"238.5 616.5 OFFCURVE",
"234.5 612 OFFCURVE",
"234.5 606 CURVE SMOOTH",
"234.5 597 OFFCURVE",
"244 583.5 OFFCURVE",
"257 564 CURVE",
"194.5 555.5 LINE SMOOTH",
"186 554 OFFCURVE",
"181.5 550.5 OFFCURVE",
"181.5 544 CURVE SMOOTH",
"181.5 532 OFFCURVE",
"192 516.5 OFFCURVE",
"204 516.5 CURVE SMOOTH",
"205.5 516.5 OFFCURVE",
"207.5 517.5 OFFCURVE",
"278.5 527 CURVE",
"291.5 504.5 OFFCURVE",
"305.5 477.5 OFFCURVE",
"318.5 449 CURVE",
"297.5 455.5 OFFCURVE",
"274.5 459 OFFCURVE",
"249 459 CURVE SMOOTH",
"120 459 OFFCURVE",
"47.5 375 OFFCURVE",
"47.5 225 CURVE SMOOTH",
"47.5 75.5 OFFCURVE",
"118 -5 OFFCURVE",
"249 -5 CURVE SMOOTH"
);
},
{
closed = 1;
nodes = (
"161.5 57.5 OFFCURVE",
"122.5 111 OFFCURVE",
"122.5 226.5 CURVE SMOOTH",
"122.5 343 OFFCURVE",
"162.5 396.5 OFFCURVE",
"246.5 396.5 CURVE SMOOTH",
"331.5 396.5 OFFCURVE",
"370.5 342 OFFCURVE",
"370.5 226.5 CURVE SMOOTH",
"370.5 111 OFFCURVE",
"331.5 57.5 OFFCURVE",
"246.5 57.5 CURVE SMOOTH"
);
}
);
width = 494;
},
{
layerId = "163C89DF-00F0-42B6-A1D9-DCBEB7633CF5";
paths = (
{
closed = 1;
nodes = (
"385.5 -7 OFFCURVE",
"457.5 76.5 OFFCURVE",
"457.5 227.5 CURVE SMOOTH",
"457.5 344.5 OFFCURVE",
"414 459 OFFCURVE",
"370.5 526 CURVE",
"410.5 531 LINE SMOOTH",
"422.5 533 OFFCURVE",
"429 537.5 OFFCURVE",
"429 545 CURVE SMOOTH",
"429 562.5 OFFCURVE",
"411.5 581.5 OFFCURVE",
"396.5 581.5 CURVE SMOOTH",
"396 581.5 OFFCURVE",
"395 581.5 OFFCURVE",
"337.5 573.5 CURVE",
"325.5 589.5 OFFCURVE",
"315 602.5 OFFCURVE",
"303 611 CURVE SMOOTH",
"293.5 617 OFFCURVE",
"283 620.5 OFFCURVE",
"270 620.5 CURVE",
"251.5 619 OFFCURVE",
"234.5 616.5 OFFCURVE",
"216 614.5 CURVE SMOOTH",
"205 613 OFFCURVE",
"199.5 609.5 OFFCURVE",
"199.5 604 CURVE SMOOTH",
"199.5 597 OFFCURVE",
"221.5 574.5 OFFCURVE",
"232.5 560 CURVE",
"195.5 554.5 LINE SMOOTH",
"182.5 553 OFFCURVE",
"177 548.5 OFFCURVE",
"177 541 CURVE SMOOTH",
"177 522.5 OFFCURVE",
"193.5 504.5 OFFCURVE",
"211 504.5 CURVE SMOOTH",
"213.5 504.5 OFFCURVE",
"216 504.5 OFFCURVE",
"264 511.5 CURVE",
"273.5 495 OFFCURVE",
"283 477.5 OFFCURVE",
"291.5 457.5 CURVE",
"278 459 OFFCURVE",
"263 461 OFFCURVE",
"247.5 461 CURVE SMOOTH",
"109.5 461 OFFCURVE",
"36.5 378.5 OFFCURVE",
"36.5 227.5 CURVE SMOOTH",
"36.5 76.5 OFFCURVE",
"109.5 -7 OFFCURVE",
"247.5 -7 CURVE SMOOTH"
);
},
{
closed = 1;
nodes = (
"192 94.5 OFFCURVE",
"166.5 140.5 OFFCURVE",
"166.5 227.5 CURVE SMOOTH",
"166.5 314 OFFCURVE",
"192 359.5 OFFCURVE",
"247.5 359.5 CURVE SMOOTH",
"303 359.5 OFFCURVE",
"327 314 OFFCURVE",
"327 227.5 CURVE SMOOTH",
"327 140.5 OFFCURVE",
"303 94.5 OFFCURVE",
"247.5 94.5 CURVE SMOOTH"
);
}
);
width = 494;
}
);
unicode = 00F0;
},
{
glyphname = e;
lastChange = "2015-02-24 04:03:16 +0000";
layers = (
{
anchors = (
{
name = bottom;
position = "{234.5, 0}";
},
{
name = ogonek;
position = "{376, 8.5}";
},
{
name = top;
position = "{234.5, 454}";
}
);
layerId = "A2A4A5F3-E0E0-4E92-91CC-8026BABF9DB1";
paths = (
{
closed = 1;
nodes = (
"348 -5 OFFCURVE",
"416.5 29.5 OFFCURVE",
"416.5 50.5 CURVE SMOOTH",
"416.5 60 OFFCURVE",
"398.5 93.5 OFFCURVE",
"386.5 93.5 CURVE SMOOTH",
"377.5 93.5 OFFCURVE",
"335 57.5 OFFCURVE",
"259.5 57.5 CURVE SMOOTH",
"173.5 57.5 OFFCURVE",
"133 100.5 OFFCURVE",
"126 197 CURVE",
"400 197 LINE SMOOTH",
"410.5 197 OFFCURVE",
"429 222 OFFCURVE",
"429 232.5 CURVE SMOOTH",
"429 380 OFFCURVE",
"369 459 OFFCURVE",
"250 459 CURVE SMOOTH",
"117 459 OFFCURVE",
"47.5 377.5 OFFCURVE",
"47.5 224 CURVE SMOOTH",
"47.5 68.5 OFFCURVE",
"116.5 -5 OFFCURVE",
"260.5 -5 CURVE SMOOTH"
);
},
{
closed = 1;
nodes = (
"132 350.5 OFFCURVE",
"172 396.5 OFFCURVE",
"247.5 396.5 CURVE SMOOTH",
"317 396.5 OFFCURVE",
"351.5 350.5 OFFCURVE",
"351.5 259.5 CURVE",
"126 259.5 LINE"
);
}
);
width = 468;
},
{
anchors = (
{
name = bottom;
position = "{234.5, 0}";
},
{
name = ogonek;
position = "{379.5, 12}";
},
{
name = top;
position = "{234.5, 454}";
}
);
layerId = "163C89DF-00F0-42B6-A1D9-DCBEB7633CF5";
paths = (
{
closed = 1;
nodes = (
"311.5 -7 OFFCURVE",
"419 12 OFFCURVE",
"419 55.5 CURVE SMOOTH",
"419 73 OFFCURVE",
"393 121.5 OFFCURVE",
"374 121.5 CURVE SMOOTH",
"362 121.5 OFFCURVE",
"324 94.5 OFFCURVE",
"269 94.5 CURVE SMOOTH",
"212.5 94.5 OFFCURVE",
"175.5 116.5 OFFCURVE",
"169.5 186 CURVE",
"390.5 186 LINE SMOOTH",
"402 186 OFFCURVE",
"435 222 OFFCURVE",
"435 237 CURVE SMOOTH",
"435 357.5 OFFCURVE",
"383.5 461 OFFCURVE",
"247.5 461 CURVE SMOOTH",
"123.5 461 OFFCURVE",
"36.5 395 OFFCURVE",
"36.5 224 CURVE SMOOTH",
"36.5 84 OFFCURVE",
"106 -7 OFFCURVE",
"263 -7 CURVE SMOOTH"
);
},
{
closed = 1;
nodes = (
"179.5 338.5 OFFCURVE",
"211 359.5 OFFCURVE",
"247.5 359.5 CURVE SMOOTH",
"291 359.5 OFFCURVE",
"310 322 OFFCURVE",
"310 271.5 CURVE",
"169.5 271.5 LINE"
);
}
);
width = 468;
}
);
leftKerningGroup = e;
unicode = 0065;
},
{
glyphname = f;
lastChange = "2015-02-24 04:03:16 +0000";
layers = (
{
layerId = "A2A4A5F3-E0E0-4E92-91CC-8026BABF9DB1";
paths = (
{
closed = 1;
nodes = (
"132 -1.5 LINE SMOOTH",
"156 -1.5 OFFCURVE",
"166.5 5 OFFCURVE",
"166.5 17.5 CURVE SMOOTH",
"166.5 391.5 LINE",
"242 391.5 LINE SMOOTH",
"254.5 391.5 OFFCURVE",
"259.5 399.5 OFFCURVE",
"259.5 417.5 CURVE SMOOTH",
"259.5 428 LINE SMOOTH",
"259.5 446 OFFCURVE",
"254.5 454 OFFCURVE",
"242 454 CURVE SMOOTH",
"166.5 454 LINE",
"166.5 529.5 LINE SMOOTH",
"166.5 587 OFFCURVE",
"188.5 593.5 OFFCURVE",
"213.5 593.5 CURVE SMOOTH",
"238.5 593.5 OFFCURVE",
"243 589.5 OFFCURVE",
"251 589.5 CURVE SMOOTH",
"263 589.5 OFFCURVE",
"269 623 OFFCURVE",
"269 630 CURVE SMOOTH",
"269 653.5 OFFCURVE",
"229 656 OFFCURVE",
"205.5 656 CURVE SMOOTH",
"162.5 656 OFFCURVE",
"93.5 639.5 OFFCURVE",
"93.5 536.5 CURVE SMOOTH",
"93.5 454 LINE",
"59 454 LINE SMOOTH",
"47 454 OFFCURVE",
"41.5 446 OFFCURVE",
"41.5 428 CURVE SMOOTH",
"41.5 417.5 LINE SMOOTH",
"41.5 399.5 OFFCURVE",
"47 391.5 OFFCURVE",
"59 391.5 CURVE SMOOTH",
"93.5 391.5 LINE",
"93.5 17.5 LINE SMOOTH",
"93.5 5 OFFCURVE",
"104 -1.5 OFFCURVE",
"128.5 -1.5 CURVE SMOOTH"
);
}
);
width = 282;
},
{
layerId = "163C89DF-00F0-42B6-A1D9-DCBEB7633CF5";
paths = (
{
closed = 1;
nodes = (
"145 -1.5 LINE SMOOTH",
"181.5 -1.5 OFFCURVE",
"197 8 OFFCURVE",
"197 26 CURVE SMOOTH",
"197 352.5 LINE",
"240.5 352.5 LINE SMOOTH",
"258.5 352.5 OFFCURVE",
"266.5 365.5 OFFCURVE",
"266.5 396 CURVE SMOOTH",
"266.5 410.5 LINE SMOOTH",
"266.5 441 OFFCURVE",
"258.5 454 OFFCURVE",
"240.5 454 CURVE SMOOTH",
"197 454 LINE",
"197 521 LINE SMOOTH",
"197 547 OFFCURVE",
"205.5 558 OFFCURVE",
"228.5 558 CURVE SMOOTH",
"237 558 OFFCURVE",
"249 554.5 OFFCURVE",
"255 554.5 CURVE SMOOTH",
"272.5 554.5 OFFCURVE",
"282 610 OFFCURVE",
"282 617 CURVE SMOOTH",
"282 657 OFFCURVE",
"223 659.5 OFFCURVE",
"195.5 659.5 CURVE SMOOTH",
"113.5 659.5 OFFCURVE",
"68.5 615.5 OFFCURVE",
"68.5 519 CURVE SMOOTH",
"68.5 454 LINE",
"53 454 LINE SMOOTH",
"34.5 454 OFFCURVE",
"27 441 OFFCURVE",
"27 410.5 CURVE SMOOTH",
"27 396 LINE SMOOTH",
"27 365.5 OFFCURVE",
"34.5 352.5 OFFCURVE",
"53 352.5 CURVE SMOOTH",
"68.5 352.5 LINE",
"68.5 26 LINE SMOOTH",
"68.5 8 OFFCURVE",
"84 -1.5 OFFCURVE",
"120.5 -1.5 CURVE SMOOTH"
);
}
);
width = 282;
}
);
unicode = 0066;
},
{
glyphname = g;
lastChange = "2015-02-24 04:03:16 +0000";
layers = (
{
anchors = (
{
name = top;
position = "{237, 454}";
}
);
layerId = "A2A4A5F3-E0E0-4E92-91CC-8026BABF9DB1";
paths = (
{
closed = 1;
nodes = (
"350 -184 OFFCURVE",
"417.5 -136.5 OFFCURVE",
"417.5 -53 CURVE SMOOTH",
"417.5 27 OFFCURVE",
"352.5 42.5 OFFCURVE",
"286.5 51 CURVE SMOOTH",
"217 60 OFFCURVE",
"146.5 60 OFFCURVE",
"146.5 115.5 CURVE SMOOTH",
"146.5 159 OFFCURVE",
"177 173.5 OFFCURVE",
"229 175.5 CURVE SMOOTH",
"341 175.5 OFFCURVE",
"400 238 OFFCURVE",
"400 317.5 CURVE SMOOTH",
"400 344.5 OFFCURVE",
"392.5 371.5 OFFCURVE",
"377.5 392.5 CURVE",
"378.5 394 LINE",
"395 392.5 OFFCURVE",
"411.5 391.5 OFFCURVE",
"439 391.5 CURVE SMOOTH",
"451.5 391.5 OFFCURVE",
"456.5 399.5 OFFCURVE",
"456.5 417.5 CURVE SMOOTH",
"456.5 428 LINE SMOOTH",
"456.5 446 OFFCURVE",
"451.5 454 OFFCURVE",
"439 454 CURVE SMOOTH",
"281 454 LINE",
"265.5 457.5 OFFCURVE",
"248 459 OFFCURVE",
"230 459 CURVE SMOOTH",
"118 459 OFFCURVE",
"59 396.5 OFFCURVE",
"59 317.5 CURVE SMOOTH",
"59 265.5 OFFCURVE",
"84 219.5 OFFCURVE",
"133.5 195.5 CURVE",
"102.5 173.5 OFFCURVE",
"85 144 OFFCURVE",
"85 105 CURVE SMOOTH",
"85 72 OFFCURVE",
"99 50.5 OFFCURVE",
"120 34 CURVE",
"119 32 LINE",
"74.5 14 OFFCURVE",
"40 -23.5 OFFCURVE",
"40 -76.5 CURVE SMOOTH",
"40 -154.5 OFFCURVE",
"115.5 -184 OFFCURVE",
"219.5 -184 CURVE SMOOTH"
);
},
{
closed = 1;
nodes = (
"173.5 -125 OFFCURVE",
"105 -115.5 OFFCURVE",
"105 -62.5 CURVE SMOOTH",
"105 -26 OFFCURVE",
"131 -5 OFFCURVE",
"162.5 8 CURVE",
"227.5 -12 OFFCURVE",
"348 4.5 OFFCURVE",
"348 -61 CURVE SMOOTH",
"348 -104 OFFCURVE",
"310 -125 OFFCURVE",
"229 -125 CURVE SMOOTH"
);
},
{
closed = 1;
nodes = (
"172 233.5 OFFCURVE",
"126 253.5 OFFCURVE",
"126 317 CURVE SMOOTH",
"126 381 OFFCURVE",
"172 401 OFFCURVE",
"229 401 CURVE SMOOTH",
"286.5 401 OFFCURVE",
"333.5 381 OFFCURVE",
"333.5 317 CURVE SMOOTH",
"333.5 253.5 OFFCURVE",
"286.5 233.5 OFFCURVE",
"229 233.5 CURVE SMOOTH"
);
}
);
width = 474;
},
{
anchors = (
{
name = top;
position = "{237, 454}";
}
);
layerId = "163C89DF-00F0-42B6-A1D9-DCBEB7633CF5";
paths = (
{
closed = 1;
nodes = (
"362 -184 OFFCURVE",
"451.5 -126 OFFCURVE",
"451.5 -36.5 CURVE SMOOTH",
"451.5 50.5 OFFCURVE",
"383.5 76.5 OFFCURVE",
"317 89.5 CURVE SMOOTH",
"251.5 100.5 OFFCURVE",
"188.5 100.5 OFFCURVE",
"188.5 129.5 CURVE SMOOTH",
"188.5 145 OFFCURVE",
"205.5 153 OFFCURVE",
"241.5 153 CURVE SMOOTH",
"340.5 153 OFFCURVE",
"418.5 198 OFFCURVE",
"418.5 306.5 CURVE SMOOTH",
"418.5 323 OFFCURVE",
"412.5 344.5 OFFCURVE",
"404.5 355 CURVE",
"406 358.5 LINE",
"414 356.5 OFFCURVE",
"437.5 355 OFFCURVE",
"443.5 355 CURVE SMOOTH",
"457.5 355 OFFCURVE",
"464.5 367 OFFCURVE",
"464.5 396 CURVE SMOOTH",
"464.5 410.5 LINE SMOOTH",
"464.5 441 OFFCURVE",
"456.5 454 OFFCURVE",
"438.5 454 CURVE SMOOTH",
"298.5 454 LINE",
"278 458.5 OFFCURVE",
"255 461 OFFCURVE",
"232 461 CURVE SMOOTH",
"128.5 461 OFFCURVE",
"45 418.5 OFFCURVE",
"45 306.5 CURVE SMOOTH",
"45 242 OFFCURVE",
"73 200.5 OFFCURVE",
"115.5 177 CURVE",
"82.5 159.5 OFFCURVE",
"63.5 134.5 OFFCURVE",
"63.5 105 CURVE SMOOTH",
"63.5 76.5 OFFCURVE",
"76.5 52 OFFCURVE",
"100.5 40 CURVE",
"100 36.5 LINE",
"48.5 16.5 OFFCURVE",
"21 -19 OFFCURVE",
"21 -64 CURVE SMOOTH",
"21 -143 OFFCURVE",
"87.5 -184 OFFCURVE",
"227.5 -184 CURVE SMOOTH"
);
},
{
closed = 1;
nodes = (
"172.5 -82.5 OFFCURVE",
"146 -67 OFFCURVE",
"146 -43.5 CURVE SMOOTH",
"146 -26 OFFCURVE",
"162.5 -7 OFFCURVE",
"192.5 3.5 CURVE",
"291.5 -3.5 OFFCURVE",
"326.5 -13 OFFCURVE",
"326.5 -40 CURVE SMOOTH",
"326.5 -66 OFFCURVE",
"297 -82.5 OFFCURVE",
"237 -82.5 CURVE SMOOTH"
);
},
{
closed = 1;
nodes = (
"196 245.5 OFFCURVE",
"166.5 263 OFFCURVE",
"166.5 306.5 CURVE SMOOTH",
"166.5 350 OFFCURVE",
"196 368 OFFCURVE",
"232 368 CURVE SMOOTH",
"267.5 368 OFFCURVE",
"297 350 OFFCURVE",
"297 306.5 CURVE SMOOTH",
"297 263 OFFCURVE",
"267.5 245.5 OFFCURVE",
"232 245.5 CURVE SMOOTH"
);
}
);
width = 474;
}
);
unicode = 0067;
},
{
glyphname = h;
lastChange = "2015-02-24 04:03:16 +0000";
layers = (
{
anchors = (
{
name = bottom;
position = "{245, 0}";
},
{
name = center;
position = "{149.5, 547}";
},
{
name = top;
position = "{116.5, 633.5}";
}
);
layerId = "A2A4A5F3-E0E0-4E92-91CC-8026BABF9DB1";
paths = (
{
closed = 1;
nodes = (
"118 -1.5 LINE SMOOTH",
"142.5 -1.5 OFFCURVE",
"153 5 OFFCURVE",
"153 17.5 CURVE SMOOTH",
"153 335 LINE",
"153 335 OFFCURVE",
"197 396 OFFCURVE",
"262 396 CURVE SMOOTH",
"321 396 OFFCURVE",
"350.5 363 OFFCURVE",
"350.5 311.5 CURVE SMOOTH",
"350.5 17.5 LINE SMOOTH",
"350.5 5 OFFCURVE",
"361 -1.5 OFFCURVE",
"385.5 -1.5 CURVE SMOOTH",
"389 -1.5 LINE SMOOTH",
"413 -1.5 OFFCURVE",
"423.5 5 OFFCURVE",
"423.5 17.5 CURVE SMOOTH",
"423.5 318.5 LINE SMOOTH",
"423.5 436.5 OFFCURVE",
"341 459 OFFCURVE",
"285.5 459 CURVE SMOOTH",
"230 459 OFFCURVE",
"183 429.5 OFFCURVE",
"153 399.5 CURVE",
"153 633.5 LINE SMOOTH",
"153 646 OFFCURVE",
"142.5 652.5 OFFCURVE",
"118 652.5 CURVE SMOOTH",
"114.5 652.5 LINE SMOOTH",
"90.5 652.5 OFFCURVE",
"80 646 OFFCURVE",
"80 633.5 CURVE SMOOTH",
"80 17.5 LINE SMOOTH",
"80 5 OFFCURVE",
"90.5 -1.5 OFFCURVE",
"114.5 -1.5 CURVE SMOOTH"
);
}
);
width = 490.5;
},
{
anchors = (
{
name = bottom;
position = "{244, 0}";
},
{
name = center;
position = "{145, 547}";
},
{
name = top;
position = "{122.5, 635.5}";
}
);
layerId = "163C89DF-00F0-42B6-A1D9-DCBEB7633CF5";
paths = (
{
closed = 1;
nodes = (
"133.5 -1.5 LINE SMOOTH",
"170 -1.5 OFFCURVE",
"186 8 OFFCURVE",
"186 26 CURVE SMOOTH",
"186 304.5 LINE",
"196 324.5 OFFCURVE",
"219.5 355 OFFCURVE",
"255 355 CURVE SMOOTH",
"293.5 355 OFFCURVE",
"310.5 335 OFFCURVE",
"310.5 301 CURVE SMOOTH",
"310.5 26 LINE SMOOTH",
"310.5 8 OFFCURVE",
"326.5 -1.5 OFFCURVE",
"363 -1.5 CURVE SMOOTH",
"387 -1.5 LINE SMOOTH",
"423.5 -1.5 OFFCURVE",
"439 8 OFFCURVE",
"439 26 CURVE SMOOTH",
"439 320.5 LINE SMOOTH",
"439 416.5 OFFCURVE",
"395 461 OFFCURVE",
"308 461 CURVE SMOOTH",
"256 461 OFFCURVE",
"212.5 434 OFFCURVE",
"186 402 CURVE",
"186 626.5 LINE SMOOTH",
"186 645 OFFCURVE",
"170 654.5 OFFCURVE",
"133.5 654.5 CURVE SMOOTH",
"109.5 654.5 LINE SMOOTH",
"73 654.5 OFFCURVE",
"57.5 645 OFFCURVE",
"57.5 626.5 CURVE SMOOTH",
"57.5 26 LINE SMOOTH",
"57.5 8 OFFCURVE",
"73 -1.5 OFFCURVE",
"109.5 -1.5 CURVE SMOOTH"
);
}
);
width = 490.5;
}
);
unicode = 0068;
},
{
glyphname = i;
lastChange = "2015-02-24 04:03:16 +0000";
layers = (
{
anchors = (
{
name = bottom;
position = "{113.5, 0}";
}
);
layerId = "A2A4A5F3-E0E0-4E92-91CC-8026BABF9DB1";
paths = (
{
closed = 1;
nodes = (
"117 -1.5 LINE SMOOTH",
"141.5 -1.5 OFFCURVE",
"152 5 OFFCURVE",
"152 17.5 CURVE SMOOTH",
"152 436.5 LINE SMOOTH",
"152 449 OFFCURVE",
"141.5 455.5 OFFCURVE",
"117 455.5 CURVE SMOOTH",
"113.5 455.5 LINE SMOOTH",
"89.5 455.5 OFFCURVE",
"79 449 OFFCURVE",
"79 436.5 CURVE SMOOTH",
"79 17.5 LINE SMOOTH",
"79 5 OFFCURVE",
"89.5 -1.5 OFFCURVE",
"113.5 -1.5 CURVE SMOOTH"
);
},
{
closed = 1;
nodes = (
"120.5 563.5 LINE SMOOTH",
"145 563.5 OFFCURVE",
"155.5 570.5 OFFCURVE",
"155.5 582.5 CURVE SMOOTH",
"155.5 633.5 LINE SMOOTH",
"155.5 646 OFFCURVE",
"145 652.5 OFFCURVE",
"120.5 652.5 CURVE SMOOTH",
"110 652.5 LINE SMOOTH",
"86 652.5 OFFCURVE",
"75.5 646 OFFCURVE",
"75.5 633.5 CURVE SMOOTH",
"75.5 582.5 LINE SMOOTH",
"75.5 570.5 OFFCURVE",
"86 563.5 OFFCURVE",
"110 563.5 CURVE"
);
}
);
width = 230;
},
{
anchors = (
{
name = bottom;
position = "{113.5, 0}";
}
);
layerId = "163C89DF-00F0-42B6-A1D9-DCBEB7633CF5";
paths = (
{
closed = 1;
nodes = (
"127.5 -1.5 LINE SMOOTH",
"164 -1.5 OFFCURVE",
"179.5 8 OFFCURVE",
"179.5 26 CURVE SMOOTH",
"179.5 428 LINE SMOOTH",
"179.5 446 OFFCURVE",
"164 455.5 OFFCURVE",
"127.5 455.5 CURVE SMOOTH",
"103.5 455.5 LINE SMOOTH",
"67 455.5 OFFCURVE",
"51 446 OFFCURVE",
"51 428 CURVE SMOOTH",
"51 26 LINE SMOOTH",
"51 8 OFFCURVE",
"67 -1.5 OFFCURVE",
"103.5 -1.5 CURVE SMOOTH"
);
},
{
closed = 1;
nodes = (
"127.5 528.5 LINE SMOOTH",
"164 528.5 OFFCURVE",
"179.5 538 OFFCURVE",
"179.5 556.5 CURVE SMOOTH",
"179.5 626.5 LINE SMOOTH",
"179.5 645 OFFCURVE",
"164 654.5 OFFCURVE",
"127.5 654.5 CURVE SMOOTH",
"103.5 654.5 LINE SMOOTH",
"67 654.5 OFFCURVE",
"51 645 OFFCURVE",
"51 626.5 CURVE SMOOTH",
"51 556.5 LINE SMOOTH",
"51 538 OFFCURVE",
"67 528.5 OFFCURVE",
"103.5 528.5 CURVE"
);
}
);
width = 230;
}
);
unicode = 0069;
},
{
glyphname = idotless;
lastChange = "2015-02-24 04:03:16 +0000";
layers = (
{
anchors = (
{
name = bottom;
position = "{113.5, 0}";
},
{
name = ogonek;
position = "{137, 0}";
},
{
name = top;
position = "{115.5, 454}";
}
);
layerId = "A2A4A5F3-E0E0-4E92-91CC-8026BABF9DB1";
paths = (
{
closed = 1;
nodes = (
"117 -1.5 LINE SMOOTH",
"141.5 -1.5 OFFCURVE",
"152 5 OFFCURVE",
"152 17.5 CURVE SMOOTH",
"152 436.5 LINE SMOOTH",
"152 449 OFFCURVE",
"141.5 455.5 OFFCURVE",
"117 455.5 CURVE SMOOTH",
"113.5 455.5 LINE SMOOTH",
"89.5 455.5 OFFCURVE",
"79 449 OFFCURVE",
"79 436.5 CURVE SMOOTH",
"79 17.5 LINE SMOOTH",
"79 5 OFFCURVE",
"89.5 -1.5 OFFCURVE",
"113.5 -1.5 CURVE SMOOTH"
);
}
);
width = 230;
},
{
anchors = (
{
name = bottom;
position = "{113.5, 0}";
},
{
name = ogonek;
position = "{146.5, 0}";
},
{
name = top;
position = "{115.5, 454}";
}
);
layerId = "163C89DF-00F0-42B6-A1D9-DCBEB7633CF5";
paths = (
{
closed = 1;
nodes = (
"127.5 -1.5 LINE SMOOTH",
"164 -1.5 OFFCURVE",
"179.5 8 OFFCURVE",
"179.5 26 CURVE SMOOTH",
"179.5 428 LINE SMOOTH",
"179.5 446 OFFCURVE",
"164 455.5 OFFCURVE",
"127.5 455.5 CURVE SMOOTH",
"103.5 455.5 LINE SMOOTH",
"67 455.5 OFFCURVE",
"51 446 OFFCURVE",
"51 428 CURVE SMOOTH",
"51 26 LINE SMOOTH",
"51 8 OFFCURVE",
"67 -1.5 OFFCURVE",
"103.5 -1.5 CURVE SMOOTH"
);
}
);
width = 230;
}
);
unicode = 0131;
},
{
glyphname = j;
lastChange = "2015-02-24 04:03:16 +0000";
layers = (
{
layerId = "A2A4A5F3-E0E0-4E92-91CC-8026BABF9DB1";
paths = (
{
closed = 1;
nodes = (
"92 -184 OFFCURVE",
"160.5 -165 OFFCURVE",
"160.5 -64 CURVE SMOOTH",
"160.5 436.5 LINE SMOOTH",
"160.5 449 OFFCURVE",
"150 455.5 OFFCURVE",
"126 455.5 CURVE SMOOTH",
"122.5 455.5 LINE SMOOTH",
"98 455.5 OFFCURVE",
"87.5 449 OFFCURVE",
"87.5 436.5 CURVE SMOOTH",
"87.5 -57.5 LINE SMOOTH",
"87.5 -109.5 OFFCURVE",
"66 -121.5 OFFCURVE",
"41 -121.5 CURVE SMOOTH",
"15.5 -121.5 OFFCURVE",
"11.5 -117 OFFCURVE",
"3.5 -117 CURVE SMOOTH",
"-8.5 -117 OFFCURVE",
"-15 -151 OFFCURVE",
"-15 -158 CURVE SMOOTH",
"-15 -181.5 OFFCURVE",
"25 -184 OFFCURVE",
"48.5 -184 CURVE SMOOTH"
);
},
{
closed = 1;
nodes = (
"129.5 563.5 LINE SMOOTH",
"153.5 563.5 OFFCURVE",
"164 570.5 OFFCURVE",
"164 582.5 CURVE SMOOTH",
"164 633.5 LINE SMOOTH",
"164 646 OFFCURVE",
"153.5 652.5 OFFCURVE",
"129.5 652.5 CURVE SMOOTH",
"119 652.5 LINE SMOOTH",
"94.5 652.5 OFFCURVE",
"84 646 OFFCURVE",
"84 633.5 CURVE SMOOTH",
"84 582.5 LINE SMOOTH",
"84 570.5 OFFCURVE",
"94.5 563.5 OFFCURVE",
"119 563.5 CURVE"
);
}
);
width = 239.5;
},
{
layerId = "163C89DF-00F0-42B6-A1D9-DCBEB7633CF5";
paths = (
{
closed = 1;
nodes = (
"134.5 -184 OFFCURVE",
"189 -138 OFFCURVE",
"189 -43.5 CURVE SMOOTH",
"189 428 LINE SMOOTH",
"189 446 OFFCURVE",
"173.5 455.5 OFFCURVE",
"137 455.5 CURVE SMOOTH",
"113 455.5 LINE SMOOTH",
"76.5 455.5 OFFCURVE",
"61 446 OFFCURVE",
"61 428 CURVE SMOOTH",
"61 -45 LINE SMOOTH",
"61 -71 OFFCURVE",
"52 -82.5 OFFCURVE",
"29.5 -82.5 CURVE SMOOTH",
"20 -82.5 OFFCURVE",
"8.5 -79 OFFCURVE",
"3.5 -79 CURVE SMOOTH",
"-15 -79 OFFCURVE",
"-28 -119 OFFCURVE",
"-28 -139 CURVE SMOOTH",
"-28 -172.5 OFFCURVE",
"-6 -184 OFFCURVE",
"62.5 -184 CURVE SMOOTH"
);
},
{
closed = 1;
nodes = (
"137 528.5 LINE SMOOTH",
"173.5 528.5 OFFCURVE",
"189 538 OFFCURVE",
"189 556.5 CURVE SMOOTH",
"189 626.5 LINE SMOOTH",
"189 645 OFFCURVE",
"173.5 654.5 OFFCURVE",
"137 654.5 CURVE SMOOTH",
"113 654.5 LINE SMOOTH",
"76.5 654.5 OFFCURVE",
"61 645 OFFCURVE",
"61 626.5 CURVE SMOOTH",
"61 556.5 LINE SMOOTH",
"61 538 OFFCURVE",
"76.5 528.5 OFFCURVE",
"113 528.5 CURVE"
);
}
);
width = 239.5;
}
);
unicode = 006A;
},
{
glyphname = jdotless;
lastChange = "2015-02-24 04:03:16 +0000";
layers = (
{
anchors = (
{
name = top;
position = "{124, 454}";
}
);
layerId = "A2A4A5F3-E0E0-4E92-91CC-8026BABF9DB1";
paths = (
{
closed = 1;
nodes = (
"92 -184 OFFCURVE",
"160.5 -165 OFFCURVE",
"160.5 -64 CURVE SMOOTH",
"160.5 436.5 LINE SMOOTH",
"160.5 449 OFFCURVE",
"150 455.5 OFFCURVE",
"126 455.5 CURVE SMOOTH",
"122.5 455.5 LINE SMOOTH",
"98 455.5 OFFCURVE",
"87.5 449 OFFCURVE",
"87.5 436.5 CURVE SMOOTH",
"87.5 -57.5 LINE SMOOTH",
"87.5 -109.5 OFFCURVE",
"66 -121.5 OFFCURVE",
"41 -121.5 CURVE SMOOTH",
"15.5 -121.5 OFFCURVE",
"11.5 -117 OFFCURVE",
"3.5 -117 CURVE SMOOTH",
"-8.5 -117 OFFCURVE",
"-15 -151 OFFCURVE",
"-15 -158 CURVE SMOOTH",
"-15 -181.5 OFFCURVE",
"25 -184 OFFCURVE",
"48.5 -184 CURVE SMOOTH"
);
}
);
width = 239.5;
},
{
anchors = (
{
name = top;
position = "{125, 454}";
}
);
layerId = "163C89DF-00F0-42B6-A1D9-DCBEB7633CF5";
paths = (
{
closed = 1;
nodes = (
"134.5 -184 OFFCURVE",
"189 -138 OFFCURVE",
"189 -43.5 CURVE SMOOTH",
"189 428 LINE SMOOTH",
"189 446 OFFCURVE",
"173.5 455.5 OFFCURVE",
"137 455.5 CURVE SMOOTH",
"113 455.5 LINE SMOOTH",
"76.5 455.5 OFFCURVE",
"61 446 OFFCURVE",
"61 428 CURVE SMOOTH",
"61 -45 LINE SMOOTH",
"61 -71 OFFCURVE",
"52 -82.5 OFFCURVE",
"29.5 -82.5 CURVE SMOOTH",
"20 -82.5 OFFCURVE",
"8.5 -79 OFFCURVE",
"3.5 -79 CURVE SMOOTH",
"-15 -79 OFFCURVE",
"-28 -119 OFFCURVE",
"-28 -139 CURVE SMOOTH",
"-28 -172.5 OFFCURVE",
"-6 -184 OFFCURVE",
"62.5 -184 CURVE SMOOTH"
);
}
);
width = 239.5;
}
);
unicode = 0237;
},
{
glyphname = k;
lastChange = "2015-02-24 04:03:16 +0000";
layers = (
{
anchors = (
{
name = bottom;
position = "{226.5, 0}";
}
);
layerId = "A2A4A5F3-E0E0-4E92-91CC-8026BABF9DB1";
paths = (
{
closed = 1;
nodes = (
"120 -1.5 LINE SMOOTH",
"144 -1.5 OFFCURVE",
"154.5 5 OFFCURVE",
"154.5 17.5 CURVE SMOOTH",
"154.5 215.5 LINE",
"158 215.5 LINE",
"331.5 9.5 LINE SMOOTH",
"340.5 -1 OFFCURVE",
"359.5 -1.5 OFFCURVE",
"378.5 -1.5 CURVE SMOOTH",
"382 -1.5 LINE SMOOTH",
"409 -1.5 OFFCURVE",
"420 1 OFFCURVE",
"420 10.5 CURVE SMOOTH",
"420 14 OFFCURVE",
"418.5 17.5 OFFCURVE",
"412.5 24.5 CURVE SMOOTH",
"233.5 236 LINE",
"395 427 LINE SMOOTH",
"401 434 OFFCURVE",
"403.5 440 OFFCURVE",
"403.5 444.5 CURVE SMOOTH",
"403.5 450.5 OFFCURVE",
"394 455.5 OFFCURVE",
"373 455.5 CURVE SMOOTH",
"370 455.5 LINE SMOOTH",
"350.5 455.5 OFFCURVE",
"331.5 453 OFFCURVE",
"324 443.5 CURVE SMOOTH",
"158 245.5 LINE",
"154.5 245.5 LINE",
"154.5 633.5 LINE SMOOTH",
"154.5 646 OFFCURVE",
"144 652.5 OFFCURVE",
"120 652.5 CURVE SMOOTH",
"116.5 652.5 LINE SMOOTH",
"92 652.5 OFFCURVE",
"81.5 646 OFFCURVE",
"81.5 633.5 CURVE SMOOTH",
"81.5 17.5 LINE SMOOTH",
"81.5 5 OFFCURVE",
"92 -1.5 OFFCURVE",
"116.5 -1.5 CURVE SMOOTH"
);
}
);
width = 452;
},
{
anchors = (
{
name = bottom;
position = "{226.5, 0}";
}
);
layerId = "163C89DF-00F0-42B6-A1D9-DCBEB7633CF5";
paths = (
{
closed = 1;
nodes = (
"133.5 -1.5 LINE SMOOTH",
"170 -1.5 OFFCURVE",
"186 8 OFFCURVE",
"186 26 CURVE SMOOTH",
"186 213.5 LINE",
"189 214.5 LINE",
"310 15 LINE SMOOTH",
"317.5 1.5 OFFCURVE",
"337 -1.5 OFFCURVE",
"362 -1.5 CURVE SMOOTH",
"398.5 -1.5 LINE SMOOTH",
"432.5 -1.5 OFFCURVE",
"448 3.5 OFFCURVE",
"448 11.5 CURVE SMOOTH",
"448 16.5 OFFCURVE",
"445.5 21.5 OFFCURVE",
"441 29.5 CURVE SMOOTH",
"299.5 253.5 LINE",
"420 425.5 LINE SMOOTH",
"425.5 432.5 OFFCURVE",
"428 438.5 OFFCURVE",
"428 442.5 CURVE SMOOTH",
"428 450.5 OFFCURVE",
"412.5 455.5 OFFCURVE",
"379.5 455.5 CURVE SMOOTH",
"347 455.5 LINE SMOOTH",
"322 455.5 OFFCURVE",
"304.5 454 OFFCURVE",
"294.5 439 CURVE SMOOTH",
"189 282 LINE",
"186 283 LINE",
"186 626.5 LINE SMOOTH",
"186 645 OFFCURVE",
"170 654.5 OFFCURVE",
"133.5 654.5 CURVE SMOOTH",
"109.5 654.5 LINE SMOOTH",
"73 654.5 OFFCURVE",
"57.5 645 OFFCURVE",
"57.5 626.5 CURVE SMOOTH",
"57.5 26 LINE SMOOTH",
"57.5 8 OFFCURVE",
"73 -1.5 OFFCURVE",
"109.5 -1.5 CURVE SMOOTH"
);
}
);
width = 452;
}
);
unicode = 006B;
},
{
glyphname = kgreenlandic;
lastChange = "2015-02-24 04:03:16 +0000";
layers = (
{
layerId = "A2A4A5F3-E0E0-4E92-91CC-8026BABF9DB1";
paths = (
{
closed = 1;
nodes = (
"120 -1.5 LINE SMOOTH",
"144 -1.5 OFFCURVE",
"154.5 5 OFFCURVE",
"154.5 17.5 CURVE SMOOTH",
"154.5 215.5 LINE",
"158 215.5 LINE",
"331.5 9.5 LINE SMOOTH",
"340.5 -1 OFFCURVE",
"359.5 -1.5 OFFCURVE",
"378.5 -1.5 CURVE SMOOTH",
"382 -1.5 LINE SMOOTH",
"409 -1.5 OFFCURVE",
"420 1 OFFCURVE",
"420 10.5 CURVE SMOOTH",
"420 14 OFFCURVE",
"418.5 17.5 OFFCURVE",
"412.5 24.5 CURVE SMOOTH",
"233.5 236 LINE",
"395 427 LINE SMOOTH",
"401 434 OFFCURVE",
"403.5 440 OFFCURVE",
"403.5 444.5 CURVE SMOOTH",
"403.5 450.5 OFFCURVE",
"394 455.5 OFFCURVE",
"373 455.5 CURVE SMOOTH",
"370 455.5 LINE SMOOTH",
"350.5 455.5 OFFCURVE",
"331.5 453 OFFCURVE",
"324 443.5 CURVE SMOOTH",
"158 245.5 LINE",
"154.5 245.5 LINE",
"154.5 437.5 LINE SMOOTH",
"154.5 449.5 OFFCURVE",
"144 456.5 OFFCURVE",
"120 456.5 CURVE SMOOTH",
"116.5 456.5 LINE SMOOTH",
"92 456.5 OFFCURVE",
"81.5 449.5 OFFCURVE",
"81.5 437.5 CURVE SMOOTH",
"81.5 17.5 LINE SMOOTH",
"81.5 5 OFFCURVE",
"92 -1.5 OFFCURVE",
"116.5 -1.5 CURVE SMOOTH"
);
}
);
width = 452;
},
{
layerId = "163C89DF-00F0-42B6-A1D9-DCBEB7633CF5";
paths = (
{
closed = 1;
nodes = (
"133.5 -1.5 LINE SMOOTH",
"170 -1.5 OFFCURVE",
"186 8 OFFCURVE",
"186 26 CURVE SMOOTH",
"186 213.5 LINE",
"189 214.5 LINE",
"310 15 LINE SMOOTH",
"317.5 1.5 OFFCURVE",
"337 -1.5 OFFCURVE",
"362 -1.5 CURVE SMOOTH",
"398.5 -1.5 LINE SMOOTH",
"432.5 -1.5 OFFCURVE",
"448 3.5 OFFCURVE",
"448 11.5 CURVE SMOOTH",
"448 16.5 OFFCURVE",
"445.5 21.5 OFFCURVE",
"441 29.5 CURVE SMOOTH",
"299.5 253.5 LINE",
"420 425.5 LINE SMOOTH",
"425.5 432.5 OFFCURVE",
"428 438.5 OFFCURVE",
"428 442.5 CURVE SMOOTH",
"428 450.5 OFFCURVE",
"412.5 455.5 OFFCURVE",
"379.5 455.5 CURVE SMOOTH",
"347 455.5 LINE SMOOTH",
"322 455.5 OFFCURVE",
"304.5 454 OFFCURVE",
"294.5 439 CURVE SMOOTH",
"189 282 LINE",
"186 283 LINE",
"186 428 LINE SMOOTH",
"186 446 OFFCURVE",
"170 455.5 OFFCURVE",
"133.5 455.5 CURVE SMOOTH",
"109.5 455.5 LINE SMOOTH",
"73 455.5 OFFCURVE",
"57.5 446 OFFCURVE",
"57.5 428 CURVE SMOOTH",
"57.5 26 LINE SMOOTH",
"57.5 8 OFFCURVE",
"73 -1.5 OFFCURVE",
"109.5 -1.5 CURVE SMOOTH"
);
}
);
width = 452;
}
);
unicode = 0138;
},
{
glyphname = l;
lastChange = "2015-02-24 04:03:16 +0000";
layers = (
{
anchors = (
{
name = bottom;
position = "{155.5, 0}";
},
{
name = caron;
position = "{144, 609.5}";
},
{
name = center;
position = "{242, 291}";
},
{
name = top;
position = "{108.5, 625}";
}
);
layerId = "A2A4A5F3-E0E0-4E92-91CC-8026BABF9DB1";
paths = (
{
closed = 1;
nodes = (
"206.5 -5 OFFCURVE",
"246.5 -2.5 OFFCURVE",
"246.5 21 CURVE SMOOTH",
"246.5 28 OFFCURVE",
"240.5 61.5 OFFCURVE",
"228.5 61.5 CURVE SMOOTH",
"220.5 61.5 OFFCURVE",
"216 57.5 OFFCURVE",
"191 57.5 CURVE SMOOTH",
"166 57.5 OFFCURVE",
"144 69.5 OFFCURVE",
"144 121.5 CURVE SMOOTH",
"144 633.5 LINE SMOOTH",
"144 646 OFFCURVE",
"133.5 652.5 OFFCURVE",
"109.5 652.5 CURVE SMOOTH",
"106 652.5 LINE SMOOTH",
"81.5 652.5 OFFCURVE",
"71 646 OFFCURVE",
"71 633.5 CURVE SMOOTH",
"71 114.5 LINE SMOOTH",
"71 14 OFFCURVE",
"139.5 -5 OFFCURVE",
"183 -5 CURVE SMOOTH"
);
}
);
width = 258;
},
{
anchors = (
{
name = bottom;
position = "{159, 0}";
},
{
name = caron;
position = "{167.5, 652.5}";
},
{
name = center;
position = "{264.5, 291}";
},
{
name = top;
position = "{118, 625}";
}
);
layerId = "163C89DF-00F0-42B6-A1D9-DCBEB7633CF5";
paths = (
{
closed = 1;
nodes = (
"208.5 -7 OFFCURVE",
"264.5 -4.5 OFFCURVE",
"264.5 35.5 CURVE SMOOTH",
"264.5 42.5 OFFCURVE",
"255 98 OFFCURVE",
"238 98 CURVE SMOOTH",
"232.5 98 OFFCURVE",
"222 94.5 OFFCURVE",
"214.5 94.5 CURVE SMOOTH",
"192 94.5 OFFCURVE",
"183 106 OFFCURVE",
"183 132 CURVE SMOOTH",
"183 626.5 LINE SMOOTH",
"183 645 OFFCURVE",
"167.5 654.5 OFFCURVE",
"131 654.5 CURVE SMOOTH",
"107 654.5 LINE SMOOTH",
"70.5 654.5 OFFCURVE",
"54.5 645 OFFCURVE",
"54.5 626.5 CURVE SMOOTH",
"54.5 133.5 LINE SMOOTH",
"54.5 37.5 OFFCURVE",
"100 -7 OFFCURVE",
"181.5 -7 CURVE SMOOTH"
);
}
);
width = 258;
}
);
unicode = 006C;
},
{
glyphname = lslash;
lastChange = "2015-02-24 04:03:16 +0000";
layers = (
{
layerId = "A2A4A5F3-E0E0-4E92-91CC-8026BABF9DB1";
paths = (
{
closed = 1;
nodes = (
"205 -5 OFFCURVE",
"245 -2.5 OFFCURVE",
"245 21 CURVE SMOOTH",
"245 28 OFFCURVE",
"238.5 61.5 OFFCURVE",
"226.5 61.5 CURVE SMOOTH",
"218.5 61.5 OFFCURVE",
"214.5 57.5 OFFCURVE",
"189 57.5 CURVE SMOOTH",
"164 57.5 OFFCURVE",
"142.5 69.5 OFFCURVE",
"142.5 121.5 CURVE SMOOTH",
"142.5 349 LINE",
"179 370.5 LINE SMOOTH",
"189 376.5 OFFCURVE",
"195.5 384.5 OFFCURVE",
"195.5 396.5 CURVE SMOOTH",
"195.5 402 LINE SMOOTH",
"195.5 409.5 OFFCURVE",
"192 414 OFFCURVE",
"187.5 414 CURVE SMOOTH",
"185 414 OFFCURVE",
"182.5 412.5 OFFCURVE",
"179 410.5 CURVE SMOOTH",
"142.5 389 LINE",
"142.5 633.5 LINE SMOOTH",
"142.5 646 OFFCURVE",
"132 652.5 OFFCURVE",
"107.5 652.5 CURVE SMOOTH",
"104 652.5 LINE SMOOTH",
"80 652.5 OFFCURVE",
"69.5 646 OFFCURVE",
"69.5 633.5 CURVE SMOOTH",
"69.5 345.5 LINE",
"33 324.5 LINE SMOOTH",
"22.5 318.5 OFFCURVE",
"16.5 310.5 OFFCURVE",
"16.5 298.5 CURVE SMOOTH",
"16.5 293.5 LINE SMOOTH",
"16.5 285.5 OFFCURVE",
"20 281 OFFCURVE",
"24.5 281 CURVE SMOOTH",
"26 281 OFFCURVE",
"29.5 282 OFFCURVE",
"33 284.5 CURVE SMOOTH",
"69.5 306.5 LINE",
"69.5 114.5 LINE SMOOTH",
"69.5 14 OFFCURVE",
"138 -5 OFFCURVE",
"181.5 -5 CURVE SMOOTH"
);
}
);
width = 254.5;
},
{
layerId = "163C89DF-00F0-42B6-A1D9-DCBEB7633CF5";
paths = (
{
closed = 1;
nodes = (
"205 -7 OFFCURVE",
"261.5 -4.5 OFFCURVE",
"261.5 35.5 CURVE SMOOTH",
"261.5 42.5 OFFCURVE",
"251.5 98 OFFCURVE",
"234.5 98 CURVE SMOOTH",
"229 98 OFFCURVE",
"218.5 94.5 OFFCURVE",
"211 94.5 CURVE SMOOTH",
"188.5 94.5 OFFCURVE",
"179.5 106 OFFCURVE",
"179.5 132 CURVE SMOOTH",
"179.5 357.5 LINE",
"200.5 370.5 LINE SMOOTH",
"216 380 OFFCURVE",
"223 390.5 OFFCURVE",
"223 409.5 CURVE SMOOTH",
"223 427 LINE SMOOTH",
"223 439 OFFCURVE",
"219.5 444.5 OFFCURVE",
"213.5 444.5 CURVE SMOOTH",
"210 444.5 OFFCURVE",
"205.5 442.5 OFFCURVE",
"200.5 440 CURVE SMOOTH",
"179.5 427 LINE",
"179.5 626.5 LINE SMOOTH",
"179.5 645 OFFCURVE",
"164 654.5 OFFCURVE",
"127.5 654.5 CURVE SMOOTH",
"103.5 654.5 LINE SMOOTH",
"67 654.5 OFFCURVE",
"51 645 OFFCURVE",
"51 626.5 CURVE SMOOTH",
"51 350 LINE",
"32 338.5 LINE SMOOTH",
"16.5 329 OFFCURVE",
"9.5 317 OFFCURVE",
"9.5 298.5 CURVE SMOOTH",
"9.5 281 LINE SMOOTH",
"9.5 269 OFFCURVE",
"12 264 OFFCURVE",
"18 264 CURVE SMOOTH",
"21.5 264 OFFCURVE",
"26 265.5 OFFCURVE",
"32 269 CURVE SMOOTH",
"51 280.5 LINE",
"51 133.5 LINE SMOOTH",
"51 37.5 OFFCURVE",
"96.5 -7 OFFCURVE",
"178 -7 CURVE SMOOTH"
);
}
);
width = 254.5;
}
);
unicode = 0142;
},
{
glyphname = m;
lastChange = "2015-02-24 04:03:16 +0000";
layers = (
{
layerId = "A2A4A5F3-E0E0-4E92-91CC-8026BABF9DB1";
paths = (
{
closed = 1;
nodes = (
"112 -1.5 LINE SMOOTH",
"136.5 -1.5 OFFCURVE",
"146.5 5 OFFCURVE",
"146.5 17.5 CURVE SMOOTH",
"146.5 336 LINE",
"146.5 336 OFFCURVE",
"189 396 OFFCURVE",
"252.5 396 CURVE SMOOTH",
"308 396 OFFCURVE",
"336 363 OFFCURVE",
"336 311.5 CURVE SMOOTH",
"336 17.5 LINE SMOOTH",
"336 5 OFFCURVE",
"346.5 -1.5 OFFCURVE",
"370.5 -1.5 CURVE SMOOTH",
"374 -1.5 LINE SMOOTH",
"398.5 -1.5 OFFCURVE",
"409 5 OFFCURVE",
"409 17.5 CURVE SMOOTH",
"409 317.5 LINE SMOOTH",
"409 330.5 OFFCURVE",
"408 345.5 OFFCURVE",
"403 358.5 CURVE",
"403.5 329 LINE",
"407 333.5 OFFCURVE",
"452 396 OFFCURVE",
"514.5 396 CURVE SMOOTH",
"570.5 396 OFFCURVE",
"598 363 OFFCURVE",
"598 311.5 CURVE SMOOTH",
"598 17.5 LINE SMOOTH",
"598 5 OFFCURVE",
"608.5 -1.5 OFFCURVE",
"633 -1.5 CURVE SMOOTH",
"636 -1.5 LINE SMOOTH",
"660.5 -1.5 OFFCURVE",
"671 5 OFFCURVE",
"671 17.5 CURVE SMOOTH",
"671 318.5 LINE SMOOTH",
"671 436.5 OFFCURVE",
"590 459 OFFCURVE",
"534.5 459 CURVE SMOOTH",
"480 459 OFFCURVE",
"429.5 426 OFFCURVE",
"396.5 387 CURVE",
"372.5 446 OFFCURVE",
"315 459 OFFCURVE",
"272.5 459 CURVE SMOOTH",
"217 459 OFFCURVE",
"169.5 427 OFFCURVE",
"140.5 394 CURVE",
"135.5 416.5 OFFCURVE",
"131 451.5 OFFCURVE",
"110 451.5 CURVE SMOOTH",
"99 451.5 OFFCURVE",
"63.5 448 OFFCURVE",
"63.5 431.5 CURVE SMOOTH",
"63.5 427 OFFCURVE",
"74 393 OFFCURVE",
"74 322 CURVE SMOOTH",
"74 17.5 LINE SMOOTH",
"74 5 OFFCURVE",
"84 -1.5 OFFCURVE",
"108.5 -1.5 CURVE SMOOTH"
);
}
);
width = 736;
},
{
layerId = "163C89DF-00F0-42B6-A1D9-DCBEB7633CF5";
paths = (
{
closed = 1;
nodes = (
"130 -1.5 LINE SMOOTH",
"166.5 -1.5 OFFCURVE",
"182.5 8 OFFCURVE",
"182.5 26 CURVE SMOOTH",
"182.5 304.5 LINE",
"192.5 324.5 OFFCURVE",
"215.5 355 OFFCURVE",
"251 355 CURVE SMOOTH",
"289 355 OFFCURVE",
"302 335 OFFCURVE",
"302 301 CURVE SMOOTH",
"302 26 LINE SMOOTH",
"302 8 OFFCURVE",
"317.5 -1.5 OFFCURVE",
"354 -1.5 CURVE SMOOTH",
"378.5 -1.5 LINE SMOOTH",
"415 -1.5 OFFCURVE",
"430.5 8 OFFCURVE",
"430.5 26 CURVE SMOOTH",
"430.5 317.5 LINE SMOOTH",
"430.5 332.5 OFFCURVE",
"428 348 OFFCURVE",
"423.5 363 CURVE",
"423.5 292.5 LINE",
"427 297 OFFCURVE",
"448 355 OFFCURVE",
"499 355 CURVE SMOOTH",
"537.5 355 OFFCURVE",
"550.5 335 OFFCURVE",
"550.5 301 CURVE SMOOTH",
"550.5 26 LINE SMOOTH",
"550.5 8 OFFCURVE",
"566 -1.5 OFFCURVE",
"602.5 -1.5 CURVE SMOOTH",
"626.5 -1.5 LINE SMOOTH",
"663 -1.5 OFFCURVE",
"679 8 OFFCURVE",
"679 26 CURVE SMOOTH",
"679 320.5 LINE SMOOTH",
"679 416.5 OFFCURVE",
"639 461 OFFCURVE",
"552 461 CURVE SMOOTH",
"494 461 OFFCURVE",
"444.5 428 OFFCURVE",
"418.5 395 CURVE",
"401 440 OFFCURVE",
"363.5 461 OFFCURVE",
"304 461 CURVE SMOOTH",
"247.5 461 OFFCURVE",
"200.5 428 OFFCURVE",
"175.5 395 CURVE",
"170 416.5 OFFCURVE",
"168.5 451.5 OFFCURVE",
"140.5 451.5 CURVE SMOOTH",
"119 451.5 OFFCURVE",
"43.5 444.5 OFFCURVE",
"43.5 423.5 CURVE SMOOTH",
"43.5 406 OFFCURVE",
"54 388 OFFCURVE",
"54 301 CURVE SMOOTH",
"54 26 LINE SMOOTH",
"54 8 OFFCURVE",
"69.5 -1.5 OFFCURVE",
"106 -1.5 CURVE SMOOTH"
);
}
);
width = 736;
}
);
unicode = 006D;
},
{
glyphname = n;
lastChange = "2015-02-24 04:03:16 +0000";
layers = (
{
anchors = (
{
name = bottom;
position = "{242, 0}";
},
{
name = top;
position = "{242, 454}";
}
);
layerId = "A2A4A5F3-E0E0-4E92-91CC-8026BABF9DB1";
paths = (
{
closed = 1;
nodes = (
"113 -1.5 LINE SMOOTH",
"137 -1.5 OFFCURVE",
"147.5 5 OFFCURVE",
"147.5 17.5 CURVE SMOOTH",
"147.5 335 LINE",
"176 372.5 OFFCURVE",
"218 396 OFFCURVE",
"257 396 CURVE SMOOTH",
"313.5 396 OFFCURVE",
"345.5 364.5 OFFCURVE",
"345.5 311.5 CURVE SMOOTH",
"345.5 17.5 LINE SMOOTH",
"345.5 5 OFFCURVE",
"356 -1.5 OFFCURVE",
"380 -1.5 CURVE SMOOTH",
"383.5 -1.5 LINE SMOOTH",
"408 -1.5 OFFCURVE",
"418.5 5 OFFCURVE",
"418.5 17.5 CURVE SMOOTH",
"418.5 318.5 LINE SMOOTH",
"418.5 406 OFFCURVE",
"365.5 459 OFFCURVE",
"277 459 CURVE SMOOTH",
"228.5 459 OFFCURVE",
"178 435 OFFCURVE",
"141.5 394 CURVE",
"136.5 416.5 OFFCURVE",
"132 451.5 OFFCURVE",
"111 451.5 CURVE SMOOTH",
"100 451.5 OFFCURVE",
"64 448 OFFCURVE",
"64 431.5 CURVE SMOOTH",
"64 427 OFFCURVE",
"74.5 393 OFFCURVE",
"74.5 322 CURVE SMOOTH",
"74.5 17.5 LINE SMOOTH",
"74.5 5 OFFCURVE",
"85 -1.5 OFFCURVE",
"109.5 -1.5 CURVE SMOOTH"
);
}
);
width = 483.5;
},
{
anchors = (
{
name = bottom;
position = "{242, 0}";
},
{
name = top;
position = "{242, 454}";
}
);
layerId = "163C89DF-00F0-42B6-A1D9-DCBEB7633CF5";
paths = (
{
closed = 1;
nodes = (
"130 -1.5 LINE SMOOTH",
"166.5 -1.5 OFFCURVE",
"182.5 8 OFFCURVE",
"182.5 26 CURVE SMOOTH",
"182.5 304.5 LINE",
"192.5 324.5 OFFCURVE",
"216 355 OFFCURVE",
"251.5 355 CURVE SMOOTH",
"290 355 OFFCURVE",
"304 335 OFFCURVE",
"304 301 CURVE SMOOTH",
"304 26 LINE SMOOTH",
"304 8 OFFCURVE",
"319.5 -1.5 OFFCURVE",
"356 -1.5 CURVE SMOOTH",
"380 -1.5 LINE SMOOTH",
"416.5 -1.5 OFFCURVE",
"432.5 8 OFFCURVE",
"432.5 26 CURVE SMOOTH",
"432.5 320.5 LINE SMOOTH",
"432.5 416.5 OFFCURVE",
"391.5 461 OFFCURVE",
"304.5 461 CURVE SMOOTH",
"248 461 OFFCURVE",
"200.5 428 OFFCURVE",
"175.5 395 CURVE",
"170 416.5 OFFCURVE",
"168.5 451.5 OFFCURVE",
"140.5 451.5 CURVE SMOOTH",
"119 451.5 OFFCURVE",
"43.5 444.5 OFFCURVE",
"43.5 423.5 CURVE SMOOTH",
"43.5 406 OFFCURVE",
"54 388 OFFCURVE",
"54 301 CURVE SMOOTH",
"54 26 LINE SMOOTH",
"54 8 OFFCURVE",
"69.5 -1.5 OFFCURVE",
"106 -1.5 CURVE SMOOTH"
);
}
);
width = 483.5;
}
);
unicode = 006E;
},
{
glyphname = eng;
lastChange = "2015-02-24 04:03:16 +0000";
layers = (
{
layerId = "A2A4A5F3-E0E0-4E92-91CC-8026BABF9DB1";
paths = (
{
closed = 1;
nodes = (
"350 -184 OFFCURVE",
"418.5 -165 OFFCURVE",
"418.5 -64 CURVE SMOOTH",
"418.5 318.5 LINE SMOOTH",
"418.5 406 OFFCURVE",
"365.5 459 OFFCURVE",
"277 459 CURVE SMOOTH",
"228.5 459 OFFCURVE",
"178 435 OFFCURVE",
"141.5 394 CURVE",
"136.5 416.5 OFFCURVE",
"132 451.5 OFFCURVE",
"111 451.5 CURVE SMOOTH",
"100 451.5 OFFCURVE",
"64 448 OFFCURVE",
"64 431.5 CURVE SMOOTH",
"64 427 OFFCURVE",
"74.5 393 OFFCURVE",
"74.5 322 CURVE SMOOTH",
"74.5 17.5 LINE SMOOTH",
"74.5 5 OFFCURVE",
"85 -1.5 OFFCURVE",
"109.5 -1.5 CURVE SMOOTH",
"113 -1.5 LINE SMOOTH",
"137 -1.5 OFFCURVE",
"147.5 5 OFFCURVE",
"147.5 17.5 CURVE SMOOTH",
"147.5 335 LINE",
"176 372.5 OFFCURVE",
"218 396 OFFCURVE",
"257 396 CURVE SMOOTH",
"313.5 396 OFFCURVE",
"345.5 364.5 OFFCURVE",
"345.5 311.5 CURVE SMOOTH",
"345.5 -57.5 LINE SMOOTH",
"345.5 -109.5 OFFCURVE",
"324 -121.5 OFFCURVE",
"298.5 -121.5 CURVE SMOOTH",
"273.5 -121.5 OFFCURVE",
"269 -117 OFFCURVE",
"261.5 -117 CURVE SMOOTH",
"249 -117 OFFCURVE",
"243 -151 OFFCURVE",
"243 -158 CURVE SMOOTH",
"243 -181.5 OFFCURVE",
"283 -184 OFFCURVE",
"306.5 -184 CURVE SMOOTH"
);
}
);
width = 483.5;
},
{
layerId = "163C89DF-00F0-42B6-A1D9-DCBEB7633CF5";
paths = (
{
closed = 1;
nodes = (
"377.5 -184 OFFCURVE",
"432.5 -138 OFFCURVE",
"432.5 -43.5 CURVE SMOOTH",
"432.5 320.5 LINE SMOOTH",
"432.5 416.5 OFFCURVE",
"391.5 461 OFFCURVE",
"304.5 461 CURVE SMOOTH",
"248 461 OFFCURVE",
"200.5 428 OFFCURVE",
"175.5 395 CURVE",
"170 416.5 OFFCURVE",
"168.5 451.5 OFFCURVE",
"140.5 451.5 CURVE SMOOTH",
"119 451.5 OFFCURVE",
"43.5 444.5 OFFCURVE",
"43.5 423.5 CURVE SMOOTH",
"43.5 406 OFFCURVE",
"54 388 OFFCURVE",
"54 301 CURVE SMOOTH",
"54 26 LINE SMOOTH",
"54 8 OFFCURVE",
"69.5 -1.5 OFFCURVE",
"106 -1.5 CURVE SMOOTH",
"130 -1.5 LINE SMOOTH",
"166.5 -1.5 OFFCURVE",
"182.5 8 OFFCURVE",
"182.5 26 CURVE SMOOTH",
"182.5 304.5 LINE",
"192.5 324.5 OFFCURVE",
"216 355 OFFCURVE",
"251.5 355 CURVE SMOOTH",
"290 355 OFFCURVE",
"304 335 OFFCURVE",
"304 301 CURVE SMOOTH",
"304 -45 LINE SMOOTH",
"304 -71 OFFCURVE",
"295 -82.5 OFFCURVE",
"272.5 -82.5 CURVE SMOOTH",
"263 -82.5 OFFCURVE",
"251.5 -79 OFFCURVE",
"246.5 -79 CURVE SMOOTH",
"228.5 -79 OFFCURVE",
"215.5 -119 OFFCURVE",
"215.5 -139 CURVE SMOOTH",
"215.5 -172.5 OFFCURVE",
"237 -184 OFFCURVE",
"305.5 -184 CURVE SMOOTH"
);
}
);
width = 483.5;
}
);
unicode = 014B;
},
{
glyphname = o;
lastChange = "2015-02-24 04:03:16 +0000";
layers = (
{
anchors = (
{
name = bottom;
position = "{252.5, 0}";
},
{
name = horn;
position = "{326.5, 438.5}";
},
{
name = ogonek;
position = "{297.5, 0}";
},
{
name = top;
position = "{247.5, 454}";
}
);
layerId = "A2A4A5F3-E0E0-4E92-91CC-8026BABF9DB1";
paths = (
{
closed = 1;
nodes = (
"378.5 -5 OFFCURVE",
"446 74.5 OFFCURVE",
"446 225 CURVE SMOOTH",
"446 376 OFFCURVE",
"376.5 459 OFFCURVE",
"249 459 CURVE SMOOTH",
"120 459 OFFCURVE",
"47.5 375 OFFCURVE",
"47.5 225 CURVE SMOOTH",
"47.5 75.5 OFFCURVE",
"118 -5 OFFCURVE",
"249 -5 CURVE SMOOTH"
);
},
{
closed = 1;
nodes = (
"161.5 57.5 OFFCURVE",
"124 111 OFFCURVE",
"124 226.5 CURVE SMOOTH",
"124 343 OFFCURVE",
"162.5 396.5 OFFCURVE",
"246.5 396.5 CURVE SMOOTH",
"331.5 396.5 OFFCURVE",
"370.5 342 OFFCURVE",
"370.5 226.5 CURVE SMOOTH",
"370.5 111 OFFCURVE",
"331.5 57.5 OFFCURVE",
"246.5 57.5 CURVE SMOOTH"
);
}
);
width = 494;
},
{
anchors = (
{
name = bottom;
position = "{252.5, 0}";
},
{
name = horn;
position = "{336, 438.5}";
},
{
name = ogonek;
position = "{306.5, 0}";
},
{
name = top;
position = "{247.5, 454}";
}
);
layerId = "163C89DF-00F0-42B6-A1D9-DCBEB7633CF5";
paths = (
{
closed = 1;
nodes = (
"385.5 -7 OFFCURVE",
"457.5 76.5 OFFCURVE",
"457.5 227.5 CURVE SMOOTH",
"457.5 378.5 OFFCURVE",
"385.5 461 OFFCURVE",
"247.5 461 CURVE SMOOTH",
"109.5 461 OFFCURVE",
"36.5 378.5 OFFCURVE",
"36.5 227.5 CURVE SMOOTH",
"36.5 76.5 OFFCURVE",
"109.5 -7 OFFCURVE",
"247.5 -7 CURVE SMOOTH"
);
},
{
closed = 1;
nodes = (
"192 94.5 OFFCURVE",
"166.5 140.5 OFFCURVE",
"166.5 227.5 CURVE SMOOTH",
"166.5 314 OFFCURVE",
"192 359.5 OFFCURVE",
"247.5 359.5 CURVE SMOOTH",
"303 359.5 OFFCURVE",
"327 314 OFFCURVE",
"327 227.5 CURVE SMOOTH",
"327 140.5 OFFCURVE",
"303 94.5 OFFCURVE",
"247.5 94.5 CURVE SMOOTH"
);
}
);
width = 494;
}
);
leftKerningGroup = o;
rightKerningGroup = o;
unicode = 006F;
},
{
glyphname = oslash;
lastChange = "2015-02-24 04:03:16 +0000";
layers = (
{
anchors = (
{
name = top;
position = "{247.5, 454}";
}
);
layerId = "A2A4A5F3-E0E0-4E92-91CC-8026BABF9DB1";
paths = (
{
closed = 1;
nodes = (
"339.5 -4.5 OFFCURVE",
"446 29.5 OFFCURVE",
"446 225 CURVE SMOOTH",
"446 297 OFFCURVE",
"431.5 347 OFFCURVE",
"408 383 CURVE",
"442 422 LINE SMOOTH",
"445.5 426 OFFCURVE",
"447 429.5 OFFCURVE",
"447 434 CURVE SMOOTH",
"447 441 OFFCURVE",
"435 452 OFFCURVE",
"428 452 CURVE SMOOTH",
"423.5 452 OFFCURVE",
"420 449.5 OFFCURVE",
"416 445.5 CURVE SMOOTH",
"386.5 410.5 LINE",
"347 448 OFFCURVE",
"296 458.5 OFFCURVE",
"249 458.5 CURVE SMOOTH",
"159 458.5 OFFCURVE",
"47.5 420 OFFCURVE",
"47.5 225 CURVE SMOOTH",
"47.5 150 OFFCURVE",
"63.5 99 OFFCURVE",
"88.5 64 CURVE",
"61.5 32 LINE SMOOTH",
"58 28 OFFCURVE",
"55.5 24.5 OFFCURVE",
"55.5 20 CURVE SMOOTH",
"55.5 13 OFFCURVE",
"67.5 1.5 OFFCURVE",
"75.5 1.5 CURVE SMOOTH",
"80 1.5 OFFCURVE",
"83.5 4.5 OFFCURVE",
"87.5 8.5 CURVE SMOOTH",
"113 38 LINE",
"152 4.5 OFFCURVE",
"203 -4.5 OFFCURVE",
"249 -4.5 CURVE SMOOTH"
);
},
{
closed = 1;
nodes = (
"209 58 OFFCURVE",
"179.5 67.5 OFFCURVE",
"159 91 CURVE",
"356.5 323 LINE",
"366.5 297.5 OFFCURVE",
"370.5 266.5 OFFCURVE",
"370.5 226.5 CURVE SMOOTH",
"370.5 100.5 OFFCURVE",
"324 58 OFFCURVE",
"246.5 58 CURVE SMOOTH"
);
},
{
closed = 1;
nodes = (
"128.5 148.5 OFFCURVE",
"123.5 182.5 OFFCURVE",
"123.5 226.5 CURVE SMOOTH",
"123.5 352.5 OFFCURVE",
"169.5 396 OFFCURVE",
"246.5 396 CURVE SMOOTH",
"285.5 396 OFFCURVE",
"317.5 384.5 OFFCURVE",
"339.5 356 CURVE",
"139 123.5 LINE"
);
}
);
width = 494;
},
{
anchors = (
{
name = top;
position = "{247.5, 454}";
}
);
layerId = "163C89DF-00F0-42B6-A1D9-DCBEB7633CF5";
paths = (
{
closed = 1;
nodes = (
"385.5 -7 OFFCURVE",
"457.5 76.5 OFFCURVE",
"457.5 227.5 CURVE SMOOTH",
"457.5 290 OFFCURVE",
"444.5 341 OFFCURVE",
"420 379.5 CURVE",
"451.5 416 LINE SMOOTH",
"456.5 422 OFFCURVE",
"460 428 OFFCURVE",
"460 434 CURVE SMOOTH",
"460 449 OFFCURVE",
"432.5 472 OFFCURVE",
"418.5 472 CURVE SMOOTH",
"412.5 472 OFFCURVE",
"405.5 468 OFFCURVE",
"399.5 461 CURVE SMOOTH",
"371.5 429 LINE",
"339.5 449.5 OFFCURVE",
"297.5 461 OFFCURVE",
"247.5 461 CURVE SMOOTH",
"109.5 461 OFFCURVE",
"36.5 378.5 OFFCURVE",
"36.5 227.5 CURVE SMOOTH",
"36.5 166.5 OFFCURVE",
"47.5 117 OFFCURVE",
"71 79 CURVE",
"42.5 46 LINE SMOOTH",
"36.5 39 OFFCURVE",
"34 34 OFFCURVE",
"34 28 CURVE SMOOTH",
"34 11.5 OFFCURVE",
"61.5 -10.5 OFFCURVE",
"75.5 -10.5 CURVE SMOOTH",
"81.5 -10.5 OFFCURVE",
"87.5 -7 OFFCURVE",
"93.5 1 CURVE SMOOTH",
"118 28.5 LINE",
"151 5 OFFCURVE",
"194.5 -7 OFFCURVE",
"247.5 -7 CURVE SMOOTH"
);
},
{
closed = 1;
nodes = (
"225 94.5 OFFCURVE",
"207.5 102.5 OFFCURVE",
"194.5 117 CURVE",
"324.5 269 LINE",
"326.5 256 OFFCURVE",
"327 242 OFFCURVE",
"327 227.5 CURVE SMOOTH",
"327 140.5 OFFCURVE",
"303 94.5 OFFCURVE",
"247.5 94.5 CURVE SMOOTH"
);
},
{
closed = 1;
nodes = (
"167.5 203 OFFCURVE",
"166.5 214.5 OFFCURVE",
"166.5 227.5 CURVE SMOOTH",
"166.5 314 OFFCURVE",
"192 359.5 OFFCURVE",
"247.5 359.5 CURVE SMOOTH",
"267.5 359.5 OFFCURVE",
"284 353.5 OFFCURVE",
"296 341 CURVE",
"168.5 192 LINE"
);
}
);
width = 494;
}
);
unicode = 00F8;
},
{
glyphname = oe;
lastChange = "2015-02-24 04:03:16 +0000";
layers = (
{
anchors = (
{
name = top;
position = "{378.5, 454}";
}
);
components = (
{
name = e;
transform = "{1, 0, 0, 1, 279.496, 0}";
}
);
layerId = "A2A4A5F3-E0E0-4E92-91CC-8026BABF9DB1";
paths = (
{
closed = 1;
nodes = (
"308 -5 OFFCURVE",
"355 11.5 OFFCURVE",
"388 43.5 CURVE",
"387 408 LINE",
"354 442 OFFCURVE",
"307.5 459 OFFCURVE",
"249 459 CURVE SMOOTH",
"120 459 OFFCURVE",
"47.5 375 OFFCURVE",
"47.5 225 CURVE SMOOTH",
"47.5 75.5 OFFCURVE",
"118 -5 OFFCURVE",
"249 -5 CURVE SMOOTH"
);
},
{
closed = 1;
nodes = (
"161.5 57.5 OFFCURVE",
"124 111 OFFCURVE",
"124 226.5 CURVE SMOOTH",
"124 343 OFFCURVE",
"162.5 396.5 OFFCURVE",
"246.5 396.5 CURVE SMOOTH",
"340.5 396.5 OFFCURVE",
"382 342 OFFCURVE",
"382 226.5 CURVE SMOOTH",
"382 111 OFFCURVE",
"340.5 57.5 OFFCURVE",
"246.5 57.5 CURVE SMOOTH"
);
}
);
width = 756;
},
{
anchors = (
{
name = top;
position = "{378.5, 454}";
}
);
components = (
{
name = e;
transform = "{1, 0, 0, 1, 290.78, 0}";
}
);
layerId = "163C89DF-00F0-42B6-A1D9-DCBEB7633CF5";
paths = (
{
closed = 1;
nodes = (
"310 -7 OFFCURVE",
"358.5 14 OFFCURVE",
"394 47 CURVE",
"391.5 408 LINE",
"356.5 440 OFFCURVE",
"308 461 OFFCURVE",
"246.5 461 CURVE SMOOTH",
"108.5 461 OFFCURVE",
"35.5 378.5 OFFCURVE",
"35.5 227.5 CURVE SMOOTH",
"35.5 76.5 OFFCURVE",
"108.5 -7 OFFCURVE",
"246.5 -7 CURVE SMOOTH"
);
},
{
closed = 1;
nodes = (
"191 94.5 OFFCURVE",
"166 140.5 OFFCURVE",
"166 227.5 CURVE SMOOTH",
"166 314 OFFCURVE",
"191 359.5 OFFCURVE",
"246.5 359.5 CURVE SMOOTH",
"302 359.5 OFFCURVE",
"326.5 314 OFFCURVE",
"326.5 227.5 CURVE SMOOTH",
"326.5 140.5 OFFCURVE",
"302 94.5 OFFCURVE",
"246.5 94.5 CURVE SMOOTH"
);
}
);
width = 756;
}
);
unicode = 0153;
},
{
glyphname = p;
lastChange = "2015-02-24 04:03:16 +0000";
layers = (
{
layerId = "A2A4A5F3-E0E0-4E92-91CC-8026BABF9DB1";
paths = (
{
closed = 1;
nodes = (
"113 -180.5 LINE SMOOTH",
"137 -180.5 OFFCURVE",
"147.5 -173.5 OFFCURVE",
"147.5 -161.5 CURVE SMOOTH",
"147.5 39 LINE",
"181.5 13 OFFCURVE",
"218 -5 OFFCURVE",
"271.5 -5 CURVE SMOOTH",
"375 -5 OFFCURVE",
"448 76.5 OFFCURVE",
"448 226.5 CURVE SMOOTH",
"448 360 OFFCURVE",
"387 459 OFFCURVE",
"279.5 459 CURVE SMOOTH",
"230 459 OFFCURVE",
"184 438.5 OFFCURVE",
"141.5 394 CURVE",
"136.5 416.5 OFFCURVE",
"132 451.5 OFFCURVE",
"111 451.5 CURVE SMOOTH",
"100 451.5 OFFCURVE",
"64 448 OFFCURVE",
"64 431.5 CURVE SMOOTH",
"64 427 OFFCURVE",
"74.5 393 OFFCURVE",
"74.5 322 CURVE SMOOTH",
"74.5 -161.5 LINE SMOOTH",
"74.5 -173.5 OFFCURVE",
"85 -180.5 OFFCURVE",
"109.5 -180.5 CURVE SMOOTH"
);
},
{
closed = 1;
nodes = (
"215.5 59 OFFCURVE",
"179 72 OFFCURVE",
"147.5 98 CURVE",
"147.5 336 LINE",
"183 375 OFFCURVE",
"226.5 396 OFFCURVE",
"264.5 396 CURVE SMOOTH",
"333.5 396 OFFCURVE",
"371.5 332.5 OFFCURVE",
"371.5 220.5 CURVE SMOOTH",
"371.5 117 OFFCURVE",
"332.5 61 OFFCURVE",
"255 59 CURVE SMOOTH"
);
}
);
width = 497.5;
},
{
layerId = "163C89DF-00F0-42B6-A1D9-DCBEB7633CF5";
paths = (
{
closed = 1;
nodes = (
"137 -179 LINE SMOOTH",
"173.5 -179 OFFCURVE",
"189 -169.5 OFFCURVE",
"189 -151 CURVE SMOOTH",
"189 20 LINE",
"207.5 7 OFFCURVE",
"237 -7 OFFCURVE",
"278 -7 CURVE SMOOTH",
"395 -7 OFFCURVE",
"461 85 OFFCURVE",
"461 226.5 CURVE SMOOTH",
"461 377.5 OFFCURVE",
"392.5 461 OFFCURVE",
"298.5 461 CURVE SMOOTH",
"245 461 OFFCURVE",
"202 433 OFFCURVE",
"182.5 396 CURVE",
"177 416.5 OFFCURVE",
"175.5 451.5 OFFCURVE",
"147.5 451.5 CURVE SMOOTH",
"126 451.5 OFFCURVE",
"50.5 444.5 OFFCURVE",
"50.5 423.5 CURVE SMOOTH",
"50.5 406 OFFCURVE",
"61 388 OFFCURVE",
"61 301 CURVE SMOOTH",
"61 -151 LINE SMOOTH",
"61 -169.5 OFFCURVE",
"76.5 -179 OFFCURVE",
"113 -179 CURVE SMOOTH"
);
},
{
closed = 1;
nodes = (
"223 94.5 OFFCURVE",
"203 103.5 OFFCURVE",
"189 111 CURVE",
"189 304.5 LINE",
"205 331.5 OFFCURVE",
"227.5 356 OFFCURVE",
"260.5 356 CURVE SMOOTH",
"308 356 OFFCURVE",
"330.5 310.5 OFFCURVE",
"330.5 226.5 CURVE SMOOTH",
"330.5 139.5 OFFCURVE",
"304.5 94.5 OFFCURVE",
"250 94.5 CURVE SMOOTH"
);
}
);
width = 497.5;
}
);
unicode = 0070;
},
{
glyphname = thorn;
lastChange = "2015-02-24 04:03:16 +0000";
layers = (
{
layerId = "A2A4A5F3-E0E0-4E92-91CC-8026BABF9DB1";
paths = (
{
closed = 1;
nodes = (
"112 -180.5 LINE SMOOTH",
"136.5 -180.5 OFFCURVE",
"146.5 -173.5 OFFCURVE",
"146.5 -161.5 CURVE SMOOTH",
"146.5 39 LINE",
"180.5 13 OFFCURVE",
"217 -5 OFFCURVE",
"271 -5 CURVE SMOOTH",
"374 -5 OFFCURVE",
"447 76.5 OFFCURVE",
"447 225.5 CURVE SMOOTH",
"447 362 OFFCURVE",
"383 459 OFFCURVE",
"278.5 459 CURVE SMOOTH",
"232 459 OFFCURVE",
"187.5 440 OFFCURVE",
"146.5 400 CURVE",
"146.5 633.5 LINE SMOOTH",
"146.5 646 OFFCURVE",
"136.5 652.5 OFFCURVE",
"112 652.5 CURVE SMOOTH",
"108.5 652.5 LINE SMOOTH",
"84 652.5 OFFCURVE",
"74 646 OFFCURVE",
"74 633.5 CURVE SMOOTH",
"74 -161.5 LINE SMOOTH",
"74 -173.5 OFFCURVE",
"84 -180.5 OFFCURVE",
"108.5 -180.5 CURVE SMOOTH"
);
},
{
closed = 1;
nodes = (
"214.5 59 OFFCURVE",
"178 72 OFFCURVE",
"146.5 98 CURVE",
"146.5 336 LINE",
"182.5 375 OFFCURVE",
"225.5 396 OFFCURVE",
"264 396 CURVE SMOOTH",
"332.5 396 OFFCURVE",
"370.5 332.5 OFFCURVE",
"370.5 220.5 CURVE SMOOTH",
"370.5 117 OFFCURVE",
"331.5 61 OFFCURVE",
"254.5 59 CURVE SMOOTH"
);
}
);
width = 495;
},
{
layerId = "163C89DF-00F0-42B6-A1D9-DCBEB7633CF5";
paths = (
{
closed = 1;
nodes = (
"133 -179 LINE SMOOTH",
"169.5 -179 OFFCURVE",
"185 -169.5 OFFCURVE",
"185 -151 CURVE SMOOTH",
"185 20 LINE",
"203 7 OFFCURVE",
"232.5 -7 OFFCURVE",
"273.5 -7 CURVE SMOOTH",
"390.5 -7 OFFCURVE",
"456.5 85 OFFCURVE",
"456.5 226.5 CURVE SMOOTH",
"456.5 377.5 OFFCURVE",
"388 461 OFFCURVE",
"294.5 461 CURVE SMOOTH",
"246.5 461 OFFCURVE",
"206.5 439 OFFCURVE",
"185 408 CURVE",
"185 626.5 LINE SMOOTH",
"185 645 OFFCURVE",
"169.5 654.5 OFFCURVE",
"133 654.5 CURVE SMOOTH",
"108.5 654.5 LINE SMOOTH",
"72 654.5 OFFCURVE",
"56.5 645 OFFCURVE",
"56.5 626.5 CURVE SMOOTH",
"56.5 -151 LINE SMOOTH",
"56.5 -169.5 OFFCURVE",
"72 -179 OFFCURVE",
"108.5 -179 CURVE SMOOTH"
);
},
{
closed = 1;
nodes = (
"218.5 94.5 OFFCURVE",
"199 103.5 OFFCURVE",
"185 111 CURVE",
"185 304.5 LINE",
"200.5 331.5 OFFCURVE",
"223 356 OFFCURVE",
"256 356 CURVE SMOOTH",
"304 356 OFFCURVE",
"326.5 310.5 OFFCURVE",
"326.5 226.5 CURVE SMOOTH",
"326.5 139.5 OFFCURVE",
"300.5 94.5 OFFCURVE",
"245.5 94.5 CURVE SMOOTH"
);
}
);
width = 495;
}
);
unicode = 00FE;
},
{
glyphname = q;
lastChange = "2015-02-24 04:03:16 +0000";
layers = (
{
layerId = "A2A4A5F3-E0E0-4E92-91CC-8026BABF9DB1";
paths = (
{
closed = 1;
nodes = (
"383.5 -180.5 LINE SMOOTH",
"408 -180.5 OFFCURVE",
"418.5 -173.5 OFFCURVE",
"418.5 -161.5 CURVE SMOOTH",
"418.5 436.5 LINE SMOOTH",
"418.5 449 OFFCURVE",
"410.5 455.5 OFFCURVE",
"392.5 455.5 CURVE SMOOTH",
"389 455.5 LINE SMOOTH",
"376.5 455.5 OFFCURVE",
"369 453 OFFCURVE",
"365.5 445.5 CURVE SMOOTH",
"358.5 428 OFFCURVE",
"355 411.5 OFFCURVE",
"351.5 394 CURVE",
"309 438.5 OFFCURVE",
"263 459 OFFCURVE",
"213.5 459 CURVE SMOOTH",
"109.5 459 OFFCURVE",
"45 362 OFFCURVE",
"45 225.5 CURVE SMOOTH",
"45 76.5 OFFCURVE",
"118 -5 OFFCURVE",
"221.5 -5 CURVE SMOOTH",
"275 -5 OFFCURVE",
"311.5 13 OFFCURVE",
"345.5 39 CURVE",
"345.5 -161.5 LINE SMOOTH",
"345.5 -173.5 OFFCURVE",
"356 -180.5 OFFCURVE",
"380 -180.5 CURVE SMOOTH"
);
},
{
closed = 1;
nodes = (
"160.5 61 OFFCURVE",
"121.5 117 OFFCURVE",
"121.5 220.5 CURVE SMOOTH",
"121.5 332.5 OFFCURVE",
"159.5 396 OFFCURVE",
"228.5 396 CURVE SMOOTH",
"266.5 396 OFFCURVE",
"310 375 OFFCURVE",
"345.5 336 CURVE",
"345.5 98 LINE",
"314 72 OFFCURVE",
"278 59 OFFCURVE",
"238 59 CURVE SMOOTH"
);
}
);
width = 491.5;
},
{
layerId = "163C89DF-00F0-42B6-A1D9-DCBEB7633CF5";
paths = (
{
closed = 1;
nodes = (
"389 -179 LINE SMOOTH",
"425.5 -179 OFFCURVE",
"441 -169.5 OFFCURVE",
"441 -151 CURVE SMOOTH",
"441 428 LINE SMOOTH",
"441 446 OFFCURVE",
"425.5 455.5 OFFCURVE",
"389 455.5 CURVE SMOOTH",
"378.5 455.5 LINE SMOOTH",
"350.5 455.5 OFFCURVE",
"332.5 452 OFFCURVE",
"328 433 CURVE SMOOTH",
"325.5 421 OFFCURVE",
"322 408 OFFCURVE",
"319.5 396 CURVE",
"299.5 433 OFFCURVE",
"257 461 OFFCURVE",
"203 461 CURVE SMOOTH",
"107 461 OFFCURVE",
"36.5 377.5 OFFCURVE",
"36.5 226.5 CURVE SMOOTH",
"36.5 85 OFFCURVE",
"104 -7 OFFCURVE",
"224 -7 CURVE SMOOTH",
"264.5 -7 OFFCURVE",
"294.5 7 OFFCURVE",
"312.5 20 CURVE",
"312.5 -151 LINE SMOOTH",
"312.5 -169.5 OFFCURVE",
"328 -179 OFFCURVE",
"364.5 -179 CURVE SMOOTH"
);
},
{
closed = 1;
nodes = (
"194.5 94.5 OFFCURVE",
"166.5 139.5 OFFCURVE",
"166.5 226.5 CURVE SMOOTH",
"166.5 310.5 OFFCURVE",
"191 356 OFFCURVE",
"241.5 356 CURVE SMOOTH",
"274.5 356 OFFCURVE",
"297 331.5 OFFCURVE",
"312.5 304.5 CURVE",
"312.5 111 LINE",
"298.5 103.5 OFFCURVE",
"278.5 94.5 OFFCURVE",
"251.5 94.5 CURVE SMOOTH"
);
}
);
width = 491.5;
}
);
unicode = 0071;
},
{
glyphname = r;
lastChange = "2015-02-24 04:03:16 +0000";
layers = (
{
anchors = (
{
name = bottom;
position = "{116.5, -1.5}";
},
{
name = top;
position = "{114.5, 451.5}";
}
);
layerId = "A2A4A5F3-E0E0-4E92-91CC-8026BABF9DB1";
paths = (
{
closed = 1;
nodes = (
"116.5 -1.5 LINE SMOOTH",
"140.5 -1.5 OFFCURVE",
"151 5 OFFCURVE",
"151 17.5 CURVE SMOOTH",
"151 335 LINE",
"151 335 OFFCURVE",
"186 388 OFFCURVE",
"231 388 CURVE SMOOTH",
"260.5 388 OFFCURVE",
"267.5 378.5 OFFCURVE",
"278.5 378.5 CURVE SMOOTH",
"289 378.5 OFFCURVE",
"296 409 OFFCURVE",
"296 425.5 CURVE SMOOTH",
"296 444.5 OFFCURVE",
"279.5 459 OFFCURVE",
"245.5 459 CURVE SMOOTH",
"209 459 OFFCURVE",
"174.5 435.5 OFFCURVE",
"145 394 CURVE",
"139.5 416.5 OFFCURVE",
"135.5 451.5 OFFCURVE",
"114.5 451.5 CURVE SMOOTH",
"103.5 451.5 OFFCURVE",
"67.5 448 OFFCURVE",
"67.5 431.5 CURVE SMOOTH",
"67.5 427 OFFCURVE",
"78 393 OFFCURVE",
"78 322 CURVE SMOOTH",
"78 17.5 LINE SMOOTH",
"78 5 OFFCURVE",
"88.5 -1.5 OFFCURVE",
"113 -1.5 CURVE SMOOTH"
);
}
);
width = 317.5;
},
{
anchors = (
{
name = bottom;
position = "{130, -1.5}";
},
{
name = top;
position = "{115.5, 454}";
}
);
layerId = "163C89DF-00F0-42B6-A1D9-DCBEB7633CF5";
paths = (
{
closed = 1;
nodes = (
"130 -1.5 LINE SMOOTH",
"166.5 -1.5 OFFCURVE",
"182.5 8 OFFCURVE",
"182.5 26 CURVE SMOOTH",
"182.5 304.5 LINE",
"192.5 322 OFFCURVE",
"216 348 OFFCURVE",
"251.5 348 CURVE SMOOTH",
"269 348 OFFCURVE",
"280.5 341 OFFCURVE",
"292.5 341 CURVE SMOOTH",
"310 341 OFFCURVE",
"319.5 397.5 OFFCURVE",
"319.5 414 CURVE SMOOTH",
"319.5 431.5 OFFCURVE",
"312.5 461 OFFCURVE",
"270 461 CURVE SMOOTH",
"219.5 461 OFFCURVE",
"193.5 428 OFFCURVE",
"175.5 395 CURVE",
"170 416.5 OFFCURVE",
"168.5 451.5 OFFCURVE",
"140.5 451.5 CURVE SMOOTH",
"119 451.5 OFFCURVE",
"43.5 444.5 OFFCURVE",
"43.5 423.5 CURVE SMOOTH",
"43.5 406 OFFCURVE",
"54 388 OFFCURVE",
"54 301 CURVE SMOOTH",
"54 26 LINE SMOOTH",
"54 8 OFFCURVE",
"69.5 -1.5 OFFCURVE",
"106 -1.5 CURVE SMOOTH"
);
}
);
width = 317.5;
}
);
unicode = 0072;
},
{
glyphname = s;
lastChange = "2015-02-24 04:03:16 +0000";
layers = (
{
anchors = (
{
name = bottom;
position = "{179.5, 0}";
},
{
name = top;
position = "{179.5, 454}";
}
);
layerId = "A2A4A5F3-E0E0-4E92-91CC-8026BABF9DB1";
paths = (
{
closed = 1;
nodes = (
"254.5 -8 OFFCURVE",
"322 49.5 OFFCURVE",
"322 127.5 CURVE SMOOTH",
"322 206.5 OFFCURVE",
"290 235 OFFCURVE",
"183 268 CURVE SMOOTH",
"134.5 283 OFFCURVE",
"115.5 304.5 OFFCURVE",
"115.5 343.5 CURVE SMOOTH",
"115.5 377.5 OFFCURVE",
"149.5 398.5 OFFCURVE",
"192.5 398.5 CURVE SMOOTH",
"239.5 398.5 OFFCURVE",
"267.5 376 OFFCURVE",
"271.5 376 CURVE SMOOTH",
"283 376 OFFCURVE",
"299.5 409 OFFCURVE",
"299.5 422.5 CURVE SMOOTH",
"299.5 442 OFFCURVE",
"244 460 OFFCURVE",
"185 460 CURVE SMOOTH",
"100.5 460 OFFCURVE",
"41 407 OFFCURVE",
"41 334 CURVE SMOOTH",
"41 269 OFFCURVE",
"67.5 232 OFFCURVE",
"161.5 204 CURVE SMOOTH",
"226.5 185 OFFCURVE",
"248 165 OFFCURVE",
"248 126 CURVE SMOOTH",
"248 78 OFFCURVE",
"218.5 55.5 OFFCURVE",
"163 55.5 CURVE SMOOTH",
"101.5 55.5 OFFCURVE",
"67 90.5 OFFCURVE",
"61 90.5 CURVE SMOOTH",
"48.5 90.5 OFFCURVE",
"30.5 56.5 OFFCURVE",
"30.5 47 CURVE SMOOTH",
"30.5 27 OFFCURVE",
"89.5 -8 OFFCURVE",
"168.5 -8 CURVE SMOOTH"
);
}
);
width = 358.5;
},
{
anchors = (
{
name = bottom;
position = "{179.5, 0}";
},
{
name = top;
position = "{179.5, 454}";
}
);
layerId = "163C89DF-00F0-42B6-A1D9-DCBEB7633CF5";
paths = (
{
closed = 1;
nodes = (
"279.5 -7 OFFCURVE",
"341 53 OFFCURVE",
"341 141.5 CURVE SMOOTH",
"341 210 OFFCURVE",
"304.5 242 OFFCURVE",
"265.5 261.5 CURVE SMOOTH",
"219.5 283 OFFCURVE",
"167.5 291.5 OFFCURVE",
"167.5 330 CURVE SMOOTH",
"167.5 351.5 OFFCURVE",
"185 360 OFFCURVE",
"213.5 360 CURVE SMOOTH",
"254.5 360 OFFCURVE",
"278.5 342 OFFCURVE",
"288 342 CURVE SMOOTH",
"304.5 342 OFFCURVE",
"325.5 391.5 OFFCURVE",
"325.5 410.5 CURVE SMOOTH",
"325.5 447 OFFCURVE",
"245.5 461 OFFCURVE",
"195.5 461 CURVE SMOOTH",
"99 461 OFFCURVE",
"37.5 409 OFFCURVE",
"37.5 318.5 CURVE SMOOTH",
"37.5 232 OFFCURVE",
"93.5 205 OFFCURVE",
"136.5 188.5 CURVE SMOOTH",
"175.5 172.5 OFFCURVE",
"211 164 OFFCURVE",
"211 131 CURVE SMOOTH",
"211 107.5 OFFCURVE",
"193.5 94.5 OFFCURVE",
"160.5 94.5 CURVE SMOOTH",
"114.5 94.5 OFFCURVE",
"86 119 OFFCURVE",
"73 119 CURVE SMOOTH",
"55.5 119 OFFCURVE",
"27 74.5 OFFCURVE",
"27 52 CURVE SMOOTH",
"27 15 OFFCURVE",
"106 -7 OFFCURVE",
"171 -7 CURVE SMOOTH"
);
}
);
width = 358.5;
}
);
unicode = 0073;
},
{
glyphname = germandbls;
lastChange = "2015-02-24 04:03:16 +0000";
layers = (
{
layerId = "A2A4A5F3-E0E0-4E92-91CC-8026BABF9DB1";
paths = (
{
closed = 1;
nodes = (
"116.5 -1.5 LINE SMOOTH",
"140.5 -1.5 OFFCURVE",
"151 5 OFFCURVE",
"151 17.5 CURVE SMOOTH",
"151 452 LINE SMOOTH",
"151 513 OFFCURVE",
"188.5 550.5 OFFCURVE",
"247.5 550.5 CURVE SMOOTH",
"293.5 550.5 OFFCURVE",
"343.5 533 OFFCURVE",
"343.5 458.5 CURVE SMOOTH",
"343.5 402 OFFCURVE",
"293.5 357.5 OFFCURVE",
"240.5 357.5 CURVE SMOOTH",
"232 357.5 LINE SMOOTH",
"219.5 357.5 OFFCURVE",
"214.5 350 OFFCURVE",
"214.5 331.5 CURVE SMOOTH",
"214.5 321 LINE SMOOTH",
"214.5 303 OFFCURVE",
"219.5 295 OFFCURVE",
"232 295 CURVE SMOOTH",
"260.5 295 LINE SMOOTH",
"321 295 OFFCURVE",
"370 251.5 OFFCURVE",
"370 179 CURVE SMOOTH",
"370 105 OFFCURVE",
"321 62.5 OFFCURVE",
"260.5 62.5 CURVE SMOOTH",
"232 62.5 LINE SMOOTH",
"219.5 62.5 OFFCURVE",
"214.5 54.5 OFFCURVE",
"214.5 36.5 CURVE SMOOTH",
"214.5 26 LINE SMOOTH",
"214.5 8 OFFCURVE",
"219.5 0 OFFCURVE",
"232 0 CURVE SMOOTH",
"259.5 0 LINE SMOOTH",
"363 0 OFFCURVE",
"446 62.5 OFFCURVE",
"446 179 CURVE SMOOTH",
"446 253.5 OFFCURVE",
"406 316 OFFCURVE",
"332.5 333.5 CURVE",
"332.5 336 LINE",
"385.5 358.5 OFFCURVE",
"421 415 OFFCURVE",
"421 465 CURVE SMOOTH",
"421 575.5 OFFCURVE",
"343.5 613 OFFCURVE",
"249 613 CURVE SMOOTH",
"146 613 OFFCURVE",
"78 547 OFFCURVE",
"78 452 CURVE SMOOTH",
"78 17.5 LINE SMOOTH",
"78 5 OFFCURVE",
"88.5 -1.5 OFFCURVE",
"113 -1.5 CURVE SMOOTH"
);
}
);
width = 481;
},
{
layerId = "163C89DF-00F0-42B6-A1D9-DCBEB7633CF5";
paths = (
{
closed = 1;
nodes = (
"126.5 -1.5 LINE SMOOTH",
"163 -1.5 OFFCURVE",
"179 8 OFFCURVE",
"179 26 CURVE SMOOTH",
"179 435.5 LINE SMOOTH",
"179 476.5 OFFCURVE",
"205 506 OFFCURVE",
"247.5 506 CURVE SMOOTH",
"293.5 506 OFFCURVE",
"310.5 469.5 OFFCURVE",
"310.5 443.5 CURVE SMOOTH",
"310.5 403.5 OFFCURVE",
"283 371.5 OFFCURVE",
"239.5 371.5 CURVE",
"237 371.5 LINE",
"221.5 371.5 OFFCURVE",
"213.5 356.5 OFFCURVE",
"213.5 328 CURVE SMOOTH",
"213.5 313.5 LINE SMOOTH",
"213.5 283 OFFCURVE",
"221.5 270 OFFCURVE",
"239.5 270 CURVE",
"241.5 270 LINE",
"298.5 270 OFFCURVE",
"332.5 234.5 OFFCURVE",
"332.5 182.5 CURVE SMOOTH",
"332.5 133.5 OFFCURVE",
"300.5 101.5 OFFCURVE",
"251.5 101.5 CURVE SMOOTH",
"239.5 101.5 LINE SMOOTH",
"221.5 101.5 OFFCURVE",
"213.5 88.5 OFFCURVE",
"213.5 58 CURVE SMOOTH",
"213.5 43.5 LINE SMOOTH",
"213.5 13 OFFCURVE",
"221.5 0 OFFCURVE",
"239.5 0 CURVE SMOOTH",
"259.5 0 LINE SMOOTH",
"385.5 0 OFFCURVE",
"462.5 78 OFFCURVE",
"462.5 182.5 CURVE SMOOTH",
"462.5 257 OFFCURVE",
"432.5 304.5 OFFCURVE",
"360 332.5 CURVE",
"360 336 LINE",
"413 357.5 OFFCURVE",
"441 403 OFFCURVE",
"441 460 CURVE SMOOTH",
"441 556.5 OFFCURVE",
"358.5 614.5 OFFCURVE",
"249 614.5 CURVE SMOOTH",
"133.5 614.5 OFFCURVE",
"50.5 541 OFFCURVE",
"50.5 425.5 CURVE SMOOTH",
"50.5 26 LINE SMOOTH",
"50.5 8 OFFCURVE",
"66 -1.5 OFFCURVE",
"102.5 -1.5 CURVE SMOOTH"
);
}
);
width = 481;
}
);
unicode = 00DF;
},
{
glyphname = longs;
lastChange = "2015-02-24 04:03:16 +0000";
layers = (
{
layerId = "A2A4A5F3-E0E0-4E92-91CC-8026BABF9DB1";
paths = (
{
closed = 1;
nodes = (
"132 -1.5 LINE SMOOTH",
"156 -1.5 OFFCURVE",
"166.5 5 OFFCURVE",
"166.5 17.5 CURVE",
"166.5 529.5 LINE",
"166.5 587 OFFCURVE",
"188.5 593.5 OFFCURVE",
"213.5 593.5 CURVE SMOOTH",
"238.5 593.5 OFFCURVE",
"243 589.5 OFFCURVE",
"251 589.5 CURVE SMOOTH",
"263 589.5 OFFCURVE",
"269 623 OFFCURVE",
"269 630 CURVE SMOOTH",
"269 653.5 OFFCURVE",
"229 656 OFFCURVE",
"205.5 656 CURVE SMOOTH",
"162.5 656 OFFCURVE",
"93.5 639.5 OFFCURVE",
"93.5 536.5 CURVE SMOOTH",
"93.5 454 LINE",
"59 454 LINE SMOOTH",
"47 454 OFFCURVE",
"41.5 446 OFFCURVE",
"41.5 428 CURVE SMOOTH",
"41.5 417.5 LINE SMOOTH",
"41.5 399.5 OFFCURVE",
"47 391.5 OFFCURVE",
"59 391.5 CURVE SMOOTH",
"93.5 391.5 LINE",
"93.5 17.5 LINE SMOOTH",
"93.5 5 OFFCURVE",
"104 -1.5 OFFCURVE",
"128.5 -1.5 CURVE SMOOTH"
);
}
);
width = 282;
},
{
layerId = "163C89DF-00F0-42B6-A1D9-DCBEB7633CF5";
paths = (
{
closed = 1;
nodes = (
"145 -1.5 LINE SMOOTH",
"181.5 -1.5 OFFCURVE",
"197 8 OFFCURVE",
"197 26 CURVE",
"197 521 LINE",
"197 547 OFFCURVE",
"205.5 558 OFFCURVE",
"228.5 558 CURVE SMOOTH",
"237 558 OFFCURVE",
"249 554.5 OFFCURVE",
"255 554.5 CURVE SMOOTH",
"272.5 554.5 OFFCURVE",
"282 610 OFFCURVE",
"282 617 CURVE SMOOTH",
"282 657 OFFCURVE",
"223 659.5 OFFCURVE",
"195.5 659.5 CURVE SMOOTH",
"113.5 659.5 OFFCURVE",
"68.5 615.5 OFFCURVE",
"68.5 519 CURVE SMOOTH",
"68.5 454 LINE",
"53 454 LINE SMOOTH",
"34.5 454 OFFCURVE",
"27 441 OFFCURVE",
"27 410.5 CURVE SMOOTH",
"27 396 LINE SMOOTH",
"27 365.5 OFFCURVE",
"34.5 352.5 OFFCURVE",
"53 352.5 CURVE SMOOTH",
"68.5 352.5 LINE",
"68.5 26 LINE SMOOTH",
"68.5 8 OFFCURVE",
"84 -1.5 OFFCURVE",
"120.5 -1.5 CURVE SMOOTH"
);
}
);
width = 282;
}
);
unicode = 017F;
},
{
glyphname = t;
lastChange = "2015-02-24 04:03:16 +0000";
layers = (
{
anchors = (
{
name = bottom;
position = "{187.5, 0}";
},
{
name = caron;
position = "{161.5, 652.5}";
},
{
name = center;
position = "{148.5, 253.5}";
}
);
layerId = "A2A4A5F3-E0E0-4E92-91CC-8026BABF9DB1";
paths = (
{
closed = 1;
nodes = (
"228.5 -5 OFFCURVE",
"268 -2.5 OFFCURVE",
"268 21 CURVE SMOOTH",
"268 28 OFFCURVE",
"262 61.5 OFFCURVE",
"250 61.5 CURVE SMOOTH",
"242 61.5 OFFCURVE",
"238 57.5 OFFCURVE",
"212.5 57.5 CURVE SMOOTH",
"187.5 57.5 OFFCURVE",
"166 69.5 OFFCURVE",
"166 121.5 CURVE SMOOTH",
"166 391.5 LINE",
"238.5 391.5 LINE SMOOTH",
"251 391.5 OFFCURVE",
"256 399.5 OFFCURVE",
"256 417.5 CURVE SMOOTH",
"256 428 LINE SMOOTH",
"256 446 OFFCURVE",
"251 454 OFFCURVE",
"238.5 454 CURVE SMOOTH",
"166 454 LINE",
"166 545 LINE SMOOTH",
"166 557.5 OFFCURVE",
"158 564 OFFCURVE",
"139.5 564 CURVE SMOOTH",
"131 564 LINE SMOOTH",
"113 564 OFFCURVE",
"104 557.5 OFFCURVE",
"103.5 545 CURVE SMOOTH",
"93 454 LINE",
"49.5 454 LINE SMOOTH",
"37.5 454 OFFCURVE",
"32 446 OFFCURVE",
"32 428 CURVE SMOOTH",
"32 417.5 LINE SMOOTH",
"32 399.5 OFFCURVE",
"37.5 391.5 OFFCURVE",
"49.5 391.5 CURVE SMOOTH",
"93 391.5 LINE",
"93 114.5 LINE SMOOTH",
"93 14 OFFCURVE",
"161.5 -5 OFFCURVE",
"205 -5 CURVE SMOOTH"
);
}
);
width = 297;
},
{
anchors = (
{
name = bottom;
position = "{174.5, 0}";
},
{
name = caron;
position = "{182.5, 652.5}";
},
{
name = center;
position = "{146.5, 253.5}";
}
);
layerId = "163C89DF-00F0-42B6-A1D9-DCBEB7633CF5";
paths = (
{
closed = 1;
nodes = (
"220.5 -7 OFFCURVE",
"277 -4.5 OFFCURVE",
"277 35.5 CURVE SMOOTH",
"277 42.5 OFFCURVE",
"267.5 98 OFFCURVE",
"250 98 CURVE SMOOTH",
"245 98 OFFCURVE",
"234.5 94.5 OFFCURVE",
"226.5 94.5 CURVE SMOOTH",
"204 94.5 OFFCURVE",
"195.5 106 OFFCURVE",
"195.5 132 CURVE SMOOTH",
"195.5 352.5 LINE",
"238 352.5 LINE SMOOTH",
"256 352.5 OFFCURVE",
"264 365.5 OFFCURVE",
"264 396 CURVE SMOOTH",
"264 410.5 LINE SMOOTH",
"264 441 OFFCURVE",
"256 454 OFFCURVE",
"238 454 CURVE SMOOTH",
"195.5 454 LINE",
"195.5 536.5 LINE SMOOTH",
"195.5 554.5 OFFCURVE",
"182.5 564 OFFCURVE",
"152 564 CURVE SMOOTH",
"125 564 LINE SMOOTH",
"96.5 564 OFFCURVE",
"80.5 554.5 OFFCURVE",
"78 536.5 CURVE SMOOTH",
"67 454 LINE",
"53 454 LINE SMOOTH",
"34.5 454 OFFCURVE",
"27 441 OFFCURVE",
"27 410.5 CURVE SMOOTH",
"27 396 LINE SMOOTH",
"27 365.5 OFFCURVE",
"34.5 352.5 OFFCURVE",
"53 352.5 CURVE SMOOTH",
"67 352.5 LINE",
"67 133.5 LINE SMOOTH",
"67 37.5 OFFCURVE",
"112 -7 OFFCURVE",
"193.5 -7 CURVE SMOOTH"
);
}
);
width = 297;
}
);
unicode = 0074;
},
{
glyphname = u;
lastChange = "2015-02-24 04:03:16 +0000";
layers = (
{
anchors = (
{
name = bottom;
position = "{218, 0}";
},
{
name = horn;
position = "{370.5, 455.5}";
},
{
name = ogonek;
position = "{406, 8.5}";
},
{
name = top;
position = "{242, 454}";
}
);
hints = (
{
horizontal = 1;
origin = "{0, 38}";
target = "{0, 23}";
type = Stem;
},
{
horizontal = 1;
origin = "{0, 31}";
target = down;
type = TopGhost;
},
{
horizontal = 1;
origin = "{0, 5}";
target = up;
type = BottomGhost;
},
{
origin = "{0, 35}";
target = "{0, 26}";
type = Stem;
},
{
origin = "{0, 20}";
target = "{0, 11}";
type = Stem;
}
);
layerId = "A2A4A5F3-E0E0-4E92-91CC-8026BABF9DB1";
paths = (
{
closed = 1;
nodes = (
"255 -5 OFFCURVE",
"305.5 19 OFFCURVE",
"342 60 CURVE",
"347 35.5 OFFCURVE",
"351.5 -1 OFFCURVE",
"372.5 -1 CURVE SMOOTH",
"383.5 -1 OFFCURVE",
"419 2.5 OFFCURVE",
"419 19 CURVE SMOOTH",
"419 23.5 OFFCURVE",
"409 57.5 OFFCURVE",
"409 128.5 CURVE SMOOTH",
"409 436.5 LINE SMOOTH",
"409 449 OFFCURVE",
"398.5 455.5 OFFCURVE",
"374 455.5 CURVE SMOOTH",
"370.5 455.5 LINE SMOOTH",
"346.5 455.5 OFFCURVE",
"336 449 OFFCURVE",
"336 436.5 CURVE SMOOTH",
"336 119 LINE",
"307.5 81.5 OFFCURVE",
"265.5 58 OFFCURVE",
"226.5 58 CURVE SMOOTH",
"170 58 OFFCURVE",
"138 89.5 OFFCURVE",
"138 142.5 CURVE SMOOTH",
"138 436.5 LINE SMOOTH",
"138 449 OFFCURVE",
"127.5 455.5 OFFCURVE",
"103.5 455.5 CURVE SMOOTH",
"100 455.5 LINE SMOOTH",
"75.5 455.5 OFFCURVE",
"65 449 OFFCURVE",
"65 436.5 CURVE SMOOTH",
"65 135.5 LINE SMOOTH",
"65 47.5 OFFCURVE",
"118 -5 OFFCURVE",
"206.5 -5 CURVE SMOOTH"
);
}
);
width = 483.5;
},
{
anchors = (
{
name = bottom;
position = "{218, 0}";
},
{
name = horn;
position = "{353.5, 455.5}";
},
{
name = ogonek;
position = "{394, 8.5}";
},
{
name = top;
position = "{242, 454}";
}
);
hints = (
{
horizontal = 1;
origin = "{0, 5}";
target = up;
type = BottomGhost;
},
{
horizontal = 1;
origin = "{0, 31}";
target = down;
type = TopGhost;
},
{
horizontal = 1;
origin = "{0, 38}";
target = "{0, 23}";
type = Stem;
},
{
origin = "{0, 35}";
target = "{0, 26}";
type = Stem;
},
{
origin = "{0, 20}";
target = "{0, 11}";
type = Stem;
}
);
layerId = "163C89DF-00F0-42B6-A1D9-DCBEB7633CF5";
paths = (
{
closed = 1;
nodes = (
"235 -7 OFFCURVE",
"283 26 OFFCURVE",
"308 59 CURVE",
"313.5 35.5 OFFCURVE",
"315 -1 OFFCURVE",
"343 -1 CURVE SMOOTH",
"364.5 -1 OFFCURVE",
"440 6 OFFCURVE",
"440 27 CURVE SMOOTH",
"440 45 OFFCURVE",
"429.5 63.5 OFFCURVE",
"429.5 153 CURVE SMOOTH",
"429.5 428 LINE SMOOTH",
"429.5 446 OFFCURVE",
"414 455.5 OFFCURVE",
"377.5 455.5 CURVE SMOOTH",
"353.5 455.5 LINE SMOOTH",
"317 455.5 OFFCURVE",
"301 446 OFFCURVE",
"301 428 CURVE SMOOTH",
"301 149.5 LINE",
"291 129.5 OFFCURVE",
"267.5 99 OFFCURVE",
"232 99 CURVE SMOOTH",
"193.5 99 OFFCURVE",
"179.5 119 OFFCURVE",
"179.5 153 CURVE SMOOTH",
"179.5 428 LINE SMOOTH",
"179.5 446 OFFCURVE",
"164 455.5 OFFCURVE",
"127.5 455.5 CURVE SMOOTH",
"103.5 455.5 LINE SMOOTH",
"67 455.5 OFFCURVE",
"51 446 OFFCURVE",
"51 428 CURVE SMOOTH",
"51 133.5 LINE SMOOTH",
"51 37.5 OFFCURVE",
"92 -7 OFFCURVE",
"179 -7 CURVE SMOOTH"
);
}
);
width = 483.5;
}
);
unicode = 0075;
},
{
glyphname = v;
lastChange = "2015-02-24 04:03:16 +0000";
layers = (
{
layerId = "A2A4A5F3-E0E0-4E92-91CC-8026BABF9DB1";
paths = (
{
closed = 1;
nodes = (
"225.5 -1.5 LINE SMOOTH",
"243 -1.5 OFFCURVE",
"257 1.5 OFFCURVE",
"260.5 12 CURVE SMOOTH",
"400 429 LINE SMOOTH",
"402 434 OFFCURVE",
"403 437.5 OFFCURVE",
"403 441 CURVE SMOOTH",
"403 450.5 OFFCURVE",
"393 455.5 OFFCURVE",
"370.5 455.5 CURVE",
"368 455.5 LINE",
"350 455.5 OFFCURVE",
"336 452 OFFCURVE",
"332.5 442 CURVE SMOOTH",
"243 163 LINE SMOOTH",
"232.5 130 OFFCURVE",
"224 86 OFFCURVE",
"217 56.5 CURVE",
"213.5 56.5 LINE",
"205.5 86 OFFCURVE",
"194.5 130 OFFCURVE",
"183 165 CURVE SMOOTH",
"94.5 442 LINE SMOOTH",
"91 452 OFFCURVE",
"77.5 455.5 OFFCURVE",
"60 455.5 CURVE SMOOTH",
"55.5 455.5 LINE SMOOTH",
"29.5 455.5 OFFCURVE",
"18 449.5 OFFCURVE",
"18 441 CURVE SMOOTH",
"18 437.5 OFFCURVE",
"20 432.5 OFFCURVE",
"21 429.5 CURVE SMOOTH",
"160.5 12 LINE SMOOTH",
"164 1.5 OFFCURVE",
"178 -1.5 OFFCURVE",
"195.5 -1.5 CURVE SMOOTH"
);
}
);
width = 421;
},
{
layerId = "163C89DF-00F0-42B6-A1D9-DCBEB7633CF5";
paths = (
{
closed = 1;
nodes = (
"224 -1.5 LINE SMOOTH",
"249 -1.5 OFFCURVE",
"268 2.5 OFFCURVE",
"272.5 16.5 CURVE SMOOTH",
"410.5 421 LINE SMOOTH",
"412.5 427 OFFCURVE",
"413 432.5 OFFCURVE",
"413 436.5 CURVE SMOOTH",
"413 449 OFFCURVE",
"397.5 455.5 OFFCURVE",
"361 455.5 CURVE SMOOTH",
"339.5 455.5 LINE SMOOTH",
"314 455.5 OFFCURVE",
"295 451.5 OFFCURVE",
"291 437.5 CURVE SMOOTH",
"239.5 277 LINE SMOOTH",
"233.5 257 OFFCURVE",
"223 210 OFFCURVE",
"215.5 172 CURVE",
"212 172 LINE",
"203 210 OFFCURVE",
"193.5 256 OFFCURVE",
"187.5 277 CURVE SMOOTH",
"136.5 437.5 LINE SMOOTH",
"132 451.5 OFFCURVE",
"113 455.5 OFFCURVE",
"87.5 455.5 CURVE SMOOTH",
"59 455.5 LINE SMOOTH",
"22.5 455.5 OFFCURVE",
"6 449 OFFCURVE",
"6 436.5 CURVE SMOOTH",
"6 432.5 OFFCURVE",
"8 427 OFFCURVE",
"9.5 421 CURVE SMOOTH",
"147.5 16.5 LINE SMOOTH",
"152 2.5 OFFCURVE",
"171 -1.5 OFFCURVE",
"196 -1.5 CURVE SMOOTH"
);
}
);
width = 421;
}
);
leftKerningGroup = v;
rightKerningGroup = v;
unicode = 0076;
},
{
glyphname = w;
lastChange = "2015-02-24 04:03:16 +0000";
layers = (
{
anchors = (
{
name = top;
position = "{324.5, 454}";
}
);
layerId = "A2A4A5F3-E0E0-4E92-91CC-8026BABF9DB1";
paths = (
{
closed = 1;
nodes = (
"205.5 -1.5 LINE SMOOTH",
"223 -1.5 OFFCURVE",
"238 1.5 OFFCURVE",
"240.5 12 CURVE SMOOTH",
"311.5 288 LINE SMOOTH",
"317 307.5 OFFCURVE",
"321 332.5 OFFCURVE",
"324.5 355 CURVE",
"328 332.5 OFFCURVE",
"332.5 307.5 OFFCURVE",
"337.5 287.5 CURVE SMOOTH",
"407 12 LINE SMOOTH",
"409.5 1.5 OFFCURVE",
"423.5 -1.5 OFFCURVE",
"441 -1.5 CURVE SMOOTH",
"467 -1.5 LINE SMOOTH",
"484.5 -1.5 OFFCURVE",
"499 1.5 OFFCURVE",
"501.5 12 CURVE SMOOTH",
"618 429 LINE SMOOTH",
"620 434 OFFCURVE",
"620.5 437.5 OFFCURVE",
"620.5 441 CURVE SMOOTH",
"620.5 450.5 OFFCURVE",
"609.5 455.5 OFFCURVE",
"586 455.5 CURVE SMOOTH",
"568.5 455.5 OFFCURVE",
"553 452 OFFCURVE",
"550.5 442 CURVE SMOOTH",
"477.5 163 LINE SMOOTH",
"470.5 136.5 OFFCURVE",
"463.5 97 OFFCURVE",
"457.5 66 CURVE",
"451.5 97 OFFCURVE",
"449 115.5 OFFCURVE",
"435.5 165 CURVE SMOOTH",
"363 441 LINE SMOOTH",
"359.5 452 OFFCURVE",
"346.5 455.5 OFFCURVE",
"329 455.5 CURVE SMOOTH",
"323 455.5 LINE SMOOTH",
"305.5 455.5 OFFCURVE",
"291.5 452 OFFCURVE",
"289 441 CURVE SMOOTH",
"217 165 LINE SMOOTH",
"209 137 OFFCURVE",
"200.5 95.5 OFFCURVE",
"195.5 65 CURVE",
"188.5 97 OFFCURVE",
"179 143 OFFCURVE",
"173.5 164 CURVE SMOOTH",
"100.5 442 LINE SMOOTH",
"98 452 OFFCURVE",
"83.5 455.5 OFFCURVE",
"66 455.5 CURVE SMOOTH",
"37.5 455.5 OFFCURVE",
"26 449.5 OFFCURVE",
"26 441 CURVE SMOOTH",
"26 437.5 OFFCURVE",
"28.5 429 OFFCURVE",
"30.5 423.5 CURVE SMOOTH",
"145 12 LINE",
"147.5 1.5 OFFCURVE",
"162.5 -1.5 OFFCURVE",
"179.5 -1.5 CURVE SMOOTH"
);
}
);
width = 648.5;
},
{
anchors = (
{
name = top;
position = "{324.5, 454}";
}
);
layerId = "163C89DF-00F0-42B6-A1D9-DCBEB7633CF5";
paths = (
{
closed = 1;
nodes = (
"217 -1.5 LINE SMOOTH",
"241.5 -1.5 OFFCURVE",
"262 4.5 OFFCURVE",
"264.5 16.5 CURVE SMOOTH",
"314 222 LINE",
"317.5 235 OFFCURVE",
"320.5 247.5 OFFCURVE",
"324 260.5 CURVE",
"327 248 OFFCURVE",
"330 235 OFFCURVE",
"333.5 223 CURVE",
"386.5 16.5 LINE SMOOTH",
"389.5 4.5 OFFCURVE",
"406 -1.5 OFFCURVE",
"434 -1.5 CURVE SMOOTH",
"476.5 -1.5 LINE SMOOTH",
"501 -1.5 OFFCURVE",
"521 4.5 OFFCURVE",
"524.5 16.5 CURVE SMOOTH",
"626.5 420 LINE SMOOTH",
"627.5 425.5 OFFCURVE",
"628.5 429.5 OFFCURVE",
"628.5 433 CURVE SMOOTH",
"628.5 447 OFFCURVE",
"612 455.5 OFFCURVE",
"574.5 455.5 CURVE SMOOTH",
"543.5 455.5 OFFCURVE",
"527 449.5 OFFCURVE",
"523.5 437.5 CURVE SMOOTH",
"463.5 208.5 LINE",
"460 195.5 OFFCURVE",
"456.5 183 OFFCURVE",
"453 170 CURVE",
"450.5 182.5 OFFCURVE",
"447 193.5 OFFCURVE",
"444.5 205.5 CURVE",
"389 437.5 LINE SMOOTH",
"386.5 449.5 OFFCURVE",
"365.5 455.5 OFFCURVE",
"341 455.5 CURVE SMOOTH",
"320.5 455.5 LINE SMOOTH",
"292.5 455.5 OFFCURVE",
"275 449.5 OFFCURVE",
"272.5 437.5 CURVE SMOOTH",
"217 211 LINE",
"213.5 197 OFFCURVE",
"210 184 OFFCURVE",
"206.5 170 CURVE",
"203 183 OFFCURVE",
"200.5 195.5 OFFCURVE",
"197 208.5 CURVE",
"138 437.5 LINE SMOOTH",
"134.5 450.5 OFFCURVE",
"116.5 455.5 OFFCURVE",
"69.5 455.5 CURVE SMOOTH",
"32 455.5 OFFCURVE",
"15.5 447 OFFCURVE",
"15.5 433 CURVE SMOOTH",
"15.5 429.5 OFFCURVE",
"15.5 425.5 OFFCURVE",
"17.5 420 CURVE SMOOTH",
"126.5 16.5 LINE SMOOTH",
"130 4.5 OFFCURVE",
"146 -1.5 OFFCURVE",
"174.5 -1.5 CURVE SMOOTH"
);
}
);
width = 648.5;
}
);
leftKerningGroup = v;
rightKerningGroup = v;
unicode = 0077;
},
{
glyphname = x;
lastChange = "2015-02-24 04:03:16 +0000";
layers = (
{
layerId = "A2A4A5F3-E0E0-4E92-91CC-8026BABF9DB1";
paths = (
{
closed = 1;
nodes = (
"57.5 -1.5 LINE",
"74.5 -1.5 OFFCURVE",
"89.5 1 OFFCURVE",
"96.5 10.5 CURVE SMOOTH",
"190 149.5 LINE SMOOTH",
"200.5 165 OFFCURVE",
"205 173.5 OFFCURVE",
"208.5 179.5 CURVE",
"212 173.5 OFFCURVE",
"216 165 OFFCURVE",
"226.5 149.5 CURVE SMOOTH",
"318.5 11.5 LINE SMOOTH",
"325.5 1 OFFCURVE",
"337.5 -1.5 OFFCURVE",
"356 -1.5 CURVE SMOOTH",
"363.5 -1.5 LINE SMOOTH",
"393 -1.5 OFFCURVE",
"403.5 3.5 OFFCURVE",
"403.5 13 CURVE SMOOTH",
"403.5 17.5 OFFCURVE",
"401 22.5 OFFCURVE",
"396.5 28.5 CURVE SMOOTH",
"256 234.5 LINE",
"387 425.5 LINE SMOOTH",
"391.5 431.5 OFFCURVE",
"394 436.5 OFFCURVE",
"394 441 CURVE SMOOTH",
"394 451.5 OFFCURVE",
"383.5 455.5 OFFCURVE",
"357.5 455.5 CURVE",
"354 455.5 LINE",
"337 455.5 OFFCURVE",
"321 453 OFFCURVE",
"315 443.5 CURVE SMOOTH",
"232 318.5 LINE SMOOTH",
"221.5 303 OFFCURVE",
"217 294.5 OFFCURVE",
"213.5 288 CURVE",
"210 294.5 OFFCURVE",
"205.5 303 OFFCURVE",
"195.5 318.5 CURVE SMOOTH",
"113 442.5 LINE SMOOTH",
"106 453 OFFCURVE",
"93.5 455.5 OFFCURVE",
"75.5 455.5 CURVE SMOOTH",
"67.5 455.5 LINE SMOOTH",
"38 455.5 OFFCURVE",
"28 450.5 OFFCURVE",
"28 441 CURVE SMOOTH",
"28 436.5 OFFCURVE",
"30.5 431.5 OFFCURVE",
"34.5 425.5 CURVE SMOOTH",
"165 232.5 LINE",
"24.5 28.5 LINE SMOOTH",
"20 22.5 OFFCURVE",
"17.5 17.5 OFFCURVE",
"17.5 13 CURVE SMOOTH",
"17.5 2.5 OFFCURVE",
"28 -1.5 OFFCURVE",
"54.5 -1.5 CURVE"
);
}
);
width = 421;
},
{
layerId = "163C89DF-00F0-42B6-A1D9-DCBEB7633CF5";
paths = (
{
closed = 1;
nodes = (
"85 -1.5 LINE SMOOTH",
"110 -1.5 OFFCURVE",
"128.5 -1 OFFCURVE",
"138 15 CURVE SMOOTH",
"199 110 LINE SMOOTH",
"202 116.5 OFFCURVE",
"206.5 122.5 OFFCURVE",
"210 128.5 CURVE",
"213.5 122.5 OFFCURVE",
"218 116.5 OFFCURVE",
"221.5 110 CURVE SMOOTH",
"281 15 LINE SMOOTH",
"291 -1 OFFCURVE",
"309 -1.5 OFFCURVE",
"334 -1.5 CURVE SMOOTH",
"362 -1.5 LINE SMOOTH",
"399.5 -1.5 OFFCURVE",
"416.5 4.5 OFFCURVE",
"416.5 14 CURVE SMOOTH",
"416.5 20 OFFCURVE",
"413 27 OFFCURVE",
"407 36.5 CURVE SMOOTH",
"278.5 231 LINE",
"405.5 418.5 LINE SMOOTH",
"411.5 428 OFFCURVE",
"415 435 OFFCURVE",
"415 440 CURVE SMOOTH",
"415 449.5 OFFCURVE",
"397.5 455.5 OFFCURVE",
"360 455.5 CURVE SMOOTH",
"335 455.5 LINE SMOOTH",
"310 455.5 OFFCURVE",
"291.5 455 OFFCURVE",
"282 439 CURVE SMOOTH",
"228.5 355 LINE SMOOTH",
"223 347 OFFCURVE",
"218.5 340.5 OFFCURVE",
"213.5 332.5 CURVE",
"209 339.5 OFFCURVE",
"205 346.5 OFFCURVE",
"200.5 353.5 CURVE SMOOTH",
"147.5 439 LINE SMOOTH",
"138 455 OFFCURVE",
"120 455.5 OFFCURVE",
"94.5 455.5 CURVE SMOOTH",
"67 455.5 LINE SMOOTH",
"29.5 455.5 OFFCURVE",
"12 449.5 OFFCURVE",
"12 440 CURVE SMOOTH",
"12 434 OFFCURVE",
"15.5 427 OFFCURVE",
"21.5 417.5 CURVE SMOOTH",
"145 230 LINE",
"14 35.5 LINE SMOOTH",
"8 26 OFFCURVE",
"4.5 19 OFFCURVE",
"4.5 14 CURVE SMOOTH",
"4.5 4.5 OFFCURVE",
"21.5 -1.5 OFFCURVE",
"59 -1.5 CURVE SMOOTH"
);
}
);
width = 421;
}
);
unicode = 0078;
},
{
glyphname = y;
lastChange = "2015-02-24 04:03:16 +0000";
layers = (
{
anchors = (
{
name = bottom;
position = "{300.5, 0}";
},
{
name = top;
position = "{209, 454}";
}
);
layerId = "A2A4A5F3-E0E0-4E92-91CC-8026BABF9DB1";
paths = (
{
closed = 1;
nodes = (
"134.5 -180.5 LINE SMOOTH",
"155.5 -180.5 OFFCURVE",
"170 -175.5 OFFCURVE",
"175.5 -162.5 CURVE SMOOTH",
"398.5 429 LINE SMOOTH",
"400 434 OFFCURVE",
"401 437.5 OFFCURVE",
"401 441 CURVE SMOOTH",
"401 450.5 OFFCURVE",
"390.5 455.5 OFFCURVE",
"366.5 455.5 CURVE",
"363.5 455.5 LINE",
"345.5 455.5 OFFCURVE",
"331.5 452 OFFCURVE",
"328 442 CURVE SMOOTH",
"241.5 206.5 LINE SMOOTH",
"231 179.5 OFFCURVE",
"221.5 146 OFFCURVE",
"212.5 119 CURVE",
"211 119 LINE",
"203 146.5 OFFCURVE",
"193.5 178 OFFCURVE",
"183 206.5 CURVE SMOOTH",
"94.5 442 LINE SMOOTH",
"90.5 452 OFFCURVE",
"77.5 455.5 OFFCURVE",
"60 455.5 CURVE SMOOTH",
"53 455.5 LINE SMOOTH",
"27 455.5 OFFCURVE",
"15.5 449.5 OFFCURVE",
"15.5 441 CURVE SMOOTH",
"15.5 437.5 OFFCURVE",
"17.5 432.5 OFFCURVE",
"18 429.5 CURVE SMOOTH",
"170 24.5 LINE",
"97 -152 LINE",
"93 -163 OFFCURVE",
"93 -165 OFFCURVE",
"93 -166.5 CURVE SMOOTH",
"93 -175.5 OFFCURVE",
"102.5 -180.5 OFFCURVE",
"121.5 -180.5 CURVE SMOOTH"
);
}
);
width = 417.5;
},
{
anchors = (
{
name = bottom;
position = "{313.5, 0}";
},
{
name = top;
position = "{209, 454}";
}
);
layerId = "163C89DF-00F0-42B6-A1D9-DCBEB7633CF5";
paths = (
{
closed = 1;
nodes = (
"164 -179 LINE SMOOTH",
"189 -179 OFFCURVE",
"207.5 -174.5 OFFCURVE",
"212.5 -160.5 CURVE SMOOTH",
"411.5 421 LINE SMOOTH",
"413 427 OFFCURVE",
"414 432.5 OFFCURVE",
"414 436.5 CURVE SMOOTH",
"414 449 OFFCURVE",
"398.5 455.5 OFFCURVE",
"362 455.5 CURVE SMOOTH",
"341 455.5 LINE SMOOTH",
"316 455.5 OFFCURVE",
"297 451.5 OFFCURVE",
"292.5 437.5 CURVE SMOOTH",
"241.5 277 LINE SMOOTH",
"235 258 OFFCURVE",
"225 209 OFFCURVE",
"217 172 CURVE",
"213.5 172 LINE",
"205.5 209 OFFCURVE",
"195.5 257 OFFCURVE",
"189 277 CURVE SMOOTH",
"138 437.5 LINE SMOOTH",
"133.5 451.5 OFFCURVE",
"114.5 455.5 OFFCURVE",
"89.5 455.5 CURVE SMOOTH",
"61.5 455.5 LINE SMOOTH",
"25 455.5 OFFCURVE",
"8.5 449 OFFCURVE",
"8.5 436.5 CURVE SMOOTH",
"8.5 432.5 OFFCURVE",
"10.5 427 OFFCURVE",
"12 421 CURVE SMOOTH",
"155.5 0 LINE",
"100.5 -145 LINE SMOOTH",
"98 -151 OFFCURVE",
"97 -156 OFFCURVE",
"97 -160.5 CURVE SMOOTH",
"97 -172 OFFCURVE",
"113.5 -179 OFFCURVE",
"149.5 -179 CURVE SMOOTH"
);
}
);
width = 417.5;
}
);
rightKerningGroup = v;
unicode = 0079;
},
{
glyphname = z;
lastChange = "2015-02-24 04:03:16 +0000";
layers = (
{
anchors = (
{
name = bottom;
position = "{206.5, 0}";
},
{
name = top;
position = "{212.5, 454}";
}
);
layerId = "A2A4A5F3-E0E0-4E92-91CC-8026BABF9DB1";
paths = (
{
closed = 1;
nodes = (
"372.5 0 LINE SMOOTH",
"384.5 0 OFFCURVE",
"389.5 8 OFFCURVE",
"389.5 26 CURVE SMOOTH",
"389.5 36.5 LINE SMOOTH",
"389.5 54.5 OFFCURVE",
"384.5 62.5 OFFCURVE",
"372.5 62.5 CURVE SMOOTH",
"133.5 62.5 LINE",
"387 400 LINE SMOOTH",
"388 402 OFFCURVE",
"389 404.5 OFFCURVE",
"389 409 CURVE SMOOTH",
"389 424.5 OFFCURVE",
"380 454 OFFCURVE",
"371.5 454 CURVE SMOOTH",
"67 454 LINE SMOOTH",
"54.5 454 OFFCURVE",
"49.5 446 OFFCURVE",
"49.5 428 CURVE SMOOTH",
"49.5 417.5 LINE SMOOTH",
"49.5 399.5 OFFCURVE",
"54.5 391.5 OFFCURVE",
"67 391.5 CURVE SMOOTH",
"289 391.5 LINE",
"34.5 54 LINE SMOOTH",
"33 51 OFFCURVE",
"32 47.5 OFFCURVE",
"32 44.5 CURVE SMOOTH",
"32 27 OFFCURVE",
"44.5 0 OFFCURVE",
"51 0 CURVE"
);
}
);
width = 424.5;
},
{
anchors = (
{
name = bottom;
position = "{209, 0}";
},
{
name = top;
position = "{212.5, 454}";
}
);
layerId = "163C89DF-00F0-42B6-A1D9-DCBEB7633CF5";
paths = (
{
closed = 1;
nodes = (
"373 0 LINE SMOOTH",
"391.5 0 OFFCURVE",
"399.5 13 OFFCURVE",
"399.5 43.5 CURVE SMOOTH",
"399.5 58 LINE SMOOTH",
"399.5 88.5 OFFCURVE",
"391.5 101.5 OFFCURVE",
"373 101.5 CURVE SMOOTH",
"195.5 101.5 LINE",
"393 374 LINE SMOOTH",
"395 376.5 OFFCURVE",
"396 381 OFFCURVE",
"396 387 CURVE SMOOTH",
"396 411.5 OFFCURVE",
"380 454 OFFCURVE",
"370.5 454 CURVE SMOOTH",
"63.5 454 LINE SMOOTH",
"45 454 OFFCURVE",
"37.5 441 OFFCURVE",
"37.5 410.5 CURVE SMOOTH",
"37.5 396 LINE SMOOTH",
"37.5 365.5 OFFCURVE",
"45 352.5 OFFCURVE",
"63.5 352.5 CURVE SMOOTH",
"225 352.5 LINE",
"26 78 LINE SMOOTH",
"24.5 75.5 OFFCURVE",
"23.5 71 OFFCURVE",
"23.5 66 CURVE SMOOTH",
"23.5 43.5 OFFCURVE",
"37.5 0 OFFCURVE",
"48.5 0 CURVE"
);
}
);
width = 424.5;
}
);
unicode = 007A;
},
{
glyphname = y.loclGUA;
lastChange = "2015-02-24 04:03:16 +0000";
layers = (
{
anchors = (
{
name = bottom;
position = "{452, 0}";
},
{
name = top;
position = "{242, 454}";
}
);
layerId = "A2A4A5F3-E0E0-4E92-91CC-8026BABF9DB1";
paths = (
{
closed = 1;
nodes = (
"350 -184 OFFCURVE",
"409 -121.5 OFFCURVE",
"409 86 CURVE SMOOTH",
"409 436.5 LINE SMOOTH",
"409 449 OFFCURVE",
"398.5 455.5 OFFCURVE",
"374 455.5 CURVE SMOOTH",
"370.5 455.5 LINE SMOOTH",
"346.5 455.5 OFFCURVE",
"336 449 OFFCURVE",
"336 436.5 CURVE SMOOTH",
"336 119 LINE",
"307.5 81.5 OFFCURVE",
"265.5 58 OFFCURVE",
"226.5 58 CURVE SMOOTH",
"170 58 OFFCURVE",
"138 89.5 OFFCURVE",
"138 142.5 CURVE SMOOTH",
"138 436.5 LINE SMOOTH",
"138 449 OFFCURVE",
"127.5 455.5 OFFCURVE",
"103.5 455.5 CURVE SMOOTH",
"100 455.5 LINE SMOOTH",
"75.5 455.5 OFFCURVE",
"65 449 OFFCURVE",
"65 436.5 CURVE SMOOTH",
"65 135.5 LINE SMOOTH",
"65 47.5 OFFCURVE",
"118 -5 OFFCURVE",
"206.5 -5 CURVE SMOOTH",
"259.5 -5 OFFCURVE",
"315 24.5 OFFCURVE",
"351.5 72 CURVE",
"337 90.5 LINE",
"337 54 LINE",
"337 -72 OFFCURVE",
"294.5 -121.5 OFFCURVE",
"218.5 -121.5 CURVE SMOOTH",
"128.5 -121.5 OFFCURVE",
"87.5 -74.5 OFFCURVE",
"77.5 -74.5 CURVE SMOOTH",
"74 -74.5 OFFCURVE",
"68.5 -78 OFFCURVE",
"68.5 -100.5 CURVE SMOOTH",
"68.5 -107 OFFCURVE",
"68.5 -113.5 OFFCURVE",
"69.5 -122.5 CURVE SMOOTH",
"73 -148.5 OFFCURVE",
"137 -184 OFFCURVE",
"225.5 -184 CURVE SMOOTH"
);
}
);
width = 483.5;
},
{
anchors = (
{
name = bottom;
position = "{461, 0}";
},
{
name = top;
position = "{242, 454}";
}
);
layerId = "163C89DF-00F0-42B6-A1D9-DCBEB7633CF5";
paths = (
{
closed = 1;
nodes = (
"371.5 -184 OFFCURVE",
"431.5 -95.5 OFFCURVE",
"429.5 80.5 CURVE",
"429.5 428 LINE SMOOTH",
"429.5 446 OFFCURVE",
"414 455.5 OFFCURVE",
"377.5 455.5 CURVE SMOOTH",
"353.5 455.5 LINE SMOOTH",
"317 455.5 OFFCURVE",
"301 446 OFFCURVE",
"301 428 CURVE SMOOTH",
"301 149.5 LINE",
"291 129.5 OFFCURVE",
"267.5 99 OFFCURVE",
"232 99 CURVE SMOOTH",
"193.5 99 OFFCURVE",
"179.5 119 OFFCURVE",
"179.5 153 CURVE SMOOTH",
"179.5 428 LINE SMOOTH",
"179.5 446 OFFCURVE",
"164 455.5 OFFCURVE",
"127.5 455.5 CURVE SMOOTH",
"103.5 455.5 LINE SMOOTH",
"67 455.5 OFFCURVE",
"51 446 OFFCURVE",
"51 428 CURVE SMOOTH",
"51 133.5 LINE SMOOTH",
"51 37.5 OFFCURVE",
"92 -7 OFFCURVE",
"179 -7 CURVE SMOOTH",
"250 -7 OFFCURVE",
"307.5 45 OFFCURVE",
"323 84 CURVE",
"308 117 LINE",
"308 28.5 LINE SMOOTH",
"308 -42.5 OFFCURVE",
"266.5 -82.5 OFFCURVE",
"199.5 -82.5 CURVE SMOOTH",
"132 -82.5 OFFCURVE",
"88.5 -47 OFFCURVE",
"78 -47 CURVE SMOOTH",
"72 -47 OFFCURVE",
"67 -55.5 OFFCURVE",
"67 -81.5 CURVE SMOOTH",
"67 -92 OFFCURVE",
"67.5 -106 OFFCURVE",
"69.5 -122.5 CURVE SMOOTH",
"73 -159 OFFCURVE",
"146.5 -184 OFFCURVE",
"236 -184 CURVE SMOOTH"
);
}
);
width = 483.5;
}
);
},
{
glyphname = g.ss01;
lastChange = "2015-02-24 04:03:16 +0000";
layers = (
{
anchors = (
{
name = top;
position = "{225.5, 454}";
}
);
layerId = "A2A4A5F3-E0E0-4E92-91CC-8026BABF9DB1";
paths = (
{
closed = 1;
nodes = (
"343 -184 OFFCURVE",
"402 -121.5 OFFCURVE",
"402 86 CURVE SMOOTH",
"403 437.5 LINE",
"401 449 OFFCURVE",
"396 455.5 OFFCURVE",
"378.5 455.5 CURVE SMOOTH",
"373 455.5 LINE SMOOTH",
"349 455.5 OFFCURVE",
"345.5 437.5 OFFCURVE",
"339.5 412.5 CURVE",
"317.5 430.5 OFFCURVE",
"275 459 OFFCURVE",
"219.5 459 CURVE SMOOTH",
"100.5 459 OFFCURVE",
"29.5 365.5 OFFCURVE",
"29.5 228.5 CURVE SMOOTH",
"29.5 120.5 OFFCURVE",
"76.5 0 OFFCURVE",
"200.5 0 CURVE SMOOTH",
"259.5 0 OFFCURVE",
"313.5 33 OFFCURVE",
"340.5 121.5 CURVE",
"330 132 LINE",
"330 73 LINE",
"330 -67 OFFCURVE",
"291.5 -121.5 OFFCURVE",
"212 -121.5 CURVE SMOOTH",
"121.5 -121.5 OFFCURVE",
"80.5 -74.5 OFFCURVE",
"70.5 -74.5 CURVE SMOOTH",
"67 -74.5 OFFCURVE",
"61.5 -78 OFFCURVE",
"61.5 -100.5 CURVE SMOOTH",
"61.5 -107 OFFCURVE",
"61.5 -113.5 OFFCURVE",
"62.5 -122.5 CURVE SMOOTH",
"66 -148.5 OFFCURVE",
"130 -184 OFFCURVE",
"218.5 -184 CURVE SMOOTH"
);
},
{
closed = 1;
nodes = (
"124 63.5 OFFCURVE",
"104 152 OFFCURVE",
"104 236 CURVE SMOOTH",
"104 322 OFFCURVE",
"133.5 396 OFFCURVE",
"233.5 396 CURVE SMOOTH",
"278.5 396 OFFCURVE",
"312.5 375 OFFCURVE",
"331.5 362 CURVE",
"330.5 348 OFFCURVE",
"329 334 OFFCURVE",
"329 318.5 CURVE",
"329 212 LINE",
"304.5 95.5 OFFCURVE",
"249 63.5 OFFCURVE",
"210 63.5 CURVE SMOOTH"
);
}
);
width = 474;
},
{
anchors = (
{
name = top;
position = "{218, 454}";
}
);
layerId = "163C89DF-00F0-42B6-A1D9-DCBEB7633CF5";
paths = (
{
closed = 1;
nodes = (
"363 -184 OFFCURVE",
"420 -95.5 OFFCURVE",
"420 80.5 CURVE SMOOTH",
"420 434 LINE",
"419 448 OFFCURVE",
"402 455.5 OFFCURVE",
"367 455.5 CURVE SMOOTH",
"356.5 455.5 LINE SMOOTH",
"313.5 455 OFFCURVE",
"310.5 446 OFFCURVE",
"304 416 CURVE",
"284 433 OFFCURVE",
"244 461 OFFCURVE",
"195.5 461 CURVE SMOOTH",
"88.5 461 OFFCURVE",
"20 370.5 OFFCURVE",
"20 232.5 CURVE SMOOTH",
"20 140.5 OFFCURVE",
"53 3.5 OFFCURVE",
"191 3.5 CURVE SMOOTH",
"248 3.5 OFFCURVE",
"292.5 41.5 OFFCURVE",
"308 86 CURVE",
"291.5 113 LINE",
"291.5 28.5 LINE SMOOTH",
"292.5 -42.5 OFFCURVE",
"258 -82.5 OFFCURVE",
"191 -82.5 CURVE SMOOTH",
"123.5 -82.5 OFFCURVE",
"80 -47 OFFCURVE",
"69.5 -47 CURVE SMOOTH",
"63.5 -47 OFFCURVE",
"58 -55.5 OFFCURVE",
"58 -81.5 CURVE SMOOTH",
"58 -92 OFFCURVE",
"59 -106 OFFCURVE",
"61 -122.5 CURVE SMOOTH",
"64 -159 OFFCURVE",
"138 -184 OFFCURVE",
"227.5 -184 CURVE SMOOTH"
);
},
{
closed = 1;
nodes = (
"160.5 108.5 OFFCURVE",
"149.5 175.5 OFFCURVE",
"149.5 233.5 CURVE SMOOTH",
"149.5 316 OFFCURVE",
"180.5 359.5 OFFCURVE",
"235 359.5 CURVE SMOOTH",
"258.5 359.5 OFFCURVE",
"278.5 349 OFFCURVE",
"294.5 337 CURVE",
"293.5 326.5 OFFCURVE",
"291.5 306.5 OFFCURVE",
"291.5 282 CURVE",
"291.5 159 LINE",
"277 132 OFFCURVE",
"257 108.5 OFFCURVE",
"229 108.5 CURVE SMOOTH"
);
}
);
width = 474;
}
);
},
{
glyphname = fi;
lastChange = "2015-02-24 04:03:16 +0000";
layers = (
{
layerId = "A2A4A5F3-E0E0-4E92-91CC-8026BABF9DB1";
paths = (
{
closed = 1;
nodes = (
"132 -1.5 LINE SMOOTH",
"156 -1.5 OFFCURVE",
"166.5 5 OFFCURVE",
"166.5 17.5 CURVE SMOOTH",
"166.5 391.5 LINE",
"242 391.5 LINE SMOOTH",
"254.5 391.5 OFFCURVE",
"259.5 399.5 OFFCURVE",
"259.5 417.5 CURVE SMOOTH",
"259.5 428 LINE SMOOTH",
"259.5 446 OFFCURVE",
"254.5 454 OFFCURVE",
"242 454 CURVE SMOOTH",
"166.5 454 LINE",
"166.5 529.5 LINE SMOOTH",
"166.5 587 OFFCURVE",
"188.5 593.5 OFFCURVE",
"213.5 593.5 CURVE SMOOTH",
"238.5 593.5 OFFCURVE",
"243 589.5 OFFCURVE",
"251 589.5 CURVE SMOOTH",
"263 589.5 OFFCURVE",
"269 623 OFFCURVE",
"269 630 CURVE SMOOTH",
"269 653.5 OFFCURVE",
"229 656 OFFCURVE",
"205.5 656 CURVE SMOOTH",
"162.5 656 OFFCURVE",
"93.5 639.5 OFFCURVE",
"93.5 536.5 CURVE SMOOTH",
"93.5 454 LINE",
"59 454 LINE SMOOTH",
"47 454 OFFCURVE",
"41.5 446 OFFCURVE",
"41.5 428 CURVE SMOOTH",
"41.5 417.5 LINE SMOOTH",
"41.5 399.5 OFFCURVE",
"47 391.5 OFFCURVE",
"59 391.5 CURVE SMOOTH",
"93.5 391.5 LINE",
"93.5 17.5 LINE SMOOTH",
"93.5 5 OFFCURVE",
"104 -1.5 OFFCURVE",
"128.5 -1.5 CURVE SMOOTH"
);
},
{
closed = 1;
nodes = (
"376 -1.5 LINE SMOOTH",
"400 -1.5 OFFCURVE",
"410.5 5 OFFCURVE",
"410.5 17.5 CURVE SMOOTH",
"410.5 436.5 LINE SMOOTH",
"410.5 449 OFFCURVE",
"400 455.5 OFFCURVE",
"376 455.5 CURVE SMOOTH",
"372.5 455.5 LINE SMOOTH",
"348 455.5 OFFCURVE",
"337.5 449 OFFCURVE",
"337.5 436.5 CURVE SMOOTH",
"337.5 17.5 LINE SMOOTH",
"337.5 5 OFFCURVE",
"348 -1.5 OFFCURVE",
"372.5 -1.5 CURVE SMOOTH"
);
},
{
closed = 1;
nodes = (
"379.5 563.5 LINE SMOOTH",
"403.5 563.5 OFFCURVE",
"414 570.5 OFFCURVE",
"414 582.5 CURVE SMOOTH",
"414 633.5 LINE SMOOTH",
"414 646 OFFCURVE",
"403.5 652.5 OFFCURVE",
"379.5 652.5 CURVE SMOOTH",
"369 652.5 LINE SMOOTH",
"344.5 652.5 OFFCURVE",
"334 646 OFFCURVE",
"334 633.5 CURVE SMOOTH",
"334 582.5 LINE SMOOTH",
"334 570.5 OFFCURVE",
"344.5 563.5 OFFCURVE",
"369 563.5 CURVE"
);
}
);
width = 488.5;
},
{
layerId = "163C89DF-00F0-42B6-A1D9-DCBEB7633CF5";
paths = (
{
closed = 1;
nodes = (
"133 -1.5 LINE SMOOTH",
"169.5 -1.5 OFFCURVE",
"185 8 OFFCURVE",
"185 26 CURVE SMOOTH",
"185 352.5 LINE",
"228.5 352.5 LINE SMOOTH",
"246.5 352.5 OFFCURVE",
"254.5 365.5 OFFCURVE",
"254.5 396 CURVE SMOOTH",
"254.5 410.5 LINE SMOOTH",
"254.5 441 OFFCURVE",
"246.5 454 OFFCURVE",
"228.5 454 CURVE SMOOTH",
"185 454 LINE",
"185 521 LINE SMOOTH",
"185 547 OFFCURVE",
"193.5 558 OFFCURVE",
"216 558 CURVE SMOOTH",
"225 558 OFFCURVE",
"237 554.5 OFFCURVE",
"243 554.5 CURVE SMOOTH",
"260.5 554.5 OFFCURVE",
"270 610 OFFCURVE",
"270 617 CURVE SMOOTH",
"270 657 OFFCURVE",
"211 659.5 OFFCURVE",
"183 659.5 CURVE SMOOTH",
"101.5 659.5 OFFCURVE",
"56.5 615.5 OFFCURVE",
"56.5 519 CURVE SMOOTH",
"56.5 454 LINE",
"41 454 LINE SMOOTH",
"22.5 454 OFFCURVE",
"15 441 OFFCURVE",
"15 410.5 CURVE SMOOTH",
"15 396 LINE SMOOTH",
"15 365.5 OFFCURVE",
"22.5 352.5 OFFCURVE",
"41 352.5 CURVE SMOOTH",
"56.5 352.5 LINE",
"56.5 26 LINE SMOOTH",
"56.5 8 OFFCURVE",
"72 -1.5 OFFCURVE",
"108.5 -1.5 CURVE SMOOTH"
);
},
{
closed = 1;
nodes = (
"386.5 -1.5 LINE SMOOTH",
"422.5 -1.5 OFFCURVE",
"438.5 8 OFFCURVE",
"438.5 26 CURVE SMOOTH",
"438.5 428 LINE SMOOTH",
"438.5 446 OFFCURVE",
"422.5 455.5 OFFCURVE",
"386.5 455.5 CURVE SMOOTH",
"362 455.5 LINE SMOOTH",
"325.5 455.5 OFFCURVE",
"310 446 OFFCURVE",
"310 428 CURVE SMOOTH",
"310 26 LINE SMOOTH",
"310 8 OFFCURVE",
"325.5 -1.5 OFFCURVE",
"362 -1.5 CURVE SMOOTH"
);
},
{
closed = 1;
nodes = (
"386.5 528.5 LINE SMOOTH",
"422.5 528.5 OFFCURVE",
"438.5 538 OFFCURVE",
"438.5 556.5 CURVE SMOOTH",
"438.5 626.5 LINE SMOOTH",
"438.5 645 OFFCURVE",
"422.5 654.5 OFFCURVE",
"386.5 654.5 CURVE SMOOTH",
"362 654.5 LINE SMOOTH",
"325.5 654.5 OFFCURVE",
"310 645 OFFCURVE",
"310 626.5 CURVE SMOOTH",
"310 556.5 LINE SMOOTH",
"310 538 OFFCURVE",
"325.5 528.5 OFFCURVE",
"362 528.5 CURVE"
);
}
);
width = 488.5;
}
);
unicode = FB01;
},
{
glyphname = fl;
lastChange = "2015-02-24 04:03:16 +0000";
layers = (
{
layerId = "A2A4A5F3-E0E0-4E92-91CC-8026BABF9DB1";
paths = (
{
closed = 1;
nodes = (
"132 -1.5 LINE SMOOTH",
"156 -1.5 OFFCURVE",
"166.5 5 OFFCURVE",
"166.5 17.5 CURVE SMOOTH",
"166.5 391.5 LINE",
"242 391.5 LINE SMOOTH",
"254.5 391.5 OFFCURVE",
"259.5 399.5 OFFCURVE",
"259.5 417.5 CURVE SMOOTH",
"259.5 428 LINE SMOOTH",
"259.5 446 OFFCURVE",
"254.5 454 OFFCURVE",
"242 454 CURVE SMOOTH",
"166.5 454 LINE",
"166.5 529.5 LINE SMOOTH",
"166.5 587 OFFCURVE",
"188.5 593.5 OFFCURVE",
"213.5 593.5 CURVE SMOOTH",
"238.5 593.5 OFFCURVE",
"243 589.5 OFFCURVE",
"251 589.5 CURVE SMOOTH",
"263 589.5 OFFCURVE",
"269 623 OFFCURVE",
"269 630 CURVE SMOOTH",
"269 653.5 OFFCURVE",
"229 656 OFFCURVE",
"205.5 656 CURVE SMOOTH",
"162.5 656 OFFCURVE",
"93.5 639.5 OFFCURVE",
"93.5 536.5 CURVE SMOOTH",
"93.5 454 LINE",
"59 454 LINE SMOOTH",
"47 454 OFFCURVE",
"41.5 446 OFFCURVE",
"41.5 428 CURVE SMOOTH",
"41.5 417.5 LINE SMOOTH",
"41.5 399.5 OFFCURVE",
"47 391.5 OFFCURVE",
"59 391.5 CURVE SMOOTH",
"93.5 391.5 LINE",
"93.5 17.5 LINE SMOOTH",
"93.5 5 OFFCURVE",
"104 -1.5 OFFCURVE",
"128.5 -1.5 CURVE SMOOTH"
);
},
{
closed = 1;
nodes = (
"465 -5 OFFCURVE",
"505 -2.5 OFFCURVE",
"505 21 CURVE SMOOTH",
"505 28 OFFCURVE",
"499 61.5 OFFCURVE",
"487 61.5 CURVE SMOOTH",
"479 61.5 OFFCURVE",
"475 57.5 OFFCURVE",
"449.5 57.5 CURVE SMOOTH",
"424.5 57.5 OFFCURVE",
"403 69.5 OFFCURVE",
"403 121.5 CURVE SMOOTH",
"403 633.5 LINE SMOOTH",
"403 646 OFFCURVE",
"392.5 652.5 OFFCURVE",
"368 652.5 CURVE SMOOTH",
"364.5 652.5 LINE SMOOTH",
"340.5 652.5 OFFCURVE",
"330 646 OFFCURVE",
"330 633.5 CURVE SMOOTH",
"330 114.5 LINE SMOOTH",
"330 14 OFFCURVE",
"398.5 -5 OFFCURVE",
"442 -5 CURVE SMOOTH"
);
}
);
width = 513;
},
{
layerId = "163C89DF-00F0-42B6-A1D9-DCBEB7633CF5";
paths = (
{
closed = 1;
nodes = (
"133 -1.5 LINE SMOOTH",
"169.5 -1.5 OFFCURVE",
"185 8 OFFCURVE",
"185 26 CURVE SMOOTH",
"185 352.5 LINE",
"228.5 352.5 LINE SMOOTH",
"246.5 352.5 OFFCURVE",
"254.5 365.5 OFFCURVE",
"254.5 396 CURVE SMOOTH",
"254.5 410.5 LINE SMOOTH",
"254.5 441 OFFCURVE",
"246.5 454 OFFCURVE",
"228.5 454 CURVE SMOOTH",
"185 454 LINE",
"185 521 LINE SMOOTH",
"185 547 OFFCURVE",
"193.5 558 OFFCURVE",
"216 558 CURVE SMOOTH",
"225 558 OFFCURVE",
"237 554.5 OFFCURVE",
"243 554.5 CURVE SMOOTH",
"260.5 554.5 OFFCURVE",
"270 610 OFFCURVE",
"270 617 CURVE SMOOTH",
"270 657 OFFCURVE",
"211 659.5 OFFCURVE",
"183 659.5 CURVE SMOOTH",
"101.5 659.5 OFFCURVE",
"56.5 615.5 OFFCURVE",
"56.5 519 CURVE SMOOTH",
"56.5 454 LINE",
"41 454 LINE SMOOTH",
"22.5 454 OFFCURVE",
"15 441 OFFCURVE",
"15 410.5 CURVE SMOOTH",
"15 396 LINE SMOOTH",
"15 365.5 OFFCURVE",
"22.5 352.5 OFFCURVE",
"41 352.5 CURVE SMOOTH",
"56.5 352.5 LINE",
"56.5 26 LINE SMOOTH",
"56.5 8 OFFCURVE",
"72 -1.5 OFFCURVE",
"108.5 -1.5 CURVE SMOOTH"
);
},
{
closed = 1;
nodes = (
"463.5 -7 OFFCURVE",
"520 -4.5 OFFCURVE",
"520 35.5 CURVE SMOOTH",
"520 42.5 OFFCURVE",
"510.5 98 OFFCURVE",
"493 98 CURVE SMOOTH",
"488 98 OFFCURVE",
"477.5 94.5 OFFCURVE",
"469.5 94.5 CURVE SMOOTH",
"447 94.5 OFFCURVE",
"438.5 106 OFFCURVE",
"438.5 132 CURVE SMOOTH",
"438.5 626.5 LINE SMOOTH",
"438.5 645 OFFCURVE",
"422.5 654.5 OFFCURVE",
"386.5 654.5 CURVE SMOOTH",
"362 654.5 LINE SMOOTH",
"325.5 654.5 OFFCURVE",
"310 645 OFFCURVE",
"310 626.5 CURVE SMOOTH",
"310 133.5 LINE SMOOTH",
"310 37.5 OFFCURVE",
"355 -7 OFFCURVE",
"436.5 -7 CURVE SMOOTH"
);
}
);
width = 513;
}
);
unicode = FB02;
},
{
glyphname = ordfeminine;
lastChange = "2015-02-24 04:03:16 +0000";
layers = (
{
layerId = "A2A4A5F3-E0E0-4E92-91CC-8026BABF9DB1";
paths = (
{
closed = 1;
nodes = (
"145 383 OFFCURVE",
"168.5 397.5 OFFCURVE",
"185 416 CURVE",
"186.5 403.5 OFFCURVE",
"189 385.5 OFFCURVE",
"199.5 385.5 CURVE SMOOTH",
"205 385.5 OFFCURVE",
"223 387 OFFCURVE",
"223 395 CURVE SMOOTH",
"223 397.5 OFFCURVE",
"218 414 OFFCURVE",
"218 449 CURVE SMOOTH",
"218 545 LINE SMOOTH",
"218 587.5 OFFCURVE",
"186 613 OFFCURVE",
"133 613 CURVE SMOOTH",
"90.5 613 OFFCURVE",
"52 596.5 OFFCURVE",
"52 585 CURVE SMOOTH",
"52 580 OFFCURVE",
"61.5 564 OFFCURVE",
"67.5 564 CURVE SMOOTH",
"72 564 OFFCURVE",
"95.5 581.5 OFFCURVE",
"134.5 581.5 CURVE SMOOTH",
"170 581.5 OFFCURVE",
"182.5 565 OFFCURVE",
"182.5 546 CURVE SMOOTH",
"182.5 525 LINE",
"115.5 524.5 OFFCURVE",
"39 520 OFFCURVE",
"39 447 CURVE SMOOTH",
"39 403.5 OFFCURVE",
"71 383 OFFCURVE",
"112 383 CURVE SMOOTH"
);
},
{
closed = 1;
nodes = (
"90.5 415 OFFCURVE",
"78 426 OFFCURVE",
"78 449.5 CURVE SMOOTH",
"78 495 OFFCURVE",
"137 495 OFFCURVE",
"182.5 495 CURVE",
"182.5 443.5 LINE",
"165 428 OFFCURVE",
"146 415 OFFCURVE",
"113.5 415 CURVE SMOOTH"
);
}
);
width = 277;
},
{
layerId = "163C89DF-00F0-42B6-A1D9-DCBEB7633CF5";
paths = (
{
closed = 1;
nodes = (
"139.5 382 OFFCURVE",
"161.5 409 OFFCURVE",
"164 414 CURVE",
"166.5 403 OFFCURVE",
"167.5 384.5 OFFCURVE",
"180.5 384.5 CURVE SMOOTH",
"192 384.5 OFFCURVE",
"229 388 OFFCURVE",
"229 399.5 CURVE SMOOTH",
"229 407 OFFCURVE",
"224 416.5 OFFCURVE",
"224 461 CURVE SMOOTH",
"224 542.5 LINE SMOOTH",
"224 584 OFFCURVE",
"199.5 614.5 OFFCURVE",
"132 614.5 CURVE SMOOTH",
"83.5 614.5 OFFCURVE",
"49.5 599 OFFCURVE",
"49.5 585 CURVE SMOOTH",
"49.5 575.5 OFFCURVE",
"62.5 550.5 OFFCURVE",
"71 550.5 CURVE SMOOTH",
"76.5 550.5 OFFCURVE",
"94.5 563.5 OFFCURVE",
"126.5 563.5 CURVE SMOOTH",
"150 563.5 OFFCURVE",
"160.5 556.5 OFFCURVE",
"160.5 539 CURVE SMOOTH",
"160.5 525 LINE",
"51 525 OFFCURVE",
"36.5 480 OFFCURVE",
"36.5 444.5 CURVE SMOOTH",
"36.5 409 OFFCURVE",
"54 382 OFFCURVE",
"100 382 CURVE SMOOTH"
);
},
{
closed = 1;
nodes = (
"107 432.5 OFFCURVE",
"100 441 OFFCURVE",
"100 451.5 CURVE SMOOTH",
"100 472 OFFCURVE",
"120 482.5 OFFCURVE",
"160.5 482.5 CURVE",
"160.5 459 LINE",
"153.5 443.5 OFFCURVE",
"138 432.5 OFFCURVE",
"121.5 432.5 CURVE SMOOTH"
);
}
);
width = 277;
}
);
unicode = 00AA;
},
{
glyphname = ordmasculine;
lastChange = "2015-02-24 04:03:16 +0000";
layers = (
{
layerId = "A2A4A5F3-E0E0-4E92-91CC-8026BABF9DB1";
paths = (
{
closed = 1;
nodes = (
"211 383 OFFCURVE",
"245 422.5 OFFCURVE",
"245 496.5 CURVE SMOOTH",
"245 572 OFFCURVE",
"210 613 OFFCURVE",
"147.5 613 CURVE SMOOTH",
"83.5 613 OFFCURVE",
"47.5 571 OFFCURVE",
"47.5 496.5 CURVE SMOOTH",
"47.5 422.5 OFFCURVE",
"82.5 383 OFFCURVE",
"147.5 383 CURVE SMOOTH"
);
},
{
closed = 1;
nodes = (
"104 414 OFFCURVE",
"85 441 OFFCURVE",
"85 497.5 CURVE SMOOTH",
"85 555.5 OFFCURVE",
"104 581.5 OFFCURVE",
"146 581.5 CURVE SMOOTH",
"188.5 581.5 OFFCURVE",
"207.5 554.5 OFFCURVE",
"207.5 497.5 CURVE SMOOTH",
"207.5 441 OFFCURVE",
"188.5 414 OFFCURVE",
"146 414 CURVE SMOOTH"
);
}
);
width = 292.5;
},
{
layerId = "163C89DF-00F0-42B6-A1D9-DCBEB7633CF5";
paths = (
{
closed = 1;
nodes = (
"214.5 383 OFFCURVE",
"250 423.5 OFFCURVE",
"250 499 CURVE SMOOTH",
"250 573.5 OFFCURVE",
"214.5 614.5 OFFCURVE",
"146 614.5 CURVE SMOOTH",
"77.5 614.5 OFFCURVE",
"41 573.5 OFFCURVE",
"41 499 CURVE SMOOTH",
"41 423.5 OFFCURVE",
"77.5 383 OFFCURVE",
"146 383 CURVE SMOOTH"
);
},
{
closed = 1;
nodes = (
"118 433 OFFCURVE",
"106 455.5 OFFCURVE",
"106 499 CURVE SMOOTH",
"106 541.5 OFFCURVE",
"118 564 OFFCURVE",
"146 564 CURVE SMOOTH",
"173.5 564 OFFCURVE",
"185 541.5 OFFCURVE",
"185 499 CURVE SMOOTH",
"185 455.5 OFFCURVE",
"173.5 433 OFFCURVE",
"146 433 CURVE SMOOTH"
);
}
);
width = 292.5;
}
);
unicode = 00BA;
},
